/* XPM */
static char *result[] = {
/* columns rows colors chars-per-pixel */
"50 50 184 2 ",
"   c #080405",
".  c #0D0C0C",
"X  c #15080C",
"o  c #1C090F",
"O  c #0E100C",
"+  c #10120F",
"@  c #110F10",
"#  c #131313",
"$  c #181315",
"%  c #161916",
"&  c #191B17",
"*  c #1B1C1C",
"=  c #23040E",
"-  c #2A020E",
";  c #2B0712",
":  c #350313",
">  c #3D0316",
",  c #2C151B",
"<  c #301017",
"1  c #1E211D",
"2  c #242424",
"3  c #282625",
"4  c #2F2F2F",
"5  c #2C352B",
"6  c #2F312F",
"7  c #30362F",
"8  c #2F2F30",
"9  c #372D30",
"0  c #333333",
"q  c #353C34",
"w  c #3C3C3C",
"e  c #460216",
"r  c #4E0119",
"t  c #54021B",
"y  c #5C011D",
"u  c #62011F",
"i  c #4C1725",
"p  c #640220",
"a  c #6C0122",
"s  c #740025",
"d  c #7A0026",
"f  c #7F0128",
"g  c #6B1E37",
"h  c #771531",
"j  c #522E35",
"k  c #3F423E",
"l  c #3F4A3D",
"z  c #40413E",
"x  c #434E3F",
"c  c #6C3D47",
"v  c #434443",
"b  c #454B44",
"n  c #4B4B4B",
"m  c #504B45",
"M  c #465545",
"N  c #495B46",
"B  c #4E564D",
"V  c #4E5B4D",
"C  c #4E5C51",
"Z  c #535353",
"A  c #585757",
"S  c #535B52",
"D  c #585A57",
"F  c #5C5C5C",
"G  c #765E5E",
"H  c #4D614B",
"J  c #536351",
"K  c #596859",
"L  c #636B5E",
"P  c #637A5F",
"I  c #5F7760",
"U  c #626262",
"Y  c #626E62",
"T  c #786A62",
"R  c #657363",
"E  c #6A7B64",
"W  c #697868",
"Q  c #84012A",
"!  c #8C002C",
"~  c #93002F",
"^  c #99002F",
"/  c #950030",
"(  c #9B0030",
")  c #A30032",
"_  c #AB0035",
"`  c #AF0339",
"'  c #A10C3B",
"]  c #B20037",
"[  c #B50038",
"{  c #BB003B",
"}  c #C4003D",
"|  c #C9003E",
" . c #B61347",
".. c #8E2C47",
"X. c #982444",
"o. c #B5214D",
"O. c #B52151",
"+. c #BB2152",
"@. c #C40341",
"#. c #CE0041",
"$. c #D30043",
"%. c #DC0045",
"&. c #D90549",
"*. c #D40B4B",
"=. c #C71F55",
"-. c #D21954",
";. c #E10047",
":. c #E50049",
">. c #EC014C",
",. c #F4004E",
"<. c #FA004F",
"1. c #FD0051",
"2. c #F20854",
"3. c #FD0C59",
"4. c #E61B5C",
"5. c #FD145F",
"6. c #D22059",
"7. c #D8205A",
"8. c #EE1F61",
"9. c #FC1B63",
"0. c #C63562",
"q. c #D93F6F",
"w. c #E72160",
"e. c #FB2166",
"r. c #FC2569",
"t. c #FB2D6E",
"y. c #E4326A",
"u. c #F1326E",
"i. c #FB3473",
"p. c #FB3976",
"a. c #8B5D62",
"s. c #BE586E",
"d. c #DE4978",
"f. c #E84E7D",
"g. c #F1457B",
"h. c #F9447C",
"j. c #698566",
"k. c #6E826F",
"l. c #6B896B",
"z. c #72836F",
"x. c #738E6F",
"c. c #798A77",
"v. c #778D78",
"b. c #7A8E7A",
"n. c #6E9171",
"m. c #759374",
"M. c #7A9676",
"N. c #7D977A",
"B. c #7E9E79",
"V. c #87967C",
"C. c #82A47D",
"Z. c #88A67E",
"A. c #F75486",
"S. c #839C84",
"D. c #8B9C84",
"F. c #9A9883",
"G. c #85AD84",
"H. c #8AAA83",
"J. c #8AA488",
"K. c #8AAF8C",
"L. c #93A68D",
"P. c #92AA8E",
"I. c #8EB28D",
"U. c #91B68B",
"Y. c #92BA8C",
"T. c #98AC94",
"R. c #95B494",
"E. c #9AB697",
"W. c #93BD93",
"Q. c #99BE94",
"!. c #9DBA9B",
"~. c #A7A08D",
"^. c #94C596",
"/. c #9BC595",
"(. c #96C897",
"). c #9CCA97",
"_. c #95C598",
"`. c #9EC399",
"'. c #9ECB99",
"]. c #A0CC99",
"[. c #9DC7A1",
"{. c #A3C4A0",
"}. c #A7CCA1",
"|. c #A9CCA3",
/* pixels */
"(.^.^.^.^.^.^.^.^.^.^.^.^.^.^.^.^.^.^.^.^.^.^.^.^.^.^.^.^.^.^.^.^.^.^.^.^.^.^.^.^.^.^.^.^.^.^.^.^.(.",
"'.(.^.^.^.^.^.^.^.^.^.^.^.^.^.^.^.^.^.^.^.^.^.^.^.^.^.^.^.^.^.^.^.^.^.^.^.^.^.^.^.^.^.^.^.^.^.^.(.'.",
"].].(.^.^.^.^.^.^.^.^.^.^.^.^.^.^.^.^.^.^.^.^.^.^.^.^.^.^.^.^.^.^.^.^.^.^.^.^.^.^.^.^.^.^.^.(.'.'.].",
"].'.'.(.^.^.^.^.^.^.^.^.^.^.^.^.^.^.^.^.^.^.^.^.^.^.^.^.^.^.^.^.^.^.^.^.^.^.^.^.^.^.^.^.^.^.(.].'.'.",
"].].'.'.(.^.^.^.^.^.^.^.^.^.^.^.^.^.^.^.^.^.^.^.^.^.^.^.^.^.^.^.^.^.^.^.^.^.^.^.^.^.^.^.^.^.'.].].].",
"].].].].).^.^.^.^.^.^.^.^.^.^.^.^.^.^.^.^.^.^.^.^.^.^.^.^.^.^.^.^.^.^.^.^.^.^.^.^.^.^.^.(.'.].].].'.",
"].].].].].].^.^.^.^.^.^.^.^.^.^.^.^.^.^.^.^.^.^.^.^.^.^.^.^.^.^.^.^.^.^.^.^.^.^.^.^.^.^.'.'.'.].].].",
"].].].].|.|.].(.^.^.^.^.^.^.^.^.^.^.^.^.^.^.^.^.^.^.^.^.^.^.^.^.^.^.^.^.^.^.^.^.^.^.^.(.'.'.].].].].",
"].].].|.E.D.c.!.{.[.[.[._.^.^.^.^.^.^.^.^.^.^._.^.^.^.^.^.^.^.^.^.^.^.^.^.^.^.^.(.(.}.].L.c.P.].].].",
"].].}.E.R B z W W S.b.J.[._.^.^.^.^.^.^.^.^.^._.^.^.^.^.^.^.^.^.^._.^.^.^.^.^.^.W.I.J.W D b S Q.].].",
"].].|.E z w F n n z 2 0 W v._._.^.^.^.^._.^._.K.S.S.S.S.S.S.S._._._.^.^._._.K.I V M b n A F n `.].].",
"].'.|.R 8 4 z v n A v v w 2 7 k._.^._._.n.C k w k k k k w k k K v.K.W.W.n.j.C k v Z n n b D b ].].].",
"].].|.R 3 2 8 0 0 v v w 0 $ @ * 4 q q k w v Z A F F F F F U F A b v v v * $ 1 w v v w 0 0 Z E ].].].",
"].].].R , . 1 3 8 8 2 2 * * * 2 3 4 4 8 0 0 w v n n n F F U U F U F U F z w 0 2 3 4 8 8 4 7 ].'.].].",
"].].].!.C 5 # 2 2 1 * * 2 3 8 8 8 8 8 8 8 8 0 0 w 0 w v n n Z Z F U U U F F A z 8 * 3 4 8 B.].].].].",
"].].].].b.b + % * * 2 2 8 8 8 8 6 8 8 8 8 8 8 8 8 8 8 0 0 w 0 v n n A F U U U F n w 2 2 3 ].].].].].",
"].].].].S.V .   . * 2 4 4 4 4 4 4 8 8 6 4 4 4 4 4 4 4 4 0 4 0 0 q w z n Z A F U F Z 2 % Q.].'.].].].",
"].].].].`.v.1 . . 2 4 4 4 0 4 8 4 4 4 4 6 8 4 4 8 4 8 4 4 4 4 4 8 8 0 w j v Z A F F 0 M ].].].].].].",
"].].].].].].V * # 2 4 4 4 4 4 4 4 4 4 4 8 8 4 4 8 6 4 4 4 4 4 4 4 8 4 8 7 q w w n A n J ).].].].'.].",
"].].].].].].j.2 # 4 4 4 4 4 4 8 8 4 4 4 4 4 4 4 8 8 4 8 4 8 4 4 4 8 4 6 6 6 8 0 w Z U S W.].].].].].",
"].].].].]./.V 5 2 4 4 4 8 6 4 4 8 8 8 8 6 4 4 4 8 4 8 4 8 4 8 4 4 7 4 9 4 8 4 8 w z A Z G.'.].].].].",
"].].].].].x.7 2 3 6 4 4 8 8 4 8 4 6 8 8 4 4 6 8 4 4 4 4 4 4 8 4 8 4 4 4 4 4 4 4 8 0 Z A N.'.].].].].",
"].].].].'.x.5 2 4 4 4 4 4 4 4 4 4 4 4 4 4 4 4 8 4 4 8 4 8 8 8 8 4 4 4 8 4 8 4 4 8 8 Z A c.'.].].].].",
"].].].].'.m.k 2 3 4 4 4 4 4 4 4 4 4 4 4 4 4 4 8 6 6 4 4 4 8 8 8 8 4 4 4 4 4 8 8 8 8 z n W ].].].].].",
"].].].].].C.H 2 4 4 4 4 6 4 6 4 4 8 4 8 4 8 4 8 9 8 4 4 4 4 4 8 8 4 4 4 4 4 6 9 8 8 0 v l.U.].].].].",
"].].'.].].H.H x 3 4 4 4 4 4 8 8 4 4 4 4 4 4 4 8 4 4 8 4 8 4 4 4 4 4 4 8 8 4 6 6 4 8 9 S z.C.].].].].",
"].].].].'.].j.m.2 4 4 4 4 4 4 8 4 8 4 4 4 8 4 4 4 4 4 4 4 8 4 8 8 4 8 4 4 8 4 6 4 8 4 H M./.].].].].",
"].].].].].'.C.V.* 2 4 6 4 4 4 8 4 4 8 4 4 4 4 4 8 4 8 4 7 4 4 4 4 4 4 4 4 4 4 4 4 4 4 J j.].].].].].",
"].].].].].].'.C.P * 2 3 8 4 8 8 7 4 4 9 7 4 4 4 8 8 4 4 4 4 7 4 4 6 6 4 4 4 8 8 4 4 7 x.M.].].].].].",
"].].].].].].'.Y.Y.% 1 2 4 4 4 8 4 4 4 6 4 4 4 9 8 8 4 4 4 8 4 4 4 4 9 8 8 4 8 8 8 6 N Y.].].].].].].",
"].].].].].].].'.Y.l.% , 3 4 8 8 4 4 4 4 4 8 4 4 8 4 4 4 4 4 9 4 4 8 4 4 4 4 8 8 4 M N ].].].].].].].",
"].].].].'.].].].'.G.l & 1 1 2 2 3 4 8 4 4 4 8 4 8 4 4 4 4 4 4 4 4 4 8 4 8 4 8 4 3 x /.].].].].].].].",
"].].].].].].].].].].Z.q $ $ & & 1 2 2 3 4 8 4 8 4 8 4 4 8 8 8 8 8 8 4 2 2 2 3 & B J.].].].].].].].].",
"].].].].].].].].].].].L.x & . $ % * * 1 2 2 2 3 2 2 3 2 2 2 2 2 2 2 2 * @ O % E E.].].].].].].].].].",
"].].].].].].].].].].].U.q < ; = X . . # $ * * * * * * * * * * % # # X . : = = L T.].].].].].].].].].",
"].].].].].].].].].].).T i u u t e > > ; X . . . . . . . . . . o ; > > e u y r j T L.].].].].].].].].",
"].].].].].).].].].].Z.i p f Q f d s s t e : : : : : : : : : : r p s s d ! Q d y i m {.].].].].].].].",
"].].].].].].].].].Z.P - t d ! ! ! ! ! Q s a a a a a a a a a a d Q ~ ~ ! ~ ! ! e : 3 L.].].].].].].].",
"].].].].].].].].].V.q X - u Q ^ ^ ~ ~ / ^ ( ^ ) ) ( ) ) ( / ~ / ~ ~ ~ ~ ~ ! d : , 0 K Q.].].].].].].",
"].].].].].].].].].m.O .   a ^ _ / / ~ / ( { #.$.$.$.$.#.[ ) / / ^ ~ ~ ! ! s r , 9 n z U.].].].].].].",
"].].].].].].].'.).x % #   f ` ` ( ~ ~ ^ ) $.>.1.<.1.,.$.[ _ { ` ) ~ ~ ! y e o 2 w Z b I.].].].].].].",
"].'.].].].].'.'.(.J 1 O   p ~ ( [ [ ) ( _ %.,.1.1.<.<.;.$.| } ` ( ^ ~ ! > o $ 3 w Z M ^.].].].].].].",
"].].].].].].].^.(.!.Y j p Q / / } %.$.{ _ [ %.,.1.1.1.1.<.,.[ ) ^ ~ ~ Q : o # 3 0 z J '.].].].'.].].",
"].].].].].'.^.^.^.W.a...@.] _ / | ;.<.;.$.#.:.,.1.<.1.1.:.#._ ( ~ ~ ~ ! : o # 3 2 1 G._.'.].].].].].",
"].].].].).(.^.^.!.a.o.*.,.%.| ) #.:.1.<.,.,.<.<.1.<.<.;.} _ ^ / ~ ~ ~ ~ f t ; * O j.^.^.(.'.].].].].",
"].].].).^.^.^.^.D.X.&.2.1.,.:.] $.:.1.5.9.3.1.<.1.>.%.[ ) ^ ~ '  . .` ) } _ Q g E ^.^.^.^.^.].].].].",
"].].].^.^.^.^.^.R...( { :.,.>.[ $.:.1.r.p.i.r.e.e.w.6.+.O.O.O.0.q.4.*.| :.%.%.=.F.(.^.^.(.^.^.'.].].",
"].).^.^.^.^.^.Q.].V.c h } >.,.} %.>.1.r.i.i.i.i.i.u.y.y.q.d.d.f.g.9.2.:.,.,.1.8.~.^.^.^.(.^.^.(.'.'.",
").^.^.^.^.^.^.^.^.^.b.G ' @.@.{ | #.$.*.-.6.6.7.w.e.e.e.i.h.A.h.t.3.>.:.$.$.$.s.Q.^.^.^.^.^.^.^.^.'.",
"^.^.^.^.^.^.^.^.^.^.(.T...h s h s s s s s s s Q #.2.1.1.9.r.t.9.3.1.| ( d s s D.(.(.^.^.^.^.^.^.^.^."
};
