/* XPM */
static char *result[] = {
/* columns rows colors chars-per-pixel */
"50 50 194 2 ",
"   c #0D0C0C",
".  c #1A070D",
"X  c #130A0D",
"o  c #1A0C11",
"O  c #141313",
"+  c #171817",
"@  c #1B1C1C",
"#  c #27030E",
"$  c #290511",
"%  c #270913",
"&  c #370314",
"*  c #3D0316",
"=  c #2D181E",
"-  c #1E201D",
";  c #20221F",
":  c #232423",
">  c #262925",
",  c #2B2A27",
"<  c #262D28",
"1  c #2F2F2F",
"2  c #2D302D",
"3  c #30342F",
"4  c #2F3231",
"5  c #333433",
"6  c #353B34",
"7  c #383F37",
"8  c #3B3C3B",
"9  c #420216",
"0  c #4C0119",
"q  c #55011B",
"w  c #5C011D",
"e  c #60021F",
"r  c #5B0F26",
"t  c #5A1528",
"y  c #630220",
"u  c #6E0123",
"i  c #750125",
"p  c #7B0026",
"a  c #7F0128",
"s  c #731936",
"d  c #562835",
"f  c #4D3B3B",
"g  c #3C423C",
"h  c #3F4A3E",
"j  c #40433F",
"k  c #404B3E",
"l  c #783D4D",
"z  c #434443",
"x  c #434C42",
"c  c #494947",
"v  c #4B4C4B",
"b  c #455344",
"n  c #495246",
"m  c #4B554A",
"M  c #50504F",
"N  c #515E4F",
"B  c #4F5550",
"V  c #525352",
"C  c #585757",
"Z  c #535953",
"A  c #5D5D5D",
"S  c #754852",
"D  c #665052",
"F  c #51654E",
"G  c #546253",
"H  c #596856",
"J  c #5F6C5C",
"K  c #5E725B",
"L  c #63685E",
"P  c #62795E",
"I  c #616161",
"U  c #646D63",
"Y  c #7F6265",
"T  c #657464",
"R  c #677A65",
"E  c #6A7569",
"W  c #6C7A6C",
"Q  c #6F7F70",
"!  c #7F7870",
"~  c #830029",
"^  c #8E002D",
"/  c #93002F",
"(  c #9A002F",
")  c #890831",
"_  c #970031",
"`  c #9B0031",
"'  c #9E0938",
"]  c #A40033",
"[  c #AC0035",
"{  c #A40838",
"}  c #B20037",
"|  c #B40039",
" . c #BA013B",
".. c #C5003E",
"X. c #CA003F",
"o. c #BA0C43",
"O. c #AB1141",
"+. c #B41547",
"@. c #8F3551",
"#. c #BC2A5A",
"$. c #A83559",
"%. c #B53459",
"&. c #CC0242",
"*. c #D30043",
"=. c #DB0045",
"-. c #D50749",
";. c #DC094D",
":. c #D2114F",
">. c #D51653",
",. c #D21B55",
"<. c #E00046",
"1. c #E5024B",
"2. c #EB004B",
"3. c #E80A4F",
"4. c #F3004D",
"5. c #FA004F",
"6. c #E40D51",
"7. c #FD0151",
"8. c #FD0C5A",
"9. c #E71659",
"0. c #C2275A",
"q. c #D2225A",
"w. c #F81C62",
"e. c #DD2963",
"r. c #C43865",
"t. c #D93366",
"y. c #FA2A6C",
"u. c #ED316C",
"i. c #FA3372",
"p. c #964154",
"a. c #954D60",
"s. c #9F5A6D",
"d. c #B6466A",
"f. c #A9576E",
"g. c #86696C",
"h. c #8A7469",
"j. c #937973",
"k. c #D45070",
"l. c #EA477A",
"z. c #F6447C",
"x. c #C46B78",
"c. c #6D806A",
"v. c #71846E",
"b. c #74926F",
"n. c #788877",
"m. c #778978",
"M. c #789174",
"N. c #7D917D",
"B. c #84967B",
"V. c #97957F",
"C. c #83A47D",
"Z. c #E94F80",
"A. c #F74B81",
"S. c #E45281",
"D. c #E85280",
"F. c #7F9380",
"G. c #8F8E83",
"H. c #978B83",
"J. c #839682",
"K. c #869C85",
"L. c #8A9C86",
"P. c #A39986",
"I. c #89A586",
"U. c #8AAC84",
"Y. c #8CA58D",
"T. c #96AB8B",
"R. c #8DB78D",
"E. c #91B48C",
"W. c #94BA8D",
"Q. c #8FA990",
"!. c #95AD91",
"~. c #9CAF97",
"^. c #95B394",
"/. c #9BB293",
"(. c #93BD92",
"). c #9ABB93",
"_. c #9FB39A",
"`. c #9DBC9D",
"'. c #A2B394",
"]. c #95C08F",
"[. c #94C596",
"{. c #9BC295",
"}. c #96C897",
"|. c #9ACA96",
" X c #95C698",
".X c #9CC59C",
"XX c #9DCB9A",
"oX c #A1C59C",
"OX c #A0CC99",
"+X c #9EC6A1",
"@X c #9DC8A0",
"#X c #A3C6A1",
"$X c #A6CAA1",
"%X c #A8CCA3",
/* pixels */
"}.[.[.[.[.[.[.[.[.[.[.[.[.[.[.[.[.[.[.[.[.[.[.[.[.[.[.[.[.[.[.[.[.[.[.[.[.[.[.[.(.[.[.[.[.[.[.[.[.[.",
"XX}.[.[.[.[.[.[.[.[.[.[.[.[.[.[.[.[.[.[.[.(.[.[.[.[.[.[.[.[.[.[.[.[.[.[.[.[.[.[.[.[.[.[.[.[.[.[.}.XX",
"OXXX[.[.[.[.[.[.[.[.[.[.[.[.[.[.[.[.[.[.[.[.[.[.[.[.[.[.[.[.[.[.[.[.[.[.[.[.[.[.[.[.[.[.[.[.}.|.OXOX",
"OXOXOX[.[.[.[.[.[.[.[.[.[.[.[.[.[.[.[.[.[.[.[.[.[.[.[.[.[.[.[.[.[.[.[.[.[.[.[.[.[.[.[.[.[.[.}.XXOXOX",
"OXOXOXOX}.[.[.[.[.[.[.[.[.[.[.[.[.[.[.[.[.[.[.[.[.[.[.[.[.[.[.[.[.[.[.[.[.[.[.[.[.[. X X X XOXOXOXOX",
"OXOXOXOXXX[.[.[. X X[.[.[.[.[.[.[.[.[.[.[.[.[.[.[.[.[.[.[.[.[.[.[.[.[.[.[.[.[.[.[.[. X X X|.OXOXOXOX",
"OXOXOXOX%X%XoX.X X X[. X[.[.[.[.[.[.[.[.[.[.[.[.[.[.[.[.[.[.[.[.[.[.[.[.[.[.[.[.[.[.+X@X$X$X%XOXOXOX",
"OXOXOX#XY.J.K.^.`.+X+X+X X[.[.[.[.[.[.[.[.[.[.[.[.[.[.[.[.[.[.[.[.[.[.[.[.[.[.+X@X+X^.^.J.J.!.#XOXOX",
"OXOXoXI.U Z B U W v.F.Q.+X+X+X@X[. X X@X+X+X+X`. X+X+X+X+X+X+X X X(. X X@X+X+XY.N.n.W U C Z E L.$XOX",
"OXOXoXE v c M v z 5 8 v E K.^.+X@X@X+X^.Y.F.F.F.F.F.F.F.F.F.Q.`.+X+X+X+X^.F.E x 8 8 z v C v C W #XoX",
"OXOXOXU j 5 j c v M z 8 4 8 v W F.F.F.I V z z z 8 8 z 8 8 j B E m.F.F.W x 8 5 g z V v M Z x B E $XOX",
"OXOXOXT 5 , , 5 8 j 8 8 : @ O @ : : 4 5 8 v V C A I I I I I C B c z 5 1 @ @ , 8 8 j 5 8 z m H W oXoX",
"OXOXOXR , @ : , < , : : @ @ : : < < 1 1 5 8 8 z c v V A I I I I I A C V z 8 4 > , 1 1 1 3 x H M.OXOX",
"OXOXOXOXH 6 @ ; : @ @ : : 1 1 1 4 4 1 1 1 1 5 5 5 5 8 z c v M C A I I I A C V 8 4 1 , : h K U.{.OXOX",
"OXOXOXOXI.m + + @ @ : < 1 1 1 1 1 1 1 4 1 5 1 1 1 1 4 5 5 5 8 z v M C A I I I V c g , , G U.{.OXOXOX",
"OXOXOXOXXXN + O O : , 1 1 1 1 1 1 1 1 1 1 1 4 1 1 1 4 4 4 4 4 4 5 8 z c V C A I V z 1 x F E.).OXOXOX",
"OXOXOXOXOXB.6 + @ : 1 1 5 1 1 1 1 1 1 1 1 1 1 1 5 1 1 1 1 1 5 1 1 5 5 5 f c v C V v j b M.W.).OXOXOX",
"OXOXOXOXOXOXG < ; : 1 1 1 1 1 1 1 4 1 1 1 1 1 1 1 1 1 1 1 1 1 1 1 5 1 5 5 5 8 z v V c U U.{.$XOXOXOX",
"OXOXOXOXOXOXR 6 : , 1 1 1 1 1 1 4 1 1 1 1 5 1 1 1 1 1 1 5 1 1 1 1 1 1 1 1 1 5 8 z M m v.E.OXOXOXOXOX",
"OXOXOXOXOXOXK g : 1 1 1 1 1 4 1 4 1 4 1 1 1 1 1 1 1 1 5 1 1 1 1 1 1 1 1 1 1 1 5 8 c B m.W.OXoXOXOXOX",
"OXOXOXOXOXOXF g 1 1 1 1 1 1 1 1 1 4 1 1 1 1 1 1 1 1 1 5 1 1 1 1 1 1 1 1 1 1 1 1 5 j V M.{.XX|.OXOXOX",
"OXOXOXOXOXOXP , , 1 1 1 4 1 1 1 1 1 1 1 5 1 5 1 1 1 1 1 1 1 1 1 1 1 1 5 5 1 1 1 5 8 Z N.OXOXOXOXOXOX",
"OXOXOXOXOXXXn.: 1 1 1 1 1 1 1 4 1 1 1 1 1 1 1 1 1 1 1 1 1 1 5 1 1 1 1 1 1 1 5 1 4 5 c C.OXOXOXOXOXOX",
"OXOXOXOXXXXXU.j 1 1 1 1 1 1 1 4 1 1 1 4 1 1 1 1 1 1 1 1 1 1 1 1 5 1 1 1 1 1 1 1 1 4 8 Y.OXOXOXOXOXOX",
"OXOXOXOXOXOXW.b , 1 1 1 1 1 1 4 5 1 1 1 1 1 5 1 1 1 1 5 1 1 1 1 1 1 1 5 1 1 1 1 2 2 g E.OXOXOXOXOXOX",
"OXOXOXOXOXOX].F > 1 1 1 1 1 1 1 1 1 1 1 1 1 1 1 1 5 1 1 1 1 1 1 1 1 1 1 1 1 1 1 2 2 P ].OXOXOXOXOXOX",
"OXOXOXOXOXOX|.K 4 > , 1 1 1 1 1 1 1 1 1 1 1 1 1 1 1 1 1 1 1 1 1 1 1 1 1 1 1 5 1 1 2 C.].OXOXOX|.OXOX",
"OXOXOXOXOXOXOXb.7 : : > 1 1 4 1 1 1 1 5 1 1 1 1 1 1 1 1 1 1 5 1 5 1 1 1 1 1 1 1 2 M.C.OXOXOXOXOXOXOX",
"OXOXOXOXOXOXOXU.G @ ; : 1 1 1 1 1 1 5 1 1 1 1 1 1 1 1 1 1 1 1 1 1 1 1 1 1 1 1 1 m OXOXOXOXOXOXOXOXOX",
"OXOXOXOXOXOXXXW.R : - : : 1 1 1 1 1 1 1 1 1 5 1 1 1 1 1 1 1 1 1 1 1 1 1 1 1 1 3 OXOXOXOXOXOXOXOXOXOX",
"OXOXOXOXOXOXOXOXQ.x : @ : : : : 1 1 1 1 1 1 1 1 5 1 1 5 1 1 5 1 1 1 1 1 1 1 U.OXOXOXOXOXOXOXOXOXOXOX",
"OXOXOXOXOXOXOXOX#XQ.I 8 @ + @ @ @ : = 1 1 1 1 1 1 1 1 1 1 1 1 1 1 1 , > > n OXOXOXOXOXOXOXOXOXOXOXOX",
"OXOXOXOXOXOXOXOXOXOX`.B.x @ O O + @ @ - : : : : : : : : : : : : : : @ + X W.OXOXOXOXOXOXOXOXOXOXOXOX",
"OXOXOXOXOXOXOXOXOXOX/.n.f = $ . X     O + + @ @ @ @ @ @ @ @ + + X   X o $ OXOXOXOXOXOXOXOXOXOXOXOXOX",
"OXOXOXOXOXOXOXOXOX'.g.S r e w q 0 9 & % . X               X o $ & * 0 q e OXOXOXOXOXOXOXOXOXOXOXOXOX",
"|.OXOXOXOXOXOXOX/.L d t i ~ ~ ~ a p u q 0 9 9 * * * * * * 9 0 w u p ~ ~ ~ OXOXOXOXOXOXOXOXOXOXOXOXOX",
"OXOXOXOXOXOXOX).T , % & q p ~ / / ^ ~ ~ p p i i i i i i i i p ~ ^ ^ / ^ / h.OXOXOXOXOXOXOXOXOXOXOXOX",
"OXOXOXOXOXOXOXM.n @ X . & e a ^ / / / / ( ] ] [ [ [ [ ] ` ` / / / / / / / ~ OX|.OXOXOXOXOXOXOXOXOXOX",
"OXOXOXOXOXOXE.G k > O X # w i ^ / / / ] [ ..*.=.=.=.*...} ] ` ` / / ( ( ( ~ T.OXOXOXOXOXOXOXOXOXOX|.",
"OXOXOXOXOXOXc.k 6 > O o $ w i / ( / / ] | <.4.5.7.4.1.&. .} } [ ` ( ` ] } ( h.}.OXOXOXOXOXOXOXOXOXOX",
"OXOXOXOXOX.XU 4 > < O X $ w i ` [ [ ] [ | <.4.5.7.5.4.=.*.&.o.[ ` / ] } ..[ h.[.}.|.OXOXOXOXOXOXOXOX",
"OXOXOXOXOX`.J 2 + -     # w p ] X.*.X.| | X.<.4.5.7.7.5.2.=.} ] ( / ] [ ..{ j.R.[.}.OXOXOXOXOXOXOXOX",
"OXOXOXOXOX%X!.G 7 = d s ) ) _ [ *.<.2.=.X.<.2.5.7.7.7.4.*...] _ / / ] } *.%.V.R.[.[.[.OXOXOXOXOXOXOX",
"OXOXOXOXOXOX+X~.B.D $.%.>.&... .*.2.5.5.5.5.5.5.5.5.2.*.| ] _ _ / / ] | X.,.~.[.[.[.[.[.OXOXOXOXOXOX",
"OXOXOXXX|. X+X'.H.a.r.t.w.1.*.X.=.2.7.7.7.7.7.7.4.=.X.[ ` ` ' O.+.o.|  .=.6.{.[.[.[.[.[.}.|.OXOXOXOX",
"OXOXOXOX X+X_.j.f.d.l.z.i.9.;.&.=.2.5.7.7.7.7.8.w.e.q.0.#.#.r.t.u.>.6.-.3.k.{. X[.[.[.[.].}.OXOXOXOX",
"OXXXXX}.+X`.! S @.$.k.S.A.u.9.;.2.4.7.7.8.w.y.i.A.l.D.S.S.S.Z.l.i.8.3.x.'.'.).).W.[.[.[.[.[.}.|.OXOX",
"OX|.}.[. X+XL.! Y g.s.f.d.%.#.o.;.2.7.7.8.y.i.i.z.A.A.A.A.A.i.i.w.e.P.P.P.P.T./.E.R.].[.[.[.}.|.OXXX",
"|.}.[.[.[..X+X`.`.~.G.j.Y S l s O.o.&.*.-.>.,.q.q.q.q.q.q.q.,.:.-.| p.j.B.I.E.(.[.[.[.[.[.[.[.[.[.XX",
"[.}.[.[.[.[.[.}. X[.[.[. XK.Q f t y i i i i i i i i i i i i i i i w t j B.{.[.}.[.[.[.[.[.[.[.[.[.[."
};
