/* XPM */
static char *result[] = {
/* columns rows colors chars-per-pixel */
"50 50 195 2 ",
"   c #0D0C0C",
".  c #130C0E",
"X  c #190A0E",
"o  c #1D0A11",
"O  c #161515",
"+  c #1A1917",
"@  c #1C1C1C",
"#  c #22060F",
"$  c #290813",
"%  c #350313",
"&  c #370716",
"*  c #291319",
"=  c #1F201F",
"-  c #391621",
";  c #1F2121",
":  c #142838",
">  c #242424",
",  c #272828",
"<  c #2F2F2F",
"1  c #3B292E",
"2  c #2D302E",
"3  c #293B2D",
"4  c #2D3231",
"5  c #333333",
"6  c #373837",
"7  c #3B3B3B",
"8  c #420316",
"9  c #4D031A",
"0  c #480A1C",
"q  c #53021B",
"w  c #58051F",
"e  c #61001F",
"r  c #580823",
"t  c #441726",
"y  c #5F1228",
"u  c #650726",
"i  c #6D0123",
"p  c #730125",
"a  c #7B0026",
"s  c #760429",
"d  c #7C0128",
"f  c #6B1C33",
"g  c #761230",
"h  c #5C293A",
"j  c #493635",
"k  c #622F3C",
"l  c #3D413D",
"z  c #35493A",
"x  c #3B523D",
"c  c #45453C",
"v  c #40553E",
"b  c #2C3A42",
"n  c #3A3E44",
"m  c #133860",
"M  c #7F2E43",
"N  c #7A3E4D",
"B  c #1E405F",
"V  c #3C4D45",
"C  c #3C5151",
"Z  c #394F68",
"A  c #3F757D",
"S  c #444544",
"D  c #484947",
"F  c #4C4D4C",
"G  c #5B5849",
"H  c #474C59",
"J  c #535353",
"K  c #575957",
"L  c #5D5D5D",
"P  c #664F49",
"I  c #4A664C",
"U  c #4D6956",
"Y  c #596959",
"T  c #59755D",
"R  c #6E625D",
"E  c #607C5F",
"W  c #624F60",
"Q  c #496665",
"!  c #4D6967",
"~  c #516763",
"^  c #536B65",
"/  c #536C69",
"(  c #5A786B",
")  c #427E72",
"_  c #5D7D73",
"`  c #606060",
"'  c #727169",
"]  c #830029",
"[  c #8D002D",
"{  c #93002E",
"}  c #9A002F",
"|  c #9C0031",
" . c #A30033",
".. c #AB0035",
"X. c #B00037",
"o. c #B40039",
"O. c #BC003B",
"+. c #A1133E",
"@. c #C5003E",
"#. c #CA003F",
"$. c #AD0F41",
"%. c #B31344",
"&. c #94324C",
"*. c #BB2454",
"=. c #AE355B",
"-. c #C60542",
";. c #CE0042",
":. c #C20C45",
">. c #D20042",
",. c #DB0045",
"<. c #D41955",
"1. c #D51B57",
"2. c #E10047",
"3. c #E40049",
"4. c #EB004B",
"5. c #F4004D",
"6. c #FA004F",
"7. c #FD0151",
"8. c #FD0B59",
"9. c #E41759",
"0. c #F5125B",
"q. c #C8265A",
"w. c #D32059",
"e. c #FC1A63",
"r. c #C82E60",
"t. c #D22E62",
"y. c #DA376B",
"u. c #E82865",
"i. c #F32264",
"p. c #FB2B6C",
"a. c #E6366D",
"s. c #FC2D71",
"d. c #E83D74",
"f. c #F63674",
"g. c #8D4358",
"h. c #8E6E6D",
"j. c #F8457D",
"k. c #5F8168",
"l. c #5B9179",
"z. c #638164",
"x. c #688768",
"c. c #6C916F",
"v. c #71926E",
"b. c #6C8773",
"n. c #7A8E77",
"m. c #6E9476",
"M. c #779674",
"N. c #7CA67F",
"B. c #868A78",
"V. c #92907D",
"C. c #83A77F",
"Z. c #557A88",
"A. c #6D7486",
"S. c #BD7990",
"D. c #CA6C86",
"F. c #5A888B",
"G. c #798687",
"H. c #738D8B",
"J. c #649B88",
"K. c #779786",
"L. c #718492",
"P. c #6AA189",
"I. c #7FAA86",
"U. c #68A398",
"Y. c #75AD98",
"T. c #7DB5A3",
"R. c #849E81",
"E. c #8D9991",
"W. c #AE868F",
"Q. c #A6969A",
"!. c #89AC84",
"~. c #93A98A",
"^. c #8BB488",
"/. c #93B68C",
"(. c #91B88B",
"). c #8AAA97",
"_. c #99A998",
"`. c #8AB592",
"'. c #89BC98",
"]. c #99B89B",
"[. c #B19BA5",
"{. c #8FAEA4",
"}. c #ABA9A9",
"|. c #B0ACA8",
" X c #C29BA8",
".X c #8EC29A",
"XX c #94C596",
"oX c #9BC594",
"OX c #96C897",
"+X c #9BCA97",
"@X c #94C599",
"#X c #9BC09C",
"$X c #9ECB99",
"%X c #A0CC99",
"&X c #8BC1A6",
/* pixels */
"OXXXXXXXXXXXXXXXXXXXXXXXXXXXXXXXXXXXXXXXXXXXXXXXXXXXXXXXXXXXXXXXXXXXXXXXXXXXXXXXXXXXXXXXXXXXXXXXXXXX",
"$XOXXXXXXXXXXXXXXXXXXXXXXXXXXXXXXXXXXXXXXXXXXXXXXXXXXXXXXXXXXXXXXXXXXXXXXXXXXXXXXXXXXXXXXXXXXXXX+X$X",
"$X$XOXXXXXXXXXXXXXXXXXXXXXXXXXXXXXXXXXXXXXXXXXXXXXXXXXXXXXXXXXXXXXXXXXXXXXXXXXXXXXXXXXXXXXXXXX+X$X%X",
"%X%X$XOXXXXXXXXXXXXXXXXXXXXXXXXXXXXXXXXXXXXXXXXXXXXXXXXXXXXXXXXXXXXXXXXXXXXXXXXXXXXXXXXXXXXXXX%X$X%X",
"%X%X$X$XOXXXXXXXXXXXXXXXXXXXXXXXXXXXXXXXXXXXXXXXXXXXXXXXXXXXXXXXXXXXXXXXXXXXXXXXXXXXXXXXXXXX$X$X%X%X",
"%X%X%X%XoXOXXXXXXXXXXXXXXXXXXXXXXXXXXXXXXXXXXXXXXXXXXXXXXXXXXXXXXXXXXXXXXXXXXXXXXXXXXXXX+X$X%X%X%X%X",
"%X%X%X%X%X$XOXXXXXXXXXXXXXXXXXXXXXXXXXXXXXXXXXXXXXXXXXXXXXXXXXXXXXXXXXXXXXXXXXXXXXXXXXXX$X%X%X%X%X%X",
"%X%X%X%X%X%X%XXXXXXXXXXXXXXXXXXXXXXXXXXXXXXXXXXXXXXXXXXXXXXXXX(.XXXXXXXXXXXXXXXXXXXXXX$X$X%X%X%X%X%X",
"%X%X%X%X%X%X%X$XOXXXXXXXXXXXXXXXXXXX@X@XXXXXXXXXXXXXXXXXXXXXXXXXXXXXXXXXXXXXXXXXXXOX%X%X%X%X%X%X%X%X",
"%X%X%X%X%XoXM.v.x.z.v.N.XXXXXXXXXXXXXX@X@XXX@X@XXXXXXXXXXX@XXXXX@X@XXXXXXXXXXXXXOX%X%X%X%X+XoX%X%X%X",
"%X%X%X%X%X!.v.E U v x x I z.c.I.(.XX`.m._ ! ! ! ! / / / ^ U ( K.@X@X@X@X@XXXXXXX%X%X%X%X%X^.(.%X%X%X",
"%X%X%X%X%X^.v.z.T T U x z 3 3 z C Q ! ~ Y F D n l l l l S c F ( ( ( k.x.T ( N.$X%X%X%X%X%X%X%X%X%X%X",
"%X%X%X%X%X%XE 2 z ^ U C < = + > > , 4 6 7 S J J L L ` L L L K J F D 7 5 > , G M.%X%X%X$Xl oX$X%X%X%X",
"%X%X%X%X%X%XC., , V < > = + ; > , , < < 5 5 j V S D J J L ` ` ` ` L K J S 7 4 T (.%X< 3 5 %X%X%X%X%X",
"%X%X%X%X%X%X%X; > ; ; ; > , , , < < 5 < < 5 5 5 5 7 7 S S F J J L ` ` ` Y K J K M.%X, , P %X%X%X%X%X",
"%X%X%X%X%X%X%X%X+ @ > > , 2 4 5 < < < < < < < < < 5 5 5 6 6 6 S S J J L ` ` Y K ' B., > %X%X%X%X%X%X",
"%X%X%X%X%X%X%X%XM.* > , < < < < < 5 < < < 5 < < < < < < 5 < 5 5 6 7 S F J J L L J D j %X%X%X%X%X%X%X",
"%X%X%X%X%X%X%X%X!.j , < < < < < < < < < < < < < < < < < < < < < < 5 5 7 S S F J J F %X%X%X%X%X%X%X%X",
"%X%X%X%X%X%X%X%X/.G , < 5 < < < 5 < < < < < < < < < < < < < < < < < < 5 5 6 7 S D J %X%X%X%X%X%X%X%X",
"+X%X%X%X%X%X%X%X~.G , < < < < < < < < < < < < < < 5 < < < < < < < < < < < < 5 6 S J #X%X%X%X%X%X+X%X",
"%X%X%X%X%X%X%X%XV.G 3 2 < < < < < < < < < < < 5 < < < < 5 < < < < < < < < < < 5 6 n./.%X%X%X%X%X%X%X",
"%X%X%X%X%X%X%X%XB.c < 2 < < < 5 < < < < < < < < < < < < < < < < < 5 < < 5 < < < 6 ' `.%X%X%X%X%X%X%X",
"%X%X%X%X%X%X%X%XB.< < < < < < 5 < < < < 5 < < < 5 < < < 5 < < < < < < < < < < 5 5 6 `.$X%X%X%X%X%X%X",
"%X%X%X%X%X%X%X%XR < < 2 < < < < < < 5 < < < < < < < < < < < < < < < < < < < < < 4 6 I.@X%X%X%X%X%X%X",
"%X%X%X%X%X%X%X%XR < < < < < < < < < < < < < < < < < < < < < < < < < < < < < < < < 2 l.XX%X%X%X%X%X%X",
"%X%X%X%X%X%X%X%Xn.< < < < < < < < < 5 < < < < < < < < < < < 5 < < < 5 < < < < < < 3 A XX$X%X%X%X%X%X",
"%X%X%X%X%X%X%X%XR.< 2 5 < < < < < < < < 5 < < < < < < < < < < < < < 5 < < < 5 < < 2 J.XX%X%X%X%X%X%X",
"%X%X%X%X%X%X%X%X^., , , < 5 < < < < < < < < 5 < < < 5 < < < < < < < < < < < < < < 2 P..X%X%X%X%X%X%X",
"%X%X%X%X%X%X%X%X(.l > > , < < < < < < < < < < < < < < < < < 5 < < < < < < < < < < Q Y.@X%X%X%X%X%X%X",
"%X%X%X%X%X%X%X%X^.V > > , < < < < 5 < < < < < < 5 < < < < < < < < 5 < < < < 2 4 4 J.T.$X%X%X%X%X%X%X",
"%X%X%X%X%X%X%X%X!.V 4 ; , < < < < < < < 5 < < < < < < < < < < < < 4 < < 4 < 4 4 U.Y.&X$X%X%X%X%X%X%X",
"%X%X%X%X%X%X%X%X$Xz.V , = = > , , < < < < < < < < < < 5 < < < < < < < < < < 4 U.T..X$X$X%X%X%X%X%X%X",
"%X%X%X%X%X%X%X%X%X%Xb.! , @ @ + @ > > , 2 5 2 < < 5 < < 2 5 2 2 < < , , , > > T.%X%X%X%X%X%X%X%X%X%X",
"%X%X%X%X%X%X+X%X%X%X%X'.F.5 = + + + @ @ > > > > > > > > > > > > > > * @ O ; ) #X%X%X%X%X%X%X%X%X%X%X",
"%X%X%X%X%X%X%X%X%X%X%X).Z.1 * # X . . O O + @ @ @ @ @ @ + + + O O . O . # * Z.%X%X%X%X%X%X%X%X%X%X%X",
"%X%X%X%X%X%X%X%X+X%XH.G.M y r q 8 8 % $ o . .             . X # % % & 9 q r A.%X%X%X%X%X%X%X%X%X%X%X",
"%X%X%X%X%X%X%X%X#XA.W k y p d d a p i q 9 % % % % % % % % % 8 9 w i p a d a i ].{.{.%X%X%X%X%X$X%X%X",
"%X%X%X%X%X%X%X%X~.Z 1 t r i ] [ [ [ [ d a p p i i i p e e p p a ] [ { [ [ d p 0 G.E.{.%X%X%X%X%X%X%X",
"%X%X%X%X%X%X%X%XH.b > * - r i ] [ { { { { } | | |  . . . .} { { { { { { ] e q $ F K.{.%X%X%X%X%X%X%X",
"%X%X%X%X%X%X%X%X].b < , 5 t r s ] [ { }  .O.#.-.>.#.#.#.o...} } { { { { ] e 8 * n G.).%X%X%X%X%X%X%X",
"%X%X%X%X%X%X%X%XOXB 4 < 7 1 t u d [ { | X.;.3.6.7.5.4.>.%.o.X... .| { | { p 9 * n A.).%X%X%X%X%X%X%X",
"%X%X%X%X%X%X$X$X@Xm , , , - - u { |  ...X.;.4.5.7.6.6.2.,.;.O.X. .| | ....d w * H H.].%X%X%X%X%X%X%X",
"%X%X%X%X%X%X$XXX'.: ; O @ o & p ..O.#.O.O.@.,.4.6.6.7.6.5.2.O.X.| { | ..X.{ d h G.'.XX%X%X%X%X%X%X%X",
"%X%X%X%X$X$XOXXX@XZ 3 + o % r ] o.>.3.,.,.,.2.4.6.7.7.6.2.>.X. .| { | ..-.O...Q.}.@XXXXX%X%X%X%X%X%X",
"%X%X%X%XOXOXXXXX.XL.N k s [ | ..-.,.5.5.6.6.7.7.7.6.5.,.O.X.| { { {  ...>.>.S.[.}.].XXXXOX$X%X%X%X%X",
"%X%X%X+XOXXXXXXX&XR M +.-.;.>.-.,.2.6.6.7.7.7.7.6.4.>.o...| | $.$.$.O.%.<.y. X[.}.XXXXXXXXOX%X%X%X%X",
"%X%X$XXXXXXXXXOXB.P $.:.4.3.2.>.,.3.5.7.7.6.7.7.0.9.1.q.*.*.*.r.t.1.1.<.q.|.}.}.}.OXXXXXXXXXOX$X%X%X",
"%X+XXXXXXXXXXXQ.h.&.:.,.5.5.4.,.2.4.7.7.7.8.e.p.f.d.d.d.a.y.d.a.a.i.e.u.D.W._.}.@XOXXXXXXXXXXXOX%X%X",
"+XXXXXXXXXXXXXoXV.=.%.@.;.;.;.;.,.4.6.7.8.e.s.f.D.f.j.f.u.t.w.1.1.<.1.q.=.g._.].XXXXXXXXXXXXXXXXXX$X",
"XXXXXXXXXXXXXXXX~.h.&.g p p a [ o.>.4.5.8.e.p.p.p.p.e.0.-. .] d p p g f h Q.].XXXXXXXXXXXXXXXXXXXXXX"
};
