/* XPM */
static char *result[] = {
/* columns rows colors chars-per-pixel */
"50 50 229 2 ",
"   c #050204",
".  c #070D01",
"X  c #0B030B",
"o  c #0D0A08",
"O  c #180306",
"+  c #13040A",
"@  c #1D020D",
"#  c #130B0D",
"$  c #0F1508",
"%  c #12110E",
"&  c #1A160C",
"*  c #141B0E",
"=  c #0D0113",
"-  c #160517",
";  c #141313",
":  c #1C1317",
">  c #151913",
",  c #1A1C15",
"<  c #1A1A1A",
"1  c #25020B",
"2  c #2F1108",
"3  c #260312",
"4  c #340215",
"5  c #3A0615",
"6  c #241719",
"7  c #1E221A",
"8  c #27271A",
"9  c #23251F",
"0  c #2F3012",
"q  c #160022",
"w  c #1B0324",
"e  c #1E002D",
"r  c #1F0030",
"t  c #260327",
"y  c #261E29",
"u  c #31142E",
"i  c #250137",
"p  c #38073C",
"a  c #242424",
"s  c #292925",
"d  c #2E2F2E",
"f  c #35282B",
"g  c #2C3229",
"h  c #32322E",
"j  c #343929",
"k  c #2F2F30",
"l  c #333332",
"z  c #3C3D35",
"x  c #3A3538",
"c  c #3C3C3B",
"v  c #450216",
"b  c #490318",
"n  c #5B021A",
"m  c #5C121C",
"M  c #64011E",
"N  c #5F2E14",
"B  c #6C201F",
"V  c #6B321A",
"C  c #590221",
"Z  c #561221",
"A  c #4A0C35",
"S  c #460938",
"D  c #660326",
"F  c #760225",
"G  c #671F37",
"H  c #4F2A2C",
"J  c #713321",
"K  c #6F3531",
"L  c #3A5A04",
"P  c #3D5710",
"I  c #3B4538",
"U  c #744A19",
"Y  c #617A15",
"T  c #444737",
"R  c #51553A",
"E  c #2C0146",
"W  c #360448",
"Q  c #390256",
"!  c #390357",
"~  c #3F0762",
"^  c #490B48",
"/  c #4A1845",
"(  c #56184D",
")  c #43075E",
"_  c #54155A",
"`  c #610B42",
"'  c #562549",
"]  c #463F44",
"[  c #6A3C43",
"{  c #430465",
"}  c #460A66",
"|  c #4A0B69",
" . c #500C6F",
".. c #571462",
"X. c #5A1664",
"o. c #5A1A67",
"O. c #4C0A72",
"+. c #510B76",
"@. c #520B79",
"#. c #591279",
"$. c #651B74",
"%. c #672A6C",
"&. c #682374",
"*. c #782B79",
"=. c #444443",
"-. c #4A4945",
";. c #4C4B4B",
":. c #504A4F",
">. c #585A47",
",. c #51514F",
"<. c #524C51",
"1. c #545454",
"2. c #535D51",
"3. c #595955",
"4. c #5B5459",
"5. c #5D5D5D",
"6. c #6E5A4F",
"7. c #5C654B",
"8. c #586753",
"9. c #5F715D",
"0. c #636958",
"q. c #6D7051",
"w. c #65755A",
"e. c #655A63",
"r. c #626162",
"t. c #6D676C",
"y. c #766A69",
"u. c #6C7A66",
"i. c #737868",
"p. c #726C72",
"a. c #797678",
"s. c #8A022B",
"d. c #92022F",
"f. c #9E0233",
"g. c #950B3A",
"h. c #A70235",
"j. c #B80139",
"k. c #804E38",
"l. c #906929",
"z. c #BC1A4D",
"x. c #AC395C",
"c. c #83307E",
"v. c #C60443",
"b. c #D90447",
"n. c #E3044D",
"m. c #F3014D",
"M. c #F4155D",
"N. c #C5285A",
"B. c #DB3A6C",
"V. c #F22E6B",
"C. c #8D4959",
"Z. c #95755E",
"A. c #B14863",
"S. c #947768",
"D. c #81747F",
"F. c #708713",
"G. c #72862C",
"H. c #7A8D4E",
"J. c #76914A",
"K. c #7A8559",
"L. c #6B8663",
"P. c #7C8C64",
"I. c #7E926A",
"U. c #7F9672",
"Y. c #80931D",
"T. c #9C8D26",
"R. c #AB8B37",
"E. c #CCA827",
"W. c #87894F",
"Q. c #97B347",
"!. c #AABD5A",
"~. c #868C6A",
"^. c #988768",
"/. c #88976B",
"(. c #8D8E70",
"). c #899871",
"_. c #A99163",
"`. c #89A577",
"'. c #98A87A",
"]. c #95B27B",
"[. c #A0AB65",
"{. c #AAB578",
"}. c #C58869",
"|. c #CCB76D",
" X c #B6C96D",
".X c #E5D854",
"XX c #C4D669",
"oX c #C8D975",
"OX c #641980",
"+X c #853081",
"@X c #8A7988",
"#X c #917C8D",
"$X c #FB5387",
"%X c #888783",
"&X c #988695",
"*X c #8EAD83",
"=X c #8FB588",
"-X c #95BB8B",
";X c #93BB91",
":X c #A5BA85",
">X c #B5BC94",
",X c #A78DA2",
"<X c #AD97A9",
"1X c #B39AAF",
"2X c #BF9EBA",
"3X c #B4B4B1",
"4X c #C1A3BD",
"5X c #9DC58B",
"6X c #94C596",
"7X c #95C797",
"8X c #9BC592",
"9X c #9CCA97",
"0X c #9ECB99",
"qX c #A7C88B",
"wX c #A3CA8C",
"eX c #B9D080",
"rX c #A5C793",
"tX c #A3CB94",
"yX c #A0CC99",
"uX c #BCC1A7",
"iX c #C3D393",
"pX c #D6E29C",
"aX c #D6DFA4",
"sX c #C9A6C5",
"dX c #CBAFC6",
"fX c #D0B0CA",
"gX c #D1B3CD",
"hX c #DBB6D6",
"jX c #CED0C2",
/* pixels */
"7X7X6X6X6X6X6X6X6X6X6X6X6X6X6X6X6X6X6X6X6X6X6X6X6X6X6X6X6X6X6X6X6X6X6X6X6X6X6X6X6X6X6X6X6X6X6X6X6X7X",
"9X7X6X6X6X6X6X6X6X6X6X6X6X6X6X6X6X6X6X6X6X6X6X6X6X6X6X6X6X6X6X6X6X6X6X6X6X6X6X6X6X6X6X6X6X6X6X6X7X0X",
"yX0X7X7X6X6X6X6X6X6X7X7X6X6X6X6X6X6X6X6X6X6X6X6X6X6X6X6X6X6X6X6X6X6X6X6X6X6X6X6X6X6X6X6X6X6X7X7X0XyX",
"yXyXyX6X6X-X=X6X6X6X6X7X6X6X6X6X6X6X6X6X6X6X6X6X6X6X6X6X6X6X6X6X6X6X6X;X6X6X6X6X6X6X6X6X7X7X7XyXyXyX",
"0X0XwX`.u.8.I I 2.;X6X7X6X6X6X6X6X6X7X7X6X7X7X7X7X7X6X6X6X6X6X6X;X*Xg I 2.0.*X6X6X6X6X6X6X6XyXyXyXyX",
"yX8Xw.c 1.p.r.;.l ; I U.6X6X6X6X;X* > > > > > < g 9.6X6X6X6X6XI % < c r.p.p.5.u.6X6X6X6X7X0XyXyXyXyX",
"yX9Xu.] #XgX1X&Xt.4.k < . a g I 2.2.5.5.5.5.5.5.2.u.2.g 7 > > a ] r.D.,X2XsX&X0.6X6X6X6X0XyXyXyXyXyX",
"yX8X8.] @XhXhXsX,X4.a ; > s s g g c ;.1.5.5.r.r.r.r.5.1.;.;.k a ] a.sXhXgXsX#X0.6X6X6X7X0XyXyXyXyXyX",
"yXyX0.l <.<XgX4X#Xc y a a k k k d k c c =.=.;.5.5.r.r.r.r.5.,.=.:.e.,XfXsX,X4.`.6X9X0XyXyXyXyXyXyXyX",
"yXyXU.T a D.1X&X4.y s d k d d d d k k k k l =.;.1.1.5.r.r.r.r.5.1.,.t.<X<X@X8.8X6XyXyXyXyXyXyXyXyXyX",
"0X0XyX).a e.t.:.< d k k d k k k k d k k k k d k k l =.1.5.5.r.r.5.5.;.e.a.@X`.8X0XyXyXyXyXyXyXyXyXyX",
"yX0X0XI.  # ; a k k k k k k k k d k k k k k g k k k k l c ;.5.r.r.r.3.c k d =XtXyXyXyXyXyXyXyXyXyXyX",
"yXyXyX=X*   ; a k k k k k k k k d k d k k k k k d k k k k l c ;.1.5.5.c a > rXyXyXyXyXyXyXyXyXyXyXyX",
"yXyXyXyXq.$ < a k k k k d k k k k d d d k d k k k k k k k k k l c =.,.;.c T 0XyXyXyXyXyXyXyXyXyXyXyX",
"yXyXyXyX`.> 6 a k k k k k k k k k d k d d k d d d d k k k k k k k x ;.1.3.0.yXyXyXyXyXyXyXyXyXyXyXyX",
"0XyXyXyX(., 9 s k s s s a s s s d k h k k d k k d k g d a a a g s l -.1.1.7.yXyXyXyXyXyXyXyXyXyXyXyX",
"yXyXtX].7 9 s d g 8 * $ . . * a a d k k k k k k s s s 7 $ . . * 7 s l =.1.1.8XyXyXyXyXyXyXyXyXyXyXyX",
"yXyXtX`.> 9 k l c u./.G.L P J.~.u.s k k k k k k l c u.).J.L P J.~.a.l =.,.3.=X0XyXyXyXyXyXyXyX0XyXyX",
"yXyX9XI., 9 l ;.i.uXiXQ.F.Y XXiX3X5.l k k k k l =.t.uXeX!.F.Y  XeX3Xr.;.;.3.U.0XyXyXyXyXyXyXyXyXyXyX",
"yXyX9X`.7 9 x 3.%XjXpX XF.F.oXaX3Xa.x k l l l c ;.%XjXaX XY.F. XaXjXa.:.;.2.u.0XyXyXyXyXyXyXyXyXyXyX",
"yXyXyX5X7 9 g x ;.%XuX{.W.F. X'.a.d l x =.=.c l l ] %X>XqXW.G.!.{.U.k x x -.0.yXyXyXyXyXyXyXyXyXyXyX",
"yXyXtX9Xj g s d l l T 7.i.K.T j k k c t.&XdX@X;.k k k T R q.W.R l l k k x -.>.yXyXyXyXyXyXyXyXyXyXyX",
"yXyXyXyXH.T s k d d k x I z l d k k k c =.;.=.l k k d h l z I l d d d l z T 0.yXyXyXyXyXyXyXyXyXyXyX",
"yXyXyXtXwXT a s d h d d d d d k k d k d g k k k k k d h h d d h k d d d l -.).yXyXyXyXyXyXyXyXyXyXyX",
"yXyXyXyXyXR 8 s s k k k k k k d d d h d k d d k k k d k d d k d d d k g l >.:XyXyXyXyXyXyXyXyXyXyXyX",
"yXyXyXyXyXwXj 7 a k k k k d d d k k k k d d k d k d d k k d d k d d d g H 7.yXyXyXyXyXyXyX0XyXyXyXyX",
"yXyXyXyX0X0X7.$ < a d d d d d k d k d d k d k d d d k d k d l d d d d x L.yXyXyXyXyXyXyXyXyXyXyXyXyX",
"yXyXyXyX0X7X X7 ; a s d d d d d l d d d d l d k k d d k d d d d d d s T ~.yXyXyXyXyXyXyXyXyXyXyXyXyX",
"yXyXyXyX0XyXyX7.9 , 6 a a a d k d k k k k k k d d d k k d l d d d d T P.yXyXyXyXyXyXyXyXyXyXyXyXyXyX",
"yXyXyXyX0XyX0XrXT , > < < < a d s k d k k k d k k k d k d s a a s z q.wXyXyXyXyXyXyXyXyXyXyXyXyXyXyX",
"yXyXyXyXyXyXyXyX'.g > ; ; < < < a d d s d s d d d s d s a 9 > < d >.rXyXyXyXyXyXyXyXyXyXyXyXyXyXyXyX",
"yXyXyXyXyXyXyXyXrX(.s X # ; ; ; > < < < < < ; < < < > : ; : # s >.:XyXyXyXyXyXyXyXyXyXyXyXyXyXyXyXyX",
"yXyXyXyXyXyXyXyXqXH v v v O O O # > ; % ; ; > > % ; + @ 1 4 G [ [ 6.:X0XyXyXyXyXyXyXyXyXyXyXyXyXyXyX",
"yXyXyXyXyXyXyXyX^.F f.f.d.M n b 4 O o o $ & % # + @ v F s.z.z.N.x.C.S.rXyXyXyXyXyXyXyXyXyXyXyXyXyX0X",
"yXyXyXyXyXyX9XqXv f.b.b.v.j.h.s.M 1 O * 0 N 8 1 @ 5 F j.n.M.V.V.B.A.6.*XyXyXyXyXyXyXyXyXyXyXyXyXyXyX",
"yXyXyXyX0X0XrX8 1 n h.b.m.m.n.v.h.F m U T..XW.H n d.j.b.M.V.$XB.z.F 6 T K.yXyXyXyXyXyXyXyXyXyXyXyXyX",
"yXyX0XyXyXyXyX> 3 b s.h.j.j.s.F D b 4 U l.E.l.H 4 v F d.g.N.V.n.h.D , qX8X0X0XyXyXyXyXyXyXyXyXyXyXyX",
"yXyXyXyXyXyXyXh a 2 v D s.n 1 O @ - w W / H p i w = 3 4 C g.v.d.C 3 g 5X6X7X0XyXyXyXyXyXyXyXyXyXyXyX",
"yXyXyXyXyXyXyXI s < 1 3 4 t t t r i W ! { { ) Q E e i p ^ ` C b 3 $ 9 wX6X6X7X9XyXyXyXyXyXyXyXyXyXyX",
"yXyXyXyXyXyX8.d k a ; X X i E W ! ! { O.#.#.@.| ) Q ) X.o._ u - - # < j 8X6X6X6XyXyXyXyXyXyXyXyXyXyX",
"yXyXyXyXyXyX8.s l c x y e p ^ _ _ ....o.%.%.$.o...X.&.c.+X+X*.( u O ; j P.6X6X6X9X0XyXyXyXyXyXyXyXyX",
"yXyXyXyXyXyXL.< a l c l f 2 N N V V U l.R.|._.k.B J J J J J J B m v f ).wX6X6X6X7X7XyX0X0XyXyXyXyXyX",
"yXyXyXyXyXyX0Xj ; < < : - w p p p S W / / ' o._ ....X...X.o.o.` Z Z H ^.8X7X6X6X6X6X7X0XyXyXyXyXyXyX",
"yXyXyXyXyX0X6X6Xo X X = q i Q ~ { { { ~ { }  .+.@.@.@.@.#.#.$...A [ Z R 8X7X6X6X6X6X6X6X0XyX0XyXyXyX",
"yXyXyXyX9X6X6X6XP.+ = - r E ! ~ +.@.@.+.@.@.@.+.@.@.@.#.OXOXOX_ A m K b H 9X6X6X6X6X6X6X7X9XyXyXyXyX",
"yXyXyX0X6X6X6X6X6X`.- w i E E Q ~ O.@.+.+.+.+.+.@.#.OXOX&.*.$.( A n |.}.A.S.6X6X6X6X6X6X7X7XyXyXyXyX",
"yXyX0X7X6X6X6X6X6X6X8X&     = r E E ! { } } | |  .o.&.y./. X XH.4 [.8X_.Z.:X6X6X6X6X6X6X6X6X7X9X0XyX",
"yX7X7X7X6X6X6X6X6X6X6X8X Xq.  X = w u f x >.7.W.[.iX X8X7X7X7X6X X6X7X7X8X6X6X6X6X6X6X6X6X6X7X9X0X0X",
"9X7X6X6X6X6X6X6X6X6X6X6X6X6X9XwXwXwXwXwX X8X7X6X6X6X6X6X6X6X6X6X6X6X6X6X6X6X6X6X6X6X6X6X6X6X6X6X6X9X",
"7X7X6X6X6X6X6X6X6X6X6X6X6X6X6X6X6X6X6X6X7X7X6X6X6X6X6X6X6X6X6X6X6X6X6X6X6X6X6X6X6X6X6X6X6X6X6X6X6X6X"
};
