/* XPM */
static char *result[] = {
/* columns rows colors chars-per-pixel */
"50 50 247 2 ",
"   c #030101",
".  c #080206",
"X  c #0B0B03",
"o  c #160709",
"O  c #0A1407",
"+  c #181809",
"@  c #0C0415",
"#  c #180616",
"$  c #071C12",
"%  c #171516",
"&  c #1B1314",
"*  c #1B1B14",
"=  c #1B1B1C",
"-  c #280207",
";  c #21030B",
":  c #37030A",
">  c #230213",
",  c #280518",
"<  c #370419",
"1  c #251617",
"2  c #2F1911",
"3  c #221B1C",
"4  c #092E03",
"5  c #1B2A08",
"6  c #1C2318",
"7  c #23290A",
"8  c #32310D",
"9  c #24231D",
"0  c #272A19",
"q  c #32291A",
"w  c #2B341A",
"e  c #1C0026",
"r  c #1C1429",
"t  c #26022A",
"y  c #390427",
"u  c #261B24",
"i  c #37192C",
"p  c #280436",
"a  c #370637",
"s  c #1C2423",
"d  c #242424",
"f  c #2A2425",
"g  c #262A25",
"h  c #2A2C24",
"j  c #242529",
"k  c #2A262B",
"l  c #262B2B",
"z  c #2D2E2C",
"x  c #332929",
"c  c #2B3225",
"v  c #283527",
"b  c #2D312B",
"n  c #31322D",
"m  c #363928",
"M  c #282B32",
"N  c #2E2D32",
"B  c #312D33",
"V  c #362F3B",
"C  c #2D3233",
"Z  c #2F3634",
"A  c #333333",
"S  c #363A35",
"D  c #34333A",
"F  c #39343C",
"G  c #393A38",
"H  c #3C3C3B",
"J  c #45020D",
"K  c #4E0D17",
"L  c #540218",
"P  c #6C021B",
"I  c #502B17",
"U  c #603415",
"Y  c #480828",
"T  c #570326",
"R  c #430737",
"E  c #471438",
"W  c #591432",
"Q  c #6A0829",
"!  c #70142E",
"~  c #620834",
"^  c #790535",
"/  c #4E302E",
"(  c #433B39",
")  c #7C2825",
"_  c #394611",
"`  c #384629",
"'  c #3A4235",
"]  c #385036",
"[  c #495B06",
"{  c #526611",
"}  c #69791F",
"|  c #434729",
" . c #4F562D",
".. c #444439",
"X. c #495939",
"o. c #545937",
"O. c #6D5034",
"+. c #546C36",
"@. c #657232",
"#. c #350447",
"$. c #33054C",
"%. c #371B56",
"&. c #3C3B42",
"*. c #3D0E6D",
"=. c #430947",
"-. c #4A1546",
";. c #52174B",
":. c #480956",
">. c #491257",
",. c #571A5A",
"<. c #6E1750",
"1. c #592B4A",
"2. c #433A44",
"3. c #5B2A56",
"4. c #72314F",
"5. c #662757",
"6. c #4D0567",
"7. c #520668",
"8. c #5A1868",
"9. c #4E0F75",
"0. c #580976",
"q. c #67166F",
"w. c #582567",
"e. c #6A2B67",
"r. c #733066",
"t. c #3E4241",
"y. c #474647",
"u. c #4A4B4A",
"i. c #544B4A",
"p. c #4C5A48",
"a. c #575748",
"s. c #4C4952",
"d. c #514D57",
"f. c #4C5051",
"g. c #545353",
"h. c #575857",
"j. c #5B5B5C",
"k. c #75514C",
"l. c #645A5D",
"z. c #4F6445",
"x. c #5A664A",
"c. c #5C764F",
"v. c #5C6459",
"b. c #5D7855",
"n. c #676648",
"m. c #70744F",
"M. c #62645C",
"N. c #656959",
"B. c #657B58",
"V. c #5E5D61",
"C. c #6F4E68",
"Z. c #5E6262",
"A. c #636362",
"S. c #686864",
"D. c #757369",
"F. c #736573",
"G. c #88062A",
"H. c #940934",
"J. c #861639",
"K. c #AA0839",
"L. c #B2083E",
"P. c #933527",
"I. c #C6063D",
"U. c #81642A",
"Y. c #9F0B43",
"T. c #B21147",
"R. c #8D3457",
"E. c #B1314E",
"W. c #842E68",
"Q. c #C90B47",
"!. c #D0124E",
"~. c #C6285D",
"^. c #D73A6E",
"/. c #F33171",
"(. c #874752",
"). c #A95A53",
"_. c #8F7357",
"`. c #864875",
"'. c #BB5B75",
"]. c #897174",
"[. c #A46870",
"{. c #C54D56",
"}. c #CC4671",
"|. c #798E33",
" X c #788647",
".X c #6A845A",
"XX c #778A56",
"oX c #6C8566",
"OX c #79886B",
"+X c #78966A",
"@X c #7D9B73",
"#X c #7CA277",
"$X c #889A4A",
"%X c #868D59",
"&X c #A0935F",
"*X c #90926D",
"=X c #838974",
"-X c #889776",
";X c #87A77B",
":X c #92AC72",
">X c #93A77A",
",X c #A8B378",
"<X c #C39C6C",
"1X c #B1C474",
"2X c #DDC77C",
"3X c #610B83",
"4X c #847885",
"5X c #FE4886",
"6X c #989985",
"7X c #958690",
"8X c #9D8A9E",
"9X c #8AAD82",
"0X c #8BB585",
"qX c #97B887",
"wX c #98B58A",
"eX c #A7A887",
"rX c #A9B68A",
"tX c #AEB695",
"yX c #AC98AB",
"uX c #B5B6AB",
"iX c #B7A4B8",
"pX c #C9A3A6",
"aX c #98C38E",
"sX c #94C596",
"dX c #9BC494",
"fX c #96C897",
"gX c #9DCA96",
"hX c #9ECB99",
"jX c #A5C78D",
"kX c #BBC988",
"lX c #A9C794",
"zX c #A3CC96",
"xX c #A0CC99",
"cX c #B6CA95",
"vX c #B5D394",
"bX c #BBC2A9",
"nX c #C5CE92",
"mX c #C6CBA2",
"MX c #CCD4B0",
"NX c #DCE8B4",
"BX c #E9F2BC",
"VX c #BEB0C3",
"CX c #C6B5C6",
"ZX c #D3BDD6",
"AX c #E9F4CB",
"SX c #DBC2E0",
"DX c #E2CBE4",
/* pixels */
"sX0X9XwXsXfXfXfXsXsXsXsXsXsXsXsXsXsXsXsXsXsXsXsXsXsXsXsXsXsXsXsXsXsXsXsXsXsXsXsXsXsXfXsXfXfXfXsXsXsX",
"X.@XoX4 x.-XlXsXsXsXsXsXsXsXsXsXsXsXsXsXsXsXsXsXsXsXsXsXsXsXsXsXsXsXsXsXsXsXsXsXsXhXrXB.z.0XsXsXgXhX",
"c.b.` ' a.a.a.oX;XqXsXsXsXsXsXsXsXsXsXsXsXsXsXsXsXsXsXsXsXsXsXsXsXsXsXsXsXsXsX+Xm.o.a.a.X.B.0XgXhXxX",
"z.' s Z.i.a.( q _ x.XX:XsXgXsXsXsXsXsXsX0XsXsXsXsXsXsXsXsXsXsXsXsXsXsXsXsXsX9X` m G a.N.v.x.+X0XhXhX",
"v.S B i.F.4X7Xk...x 7 m c.-XrXcXtX9X.Xb..X.Xb..X.X+X#X#X#X0XsXsXsXsXsXsXsX9Xz.Z l.].4X4XF.i.=X>XxXxX",
"A.A u F.CXCXyX8X].S.a.q X * b p.b.b.p.a.v.v.S.v.h.v.N.N.v.p.] X.B.oXOXb.z.v.D.4X8XyXiXCXyX( OX9XgXxX",
"h...& l.iXDXZXZXCXF.( o + 1 A x j n S G t.u.h.h.Z.v.Z.v.M.S.v.h.M.l...h 6 S 4XVXZXDXSXiX4X..>X>XjXxX",
"N.H f 2 l.8XDXiX4X2.j u n u B B N N M z C F &.&.&.t.h.j.Z.v.A.M.A.l.h.g.f.u.d.F.VXZXVXF.i.1 9XwXaXxX",
"gX-XOXoXi.].iX4X&.B k M C N N M N C N C C B N N &.&.&.y.y.u.g.j.j.A.S.M.v.j.d.s.4X8XiXC.u.-XrXjXxXxX",
"zXgXwX;XN.j.A.2.i j j M b M M C N N N N N N C B j M A S C S ' y.g.v.Z.Z.Z.Z.j.f.s.V.7Xl.n.;XjXxXxXxX",
"xXxXwXhX0Xb.d 3 k l M N b l l A b z z z N C n z M z z l h h A n H ..u.p.v.S.S.Z.2.&.h 0 o.;XlXxXxXxX",
"xXxXxX0XqX+Xp.d n N b b b c b A n z n z z z z n C b b z n n z n c c S ' t.p.Z.Z.d.B X + x.:XzXhXxXxX",
"xXxXxXhX;X;XD.b B b c c C c z n B b C n n z z n n n z n n n n h h b c v v Z t.f.V.V.D i.:XvXhXhXxXxX",
"xXxXxXhX9X9X' B A z l z l z z x z N n N N n z h n h n z n h h h z c c c g h Z &.s.V.( x.rXvXhXhXxXxX",
"xXxXxXxX0X#Xj u B z l g s = 3 9 j l k N N b b z z n B n n h h f 6 * * 6 0 l N F V.l.u.x.;XlXxXxXxXxX",
"xXxXxXxXdX9XB B k f 9 + O X X O 9 9 f l n N B B M x n z h 9 6 9 O X X X 5 6 f B F y.M.a.#X:XxXhXxXxX",
"xXxXxXxXsXoXM j A h.>XMX@.[ [ $XrXtXg.h d A D N M F l A 0 a.=XMX$X{ _ |.jXrXD.f &.d.A...@X:XhXhXxXxX",
"xXxXxXxXfXM &.d.D.MXBXBX$X} [ 1XNXAXtXD.( k k V V V = ( S.mXNXAX1X|.[ |.NXNXMX6Xu.d.M.u.#X;XhXhXxXxX",
"xXxXxXxXgXs M t.g.tXuXNX,X X{ 1XMXbXD.a.H H D &.V 2.&.G ' OXtXNX1X$X} $XmXmXeXS.2.&.g.u.@XqXxXxXxXxX",
"xXxXhXhXfXj j M V j.6XcX$X_.@.:XwX6Xv.' d N y.F.A.d.B z n h.OXuX:X X+.%XeXeXS.k V V y...@XdXxXxXxXxX",
"xXxXxXxXhXZ C &.V r h ..x.*X*X .0 c 0 z z g.4XuXVX7Xy.n z n 0 w o.XX*Xm.| 0 x B V V ( ( ;XgXxXxXxXxX",
"xXxXxXxXhXdXM C M &.A 6 0 w ` 5 m h g z h A z F S ( A h h n b b 5 w ` 0 9 n V V V V G ..;XzXxXxXxXxX",
"xXxXxXxXhXhXp.j M &.M D S h c m h z D H k A d n s n A n A S b l b v c b B F B M B h c n.qXxXxXxXxXxX",
"xXxXhXxXhXhX9X* j D u D j A A d A k N C d G h m G b d k A M k A Z l C A A k M D n 9 0 XXxXxXxXxXxXxX",
"xXxXxXxXxXxXsXB.g l d B V N M B N N N N n n b n b b n z N N D B C M M C Z C c c w w | qXxXxXxXxXxXxX",
"xXxXxXxXxXxXgXc.+ * B &.r M 2.N N N N B z z z l n n z A B C C B M D D j s M m v 5 _ XXgXxXxXxXxXxXxX",
"xXxXxXxXxXhXxX.Xw + u M V B N k N B N C B z l c b z b z B B M N M j l F &.S v 0 5 +.,XhXxXxXxXxXxXxX",
"xXxXxXxXxXhXhXqX8 7 1 o u u u B N N B C B b b z h n z z M V M M H F M u s c w 5  X:XzXxXxXxXxXxXxXxX",
"xXxXxXxXhXxXxXxXeXm 0 1 & & u 3 k k k M z M b b l b C b B B B B x u u f 3 3 / m.kXvXzXxXxXxXxXxXxXxX",
"xXxXxXxXxXxXxXxXlX+.q . # & , 3 3 u 3 j g g g j s d j g f d f f x 3 1 1 1 q n.,X1XzXxXxXxXxXxXxXhXxX",
"xXxXxXxXxXxXxXxXzXrX].o o # o o o % * = = = = = = % % = * & & & o , , . + k.eXnXkXhXxXxXxXxXxXxXxXxX",
"xXxXxXxXxXxXxXxXeX8 2 : Y J : - - - ; o & & @ O $ % & & o o - - : J ! k.4.I .._.nXvXxXxXxXxXxXxXxXxX",
"xXxXxXxXxXxXxXqXa.W ) K.T.K.G.P ^ P : - . . O 5 5 + X o - : P G.T.Q.Q.~.'.'.[.(.*XrXcXxXxXxXxXxXxXxX",
"xXxXxXxXhXhX9XN.I L G.L.T.Q.I.Q.L.H.Q L : 2 I _.m.O.2 : J Q G.L.!././././.}.'.[.k.%X,XcXxXxXxXxXxXxX",
"xXxXxXxXhXfXz.* ; : Q K.I.I.!.Q.T.Y.^ ~ : I U.2X2X&XI : T ^ Y.T.E.^.5X5X/.~.E.(.O.m.*XcXxXxXxXxXxXxX",
"xXxXxXxXhXqX] O ; : L P K.L.K.H.G.^ ~ T : K O.<X<X_.K : y ~ ^ G.J.E.^.^.~.H.! W ( O.%XjXzXxXxXxXxXxX",
"xXxXxXxX:X4 6 ' , ; : : L Q L L - , t e e p y W W E t t e e , y ~ ~ J.J.~ T < x ` ` +..XvXxXxXxXxXxX",
"xXxXxXaXc.4 v g % ; o - - - - : y p a p $.:.:.:.=.>.:.>.$.$.a ;.<.~ T T < > 1 x ` ` ] +.zXxXxXxXxXxX",
"xXhXxXkX .+ q # 1 > > > , > , u i R E a =.3.3.e.q.r.:.:.#.=.;.e.R.<.~ W Y , , i ' `  . XzXxXxXxXxXxX",
"xXxXxX,X .+ 9 & , # - y E #.i i E 1.;.5.;.5.3.`.W.C.5.,.;.5.r.r.W.W.W.W.1.R < 1 / w | XXzXxXxXxXxXxX",
"xXxXxX,X@.8 + & > , y ;.4.5.5.3.1.1.4.3.3.k.[.pXpXpXC.5.e.3.5.3.r.r.q.e.W.<.E : q 7 +.qXzXxXxXxXhXxX",
"xXxXxXxXkX>Xx ; ; y < < y R R y , t a a a p < i i W =.;.w.-.;.=.-.8.<.<.<.~ 4.k.q | :XxXxXxXxXxXxXxX",
"xXxXxXxXzXcXtX`.: Y < > t a a p =.=.6.6.7.7.6.:.=.7.0.0.7.6.8.3.,.,.,.<.<.~ 4.[._.*XtXhXxXxXxXxXxXxX",
"xXxXxXxXxXrX*X(.! W < ; p p t a #.:.9.0.0.0.0.9.0.0.3X3X3X0.8.8.8.w.e.e.5.W J.(.)._.wXfXxXxXxXxXxXxX",
"xXxXxXxXjX*XO.O.J.P J o # # @ p p $.6.6.6.6.9.*.*.*.7.0.0.q.q.0.,.3.1.#.Y T J.E.{.).>XsXdXhXhXxXxXxX",
"xXxXxXzX:X .k.(.P L L - o @ . @ e $.$.$.#.#.%.%.%.%.>.>.8.8.w.w.p t # # < L G.E.~.P.%XsXsXsXhXxXhXhX",
"hXhXxXaX0X;Xm.k.(.K K K ; > .     . @ e e t i x q i @ # e # @ . . . . y W ! Q P.) U +XsXsXsXfXhXhXhX",
"xXgXsXsXsXfXfXaXjXXXn.O.q 1 o X $ $ r k F N.>XmXmX,Xx o @ % s 0 &.f + q K U O.&XjXaXsXsXsXsXsXfXhXhX",
"gXfXsXsXsXsXsXsXsXsXfXdXgX-X  X X 6 &.s.y.=XeXnXnX1X8 cX* H u.u.u.' cXkXcXjXjXjXsXfXsXsXsXsXsXsXsXhX",
"sXsXsXsXsXsXsXsXsXsXsXsXgX;X    X s y.j.h.-XrXnXnX1X_ mX0 u.j.j.u.| jXsXdXsXfXwXsXfXsXsXsXsXsXsXsXsX"
};
