/* XPM */
static char *result[] = {
/* columns rows colors chars-per-pixel */
"50 50 252 2 ",
"   c #020300",
".  c #0B0101",
"X  c #020C00",
"o  c #0B0C02",
"O  c #0A050B",
"+  c #150102",
"@  c #1B0203",
"#  c #120906",
"$  c #1C010D",
"%  c #0D1301",
"&  c #0A1306",
"*  c #191705",
"=  c #131D02",
"-  c #14150A",
";  c #151C0C",
":  c #0D081A",
">  c #180519",
",  c #141513",
"<  c #191517",
"1  c #1B1C14",
"2  c #1B1A1D",
"3  c #230103",
"4  c #2B0003",
"5  c #25030A",
"6  c #390203",
"7  c #280515",
"8  c #23021B",
"9  c #3B0114",
"0  c #3A0015",
"q  c #281518",
"w  c #221C1C",
"e  c #311410",
"r  c #1A2705",
"t  c #1C2317",
"y  c #242B07",
"u  c #2C3607",
"i  c #35370C",
"p  c #252916",
"a  c #23261C",
"s  c #242A1B",
"d  c #292E1D",
"f  c #35281D",
"g  c #2C351A",
"h  c #333A19",
"j  c #190524",
"k  c #1B1822",
"l  c #1F003A",
"z  c #270325",
"x  c #390127",
"c  c #241A26",
"v  c #381428",
"b  c #2B0234",
"n  c #280339",
"m  c #350238",
"M  c #2B1932",
"N  c #1C2023",
"B  c #242323",
"V  c #292525",
"C  c #262B23",
"Z  c #2B2C25",
"A  c #2A262B",
"S  c #27282D",
"D  c #2D2D2B",
"F  c #322828",
"G  c #312E2C",
"H  c #253021",
"J  c #2E3224",
"K  c #2E312A",
"L  c #303424",
"P  c #32332C",
"I  c #373B29",
"U  c #2A2735",
"Y  c #2D2D33",
"T  c #2D2C3A",
"R  c #312E34",
"E  c #372638",
"W  c #312E3C",
"Q  c #2D3135",
"!  c #333333",
"~  c #3A3B34",
"^  c #33323A",
"/  c #383538",
"(  c #3B3C3D",
")  c #440105",
"_  c #5B0204",
"`  c #4A0018",
"'  c #530517",
"]  c #571316",
"[  c #660817",
"{  c #4A2A19",
"}  c #493419",
"|  c #500D2F",
" . c #571628",
".. c #480938",
"X. c #660827",
"o. c #740729",
"O. c #700E2D",
"+. c #492729",
"@. c #572F2C",
"#. c #4A3928",
"$. c #462735",
"%. c #562638",
"&. c #463837",
"*. c #682633",
"=. c #374209",
"-. c #384416",
";. c #3B4429",
":. c #3E4637",
">. c #3E5737",
",. c #4D5C17",
"<. c #4E522F",
"1. c #495A2B",
"2. c #464937",
"3. c #6F4E3A",
"4. c #556438",
"5. c #290244",
"6. c #380849",
"7. c #3E1B4C",
"8. c #3A0755",
"9. c #393745",
"0. c #3A0666",
"q. c #430842",
"w. c #451548",
"e. c #53134F",
"r. c #491658",
"t. c #551657",
"y. c #710F4D",
"u. c #4B2B4F",
"i. c #582748",
"p. c #453E45",
"a. c #5C2853",
"s. c #6A3050",
"d. c #4A0869",
"f. c #4E1369",
"g. c #541866",
"h. c #541074",
"j. c #582769",
"k. c #6C2D68",
"l. c #4A4C43",
"z. c #474549",
"x. c #524E4F",
"c. c #4C5449",
"v. c #54564A",
"b. c #4A4854",
"n. c #544D58",
"m. c #585757",
"M. c #5C5A5C",
"N. c #58634A",
"B. c #5C7247",
"V. c #5A6E54",
"C. c #696649",
"Z. c #6A764B",
"A. c #62625E",
"S. c #656A58",
"D. c #667B57",
"F. c #747E56",
"G. c #5B4A66",
"H. c #5C5860",
"J. c #635E64",
"K. c #6A5F69",
"L. c #6F5F7C",
"P. c #646462",
"I. c #696669",
"U. c #71686B",
"Y. c #787867",
"T. c #6D6573",
"R. c #746C75",
"E. c #757373",
"W. c #85152B",
"Q. c #8C0A30",
"!. c #970635",
"~. c #961838",
"^. c #AF0A38",
"/. c #802336",
"(. c #971846",
"). c #B1194F",
"_. c #932E4C",
"`. c #A9254D",
"'. c #C61547",
"]. c #CC134D",
"[. c #C62857",
"{. c #E6346C",
"}. c #935C66",
"|. c #DB4775",
" X c #F04475",
".X c #788636",
"XX c #6C8655",
"oX c #758557",
"OX c #778951",
"+X c #6C8468",
"@X c #738B68",
"#X c #6E9169",
"$X c #779769",
"%X c #799876",
"&X c #7CA577",
"*X c #898B4F",
"=X c #A6815D",
"-X c #958B6A",
";X c #879E6C",
":X c #AD936B",
">X c #93A26B",
",X c #8AA273",
"<X c #92A779",
"1X c #9BB77A",
"2X c #A3AA76",
"3X c #ABB779",
"4X c #9EC079",
"5X c #796C82",
"6X c #877B88",
"7X c #FF4980",
"8X c #908C8E",
"9X c #BA9190",
"0X c #8EB38B",
"qX c #98B987",
"wX c #A8B489",
"eX c #B0B18F",
"rX c #9F92A3",
"tX c #AC9CB6",
"yX c #B4B3AC",
"uX c #B3A9B9",
"iX c #D39C90",
"pX c #9CC38B",
"aX c #94C596",
"sX c #99C596",
"dX c #9CCB96",
"fX c #9ECC99",
"gX c #A5C48A",
"hX c #B8CA89",
"jX c #A7C494",
"kX c #A2CA95",
"lX c #ABCA92",
"zX c #A0CC99",
"xX c #B5CA98",
"cX c #BCD690",
"vX c #BBCBA7",
"bX c #C4CF94",
"nX c #C7D497",
"mX c #CBD6AC",
"MX c #CDC9B1",
"NX c #D1DAB6",
"BX c #DAE4B1",
"VX c #B8A7C6",
"CX c #C6B8CA",
"ZX c #E3ADCB",
"AX c #D8DEC5",
"SX c #D0C3D3",
"DX c #D1C5D9",
"FX c #EEECCB",
"GX c #F5FED7",
"HX c #D8C8EA",
"JX c #E5D5F4",
"KX c #FDFFE5",
/* pixels */
"aXaXaXaXaXaXaXaXaXaXaXaXaXaXaXaXaXaXaXaXaXaXaXaXaXaXaXaXaXaXaXaXaXaXaXaXaXaXaXaXaXaXaXaXaXaXaXaXaXaX",
"fXaXaXaXaXaXaXaXaXaXaXaXaXaXaXaXaXaXaXaXaXaXaXaXaXaXaXaXaXaXaXaXaXaXaXaXaXaXaXaXaXaXaXaXaXaXaXaXdXfX",
"zXzXaXaXaXaXaXaXaXaXaXaXaX$X&XaXaXaXaXaXaXaXaXaXaXaXaXaXaXaXaXaXaXaXaXaXaXaXaXaXaXaXaXaXaXaXaXaXzXzX",
"zXzXzXaXaXaXaXaXaXaXaXsX0XB.XXaXaXaXaXaXaXaXaXaXaXaXaXaXaXaXaXaXaXaXaXaXaXaXaXaXaXaXaXaXaX0X2.g XXfX",
"zXzXzXzXaXaXaXaXaXaXaXXX2.#X%Xm.;.;.4.aXaXaXaXaXaXaXaXaXaXaXaXaXaXaXaXaXaXaXaXaXaXaX$X%XN.H I.I.2 D.",
"zXzXzXzXfXaXaXaXaXaXaX$Xr z.8XT.Y.D.p I t aXaXaXaXaXaXaXaXaXaXaXaXaXaXaXaXaXaXaX&X#X+Xm.E.I.T.T.S >.",
"zXzXzXzXzXzXaXaXaXaXaX$X; l.HXCX8X5XU.S.t I -.B.sXD.#X&X%X0XaXaXaXaXaXaXaXaXaX0X&X+XE.E.rXCXJXT.c :.",
"zXzXzXzXzXzXzXaXaXaXaXoX# / CXHXDXtXtX<   - t s t I :.H P.n.m.T.A.S.S.P.+X@X@X+XV.l.uXuXDXDXuX5Xt H ",
"zXzXzXzXzXzXzXzXaXaXaX&X# q R.HXJXtXG.c > A G L J J K ! 9.9.b.b.P.M.A.A.P.P.M.m.&.p.K.uXDXCX8X/ < c.",
"zXzXzXzXzXzXzXzXfXaXaX1X4.  c HXVXL.E M 9./ G D Z K K Y Q ^ 9.9.x.b.n.M.J.J.J.J.I.H.q 6XCXCXL.+ N.aX",
"zXzXzXzXzXzXzXzXzXzXaXaXwXo < tXG.E q U / Z C K J K K K D Y U Y Q ^ ( z.b.H.I.T.J.K.J.G m.SXJ.o ,XzX",
"zXzXzXzXzXzXzXzXzXzXzXaX3X  - w c M / / G V J P K J K K K D P Y S U U Y ^ p.b.M.J.R.x.S.&.@ l.# 1XfX",
"zXzXzXzXzXzXzXzXzXzXzXfX3Xu     w G P G K P P H Z K J D G K G D ^ ! Q S S U Q ~ p.m.U.A.K X - y 1XfX",
"zXzXzXzXzXzXzXzXzXzXzXzXhXwX  , a d d Z C K K K K D G D D G G D K Q Q ! K Y Q Q ^ ( ( S.N.:.  0X4XfX",
"zXzXzXzXzXzXzXzXzXzXzXzXlXmX  & V L P ! K S Q ( Q T Y ^ R R G D C Z K K K Y Q D Y :.B c.P.c.  vX4XfX",
"zXzXzXzXzXzXzXzXzXzXzXzXnXwX- 2 B Z G Z C H t N S U T Y Y Y G G ! K Z C s s C t t K C c.I.x.& yXpXkX",
"zXzXzXzXzXzXzXzXzXzXzXzX1X& , M S R G * r =   = t N Q Q S K P P D ! K a r = & & = r ;.t l.I.H.- qXzX",
"zXzXzXzXzXzXzXzXzXzXzXzX3X  k 9.9.A Z NX>X=.r .XNXm.S S ~ K P B ^ A t C.mXF.X ,.;XNXr g c.M.R.& <XzX",
"zXzXzXzXzXzXzXzXzXzXzXzX2X  2 U T M.8XGXnX,.y cXGXyXI.H ! c A p.Y P Y.yXGXmXr 4.nXGXwX2.^ J.H.; >XzX",
"zXzXzXzXzXzXzXzXzXzXzXzX>X= , U W z.CXKXBX.Xr nXGXAX8XQ ! / T 9./ Z 8XAXFXNXy OXBXGXyXm.2.m.I.  ,XzX",
"zXzXzXfXzXzXzXzXzXzXzXzX1XX , ^ W ( P MXBX*X=.hXNXS.K ! V p.n.p.U G L Y.FXNX1.oXmXAX;.H S Z I.; ,XdX",
"zXzXzXzXzXzXzXzXzXzXzXzXjXX - R N &.a 2.=.*X3Xi -.~ ! ^ ! yXDXVX! R I d g h wXF.g l.g J ~ Q M.X <XkX",
"zXzXzXzXzXzXzXzXzXzXzXzXkXi % t ~ d Z d g -.4.u P Q N S K l.:.n.Z / V p ;.r N.h t g H N P K A.J 1XfX",
"zXzXzXzXzXzXzXzXzXzXzXzXdXkX& t p L D ~ d p h Z S T ^ Q J I H Q ! B P ~ p Z L d L I K K K ! , 0X1XkX",
"zXzXzXzXzXzXzXzXzXzXzXzXzXzXX r p Z U T A / G D W W Y ! Z g L G Y U D K G K P P Q K C ~ ! t X jXdXzX",
"zXzXzXzXzXzXzXzXzXzXzXzXzXzX4.r ; , ^ 9.Y S Z ! T T Y Z L d G R R Y R D D D S D K ^ Q t t ~ ;.wXzXzX",
"zXzXzXzXzXzXzXzXzXzXzXzXzXzXzXh % 2 : 9.Y S P Z R R D G J J D ^ T R Y R R Y R D ^ D Q H g g qXgXzXzX",
"zXzXzXzXzXzXzXzXzXzXzXfXzXzXzX;Xp , : T U Y G V D G P L J Z T T T Y R ! ^ Y R ! D K r N.r XXlXzXzXzX",
"zXzXzXzXzXzXzXzXzXzXzXzXzXzXfXkX$X; C < B V , P F G P J Z Z T T U D ! Y R R R D S I >.g $XgXkXfXzXzX",
"zXzXzXzXzXzXzXzXzXzXzXzXzXzXzXzXkXoXo 2 , 2 1 Z A Z D K L K W W ^ ^ ! R G F A V Z J g XXxXkXdXkXzXzX",
"zXzXzXzXzXzXzXzXzXzXzXzXzXzXzXzXdXlX-.t o # c < k c C C s H S Q D A Z A V B a 2 - = h xXkXkXzXzXzXzX",
"zXzXzXzXzXzXfXzXzXzXzXzXzXzXzXzXkXkXxX+ 5 @ q 8 > 2 2 , r ; , 2 2 2 2 w q 7 5 5 3 @ vXlXkXzXzXzXzXzX",
"zXzXzXzXzXzXzXzXzXzXzXzXzXzXzXzXdXlX#.) ] ' ) ) 3 @ - & r & o a : 2 z > 7 0 9 _.}.) C.bXjXfXfXzXzXzX",
"zXzXzXzXzXzXzXzXzXzXzXzXzXzXfXfXkX}.] [ (.~.o.o.X.6 3 #   * * * + $ 7 9 ' o.Q.`.|.`.3.2XbXjXzXzXzXzX",
"zXzXzXzXzXzXzXzXzXzXzXzXfXfXfXsXZ.6 ) ~.'.'.^.^.!._ ) 6 + } 3.{ 3 4 6 [ !.).{.{.{. XiX] =XxXlXzXzXzX",
"zXzXzXzXzXzXzXzXzXzXzXzXfXsXaX,.y + ) o.!.'.].].[.~.O.] 6 iXFXMX4 ) [ W.).).7X7X{.[.|.C.} y jXfXzXzX",
"zXzXzXzXzXfXzXzXzXzXfXfXfXaXaXy o < 4 ' W.~.).Q.o.o.` 3 3 -XiXeX5 5 | o.Q.!.{. X).`.4 f h y lXzXzXzX",
"zXzXzXzXzXzXzXzXzXzXfXfXaXaXaX-.X f @ 6 X.[ o.` 0 x z j 7 i.+.$.z > 7 0 ` X.).).(.` v ~ a 2.>.pXzXzX",
"zXzXzXzXzXzXzXzXzXzXfXaXaXaXaX=.  q 5 @ 9 9 ` m m 5.l 5.8.r...e.r.l b x ..y.y.....7 c ! v.S.X kXzXzX",
"zXzXzXzXzXzXzXzXfXfXaXaXaXaXaX=.o q q + 5 7 z z 6.5.6.6.r.g.t.t.r.6.6.6.q._.q.z 8 O E / I v.. kXzXzX",
"zXzXzXzXzXzXzXzXdXaXaXaXaXaXaXZ.* . 7 $ x ....x e.%.%.$.%.s.s.a.t.e.e.k.k.}.a.E > U / F &.C.. jXzXzX",
"zXzXzXzXzXzXzXfXaXaXaXaXaXaXaXkXY.O $ v a.i.t.s.%.i.%.%.s.9XZXZXk.k.k.k.a.i.z $ R D &.F <.<.h jXzXzX",
"zXzXzXzXzXzXzXaXaXaXaXaXaXaXaXjX-X+ q 8 b m m ..q...q.q.w.g.j.j.g.t.t.t.r.w.M M T c B g h 1.lXgXzXzX",
"zXzXzXzXzXfXaXaXaXaXaXaXaXaX0X<X} 3 %.$ z b 6.m q.q.6.r.8.8.0.d.h.d.d.g.g.r.n b > > e 5 Z.gXgXkXzXzX",
"zXzXzXzXaXaXaXaXaXaXaXaXaXaX& * 6 6  .5 x m b n q.r.f.d.r.h.h.d.h.h.h.d.h.j.g.r.z 7 6 6 *X4XzXzXzXzX",
"zXzXzXfXaXaXaXaXaXaXaXaXaXaXXXi  .O.*.9 x z j b 5.6.r.g.f.f.f.d.d.d.h.h.g.j.k.j.a.5 _._ }.cXzXzXzXzX",
"zXfXfXaXaXaXaXaXaXaXaXaXaXaXsX<._ X.X.4 3 @ > : 5.l 5.8.6.6.w.t.r.w.j.j.u.n j 8 7 9 `._ :XhXdXdXzXzX",
"zXdXaXaXaXaXaXaXaXaXaXaXaXaXqXF.@. . . .v @ > O : : l l b 7.u.+.$.> 8 > z O O 8 v  ./._ =X4XaXdXfXzX",
"fXaXaXaXaXaXaXaXaXaXaXaXaXaXaXaXwXeX{ +.+.7   k 2 k c c p.eXeXeXeX<.D R G F w f $.+.@.{ :XgXaXaXaXfX",
"aXaXaXaXaXaXaXaXaXaXaXaXaXaXaXaXaXxX#.#.&.q o V Q S ^ ^ C.vXbXbXnXC.l.x.c.l.#.#.+.&.&.#.>XpXaXaXaXaX"
};
