/* XPM */
static char *result[] = {
/* columns rows colors chars-per-pixel */
"50 50 207 2 ",
"   c #080606",
".  c #0D0C0D",
"X  c #0F100F",
"o  c #0F0912",
"O  c #170619",
"+  c #13001D",
"@  c #141414",
"#  c #171917",
"$  c #181817",
"%  c #1A1A1A",
"&  c #26191D",
"*  c #34171F",
"=  c #21221F",
"-  c #283616",
";  c #170024",
":  c #1C012C",
">  c #29192E",
",  c #391827",
"<  c #280539",
"1  c #232423",
"2  c #272727",
"3  c #2E2E2E",
"4  c #2D3623",
"5  c #2D322D",
"6  c #312E31",
"7  c #362938",
"8  c #333333",
"9  c #383334",
"0  c #353A35",
"q  c #39333A",
"w  c #3C3C3B",
"e  c #4C0017",
"r  c #4E001A",
"t  c #53031D",
"y  c #5A011C",
"u  c #4E1F2C",
"i  c #53132B",
"p  c #471737",
"a  c #710627",
"s  c #781436",
"d  c #46282B",
"f  c #712C3C",
"g  c #3B443C",
"h  c #404F1A",
"j  c #506816",
"k  c #474939",
"l  c #4A533E",
"z  c #2B0045",
"x  c #2E0049",
"c  c #330D4A",
"v  c #3B0658",
"b  c #3F3643",
"n  c #581E4D",
"m  c #400C5B",
"M  c #4C1555",
"N  c #453F45",
"B  c #672747",
"V  c #6B3247",
"C  c #7B3845",
"Z  c #7E3754",
"A  c #470B68",
"S  c #5B1C64",
"D  c #4E0D73",
"F  c #510D78",
"G  c #55117A",
"H  c #611C7B",
"J  c #5F3063",
"K  c #612769",
"L  c #672A79",
"P  c #444444",
"I  c #464C45",
"U  c #4C4C4B",
"Y  c #544949",
"T  c #4D5646",
"R  c #4C534C",
"E  c #50594F",
"W  c #534C52",
"Q  c #574A56",
"!  c #535353",
"~  c #555B54",
"^  c #595D57",
"/  c #5C555A",
"(  c #5C5C5B",
")  c #694D47",
"_  c #714A4E",
"`  c #78595A",
"'  c #586457",
"]  c #5C635C",
"[  c #606757",
"{  c #61635F",
"}  c #634169",
"|  c #6D5D6A",
" . c #616261",
".. c #636B62",
"X. c #6D6865",
"o. c #6C6C6B",
"O. c #796A63",
"+. c #647165",
"@. c #687167",
"#. c #697569",
"$. c #6D7A6C",
"%. c #7A6976",
"&. c #83012A",
"*. c #8B002C",
"=. c #93012E",
"-. c #970131",
";. c #801937",
":. c #A60235",
">. c #B6013A",
",. c #82213E",
"<. c #C3013E",
"1. c #AC1845",
"2. c #862B46",
"3. c #992E4F",
"4. c #86345F",
"5. c #A92D55",
"6. c #CB0745",
"7. c #D90146",
"8. c #C4124F",
"9. c #E5024A",
"0. c #E8014B",
"q. c #FA004F",
"w. c #E40D52",
"e. c #F70754",
"r. c #E71C5D",
"t. c #F2145B",
"y. c #C62658",
"u. c #D8235D",
"i. c #F81D63",
"p. c #C42D60",
"a. c #F42A6A",
"s. c #F93874",
"d. c #824A51",
"f. c #936452",
"g. c #A57C56",
"h. c #AD456C",
"j. c #816C68",
"k. c #8B726A",
"l. c #80757E",
"z. c #B06266",
"x. c #D04C73",
"c. c #E9477B",
"v. c #7C8D36",
"b. c #69856C",
"n. c #78816F",
"m. c #748374",
"M. c #798A78",
"N. c #7A8B7A",
"B. c #95AD32",
"V. c #859047",
"C. c #93A559",
"Z. c #94956D",
"A. c #8C877B",
"S. c #81927C",
"D. c #AE8F62",
"F. c #B0B076",
"G. c #CADD70",
"H. c #5F1881",
"J. c #661C84",
"K. c #6D2582",
"L. c #8A7886",
"P. c #967C92",
"I. c #7F8384",
"U. c #7E9980",
"Y. c #848583",
"T. c #839581",
"R. c #869983",
"E. c #899D86",
"W. c #9A8697",
"Q. c #9A9897",
"!. c #8BA48C",
"~. c #8CAA8A",
"^. c #98A58F",
"/. c #93AB8E",
"(. c #94B38F",
"). c #92AD93",
"_. c #94B395",
"`. c #9AB393",
"'. c #99B898",
"]. c #9CBA9B",
"[. c #A3AC8D",
"{. c #A8B794",
"}. c #A2BD9C",
"|. c #A88AA2",
" X c #B199AD",
".X c #BA99B4",
"XX c #ACADA5",
"oX c #A8B5A4",
"OX c #94C596",
"+X c #96C897",
"@X c #9BCA97",
"#X c #97C499",
"$X c #9CC499",
"%X c #9DCB99",
"&X c #A4C49D",
"*X c #A0CC99",
"=X c #9EC4A1",
"-X c #9DC9A0",
";X c #A5C6A1",
":X c #ACC5A6",
">X c #A6CBA2",
",X c #A9CCA4",
"<X c #BEC1B6",
"1X c #D3E491",
"2X c #CFD6BB",
"3X c #D2AECB",
"4X c #E2B7DB",
/* pixels */
"+XOXOXOXOXOXOXOXOXOXOXOXOXOXOXOXOXOXOXOXOXOXOXOXOXOXOXOXOXOXOXOXOXOXOXOXOXOXOXOXOXOXOXOXOXOXOXOXOX+X",
"%X+XOXOXOXOXOXOXOXOXOXOXOXOXOXOXOXOXOXOXOXOXOXOXOXOXOXOXOXOXOXOXOXOXOXOXOXOXOXOXOXOXOXOXOXOXOXOX+X%X",
"*X%X+XOXOXOXOXOXOXOXOXOXOXOXOXOXOXOXOXOXOXOXOXOXOXOXOXOXOXOXOXOXOXOXOXOXOXOXOXOXOXOXOXOXOXOXOX%X%X*X",
"*X*X%XOXOXOXOXOXOXOXOXOXOXOXOXOXOXOXOXOXOXOXOXOXOXOXOXOXOXOXOXOXOXOXOXOXOXOXOXOXOXOXOXOXOXOX+X*X%X*X",
"*X*X*X%X+XOXOXOXOXOXOXOXOXOXOXOXOXOXOXOXOXOXOXOXOXOXOXOXOXOXOXOXOXOXOXOXOXOXOXOXOXOXOXOXOXOX%X*X*X*X",
"*X*X*X*X%XOXOXOXOXOXOXOXOXOXOXOXOXOXOXOXOXOXOXOXOXOXOXOXOXOXOXOXOXOXOXOXOXOXOXOXOXOXOXOX+X%X*X*X*X*X",
"*X*X*X*X*X%XOXOXOXOXOXOXOXOXOXOXOXOXOXOXOXOXOXOXOXOXOX=X'.'.].#XOXOXOXOXOXOXOXOXOXOXOX+X%X*X*X*X*X*X",
"*X*X*X*X*X*X*XOXOXOXOXOXOXOXOXOXOXOXOXOXOXOXOXOXOXOX'.I.+.' N._.=XOXOXOXOXOXOXOXOXOXOX+X%X*X*X*X*X*X",
"*X*X*X*X*X*X*X*X+XOXOXOXOXOXOXOXOXOXOXOXOXOX#X#XOX'.U. .R 8 ~ I.].-X+XOXOXOXOXOXOX@X%X*X*X*X*X*X*X*X",
"*X*X*X*X*X*X*X*X@X+XOXOXOXOXOXOXOXOXOXOX#X_.N.$.+.] ~ ( ( W U I N.!.=X=X=X=X-X+X+X*X*X*X*X*X*X*X*X*X",
"*X*X*X*X*X*X*X*X*X*X+XOXOXOXOX+XOX'.).m...~ I w 2 b U L.L.%.! 6 8 g R ~ ] m.!.-X>X*X*X*X*X*X*X*X*X*X",
"*X*X*X*X*X*X*X*X*X*X*X+XOXOXOX#X).#.] ! U I g P R %.W..X.XP.| q % X   . X 1 g M./.,X>X*X*X*X*X*X*X*X",
"*X*X*X*X*X*X*X*X*X@X*X*XOXOX_.$...] (  .U b 0 ! L. X3X4X3XP.| b 2 # o . . @ @ 5 T T.'.,X*X*X*X*X*X*X",
"*X*X*X*X*X*X*X*X*X*X*X*X&XM...( ^ ] ] ( P 8 8 W l.W. X X|.%./ b 2 % X . . @ @ @ % 5 ' R.&X>X*X%X*X%X",
"*X*X*X*X*X@X*X*X*X*X$X/.{ ] (  .] ( ! U 0 8 8 0 I W W Q W P q 6 2 1 # @ X @ $ $ $ $ = 5 #.R.;X,X*X*X",
"*X*X*X*X*X*X*X*X*X*X@.[ ^ ]  .( ! U g b 8 6 3 3 6 3 5 6 6 6 6 6 3 3 = = $ $ $ $ $ # # $ 1 w !.$X*X*X",
"*X*X*X*X*X*X*X*X`.N.^ ~ ( ( ( U N q 8 3 5 6 5 5 6 5 3 3 3 3 3 3 5 6 2 1 % % # % % # # % @ % ..U.;X*X",
"*X*X*X*X*X*X*X'.m...^ / W P 0 2 2 1 = = 2 2 3 6 5 6 6 5 6 3 3 6 6 3 2 2 = % % % # % # # # % 2 R ).+X",
"*X*X*X*X*X*X*X).@.~ ^ U w 4 - h I ( ]  .R b 5 3 6 3 3 6 5 3 3 3 5 6 8 2 2 = % % % # % % % # . 0 R.(.",
"*X*X*X*X*X*X;X).o.~ ^ U 8 h j C.[.2X<XXXo.! 8 3 3 3 6 5 6 6 5 6 3 3 6 3 1 1 % % % % % # % # . 0 R.%X",
"*X*X*X*X*X*X}.S...^ ( ( [ v.B.G.1X2XXXA.R w 3 6 6 3 8 5 3 5 6 5 3 3 3 2 2 = % % % # % $ % @ . 0 R.`.",
"*X*X*X*X%X:XoXQ.L.$.o.X.X.V.V.C.C.n.{ P 0 6 3 3 3 3 3 3 3 6 3 6 6 3 3 3 1 1 & % % % % $ % # . 0 R./.",
"*X*X*X*X*X:XXXQ.Y.l.o.{ / T k k k g 0 8 6 3 3 6 3 3 6 3 6 5 3 3 3 3 3 2 1 % % $ $ $ % % % $ o 0 S.!.",
"*X*X*X*X%X:X}.T.o.{ ] / U g 8 6 6 6 3 6 6 6 3 3 3 6 5 3 3 6 6 5 6 3 2 1 = % % $ % % $ % @ % I $.].*X",
"*X*X*X*X*X*X&X!.o.~ / ! U w 9 8 3 3 3 3 3 3 3 3 5 8 3 3 8 3 3 3 3 5 2 1 % % $ % $ $ # # @ % n./.*X*X",
"*X*X*X*X*X*X*X&XE.$.( ! ! I g 8 8 3 3 8 6 3 3 3 3 3 3 3 3 3 3 3 3 2 1 % % % % $ $ $ # @ g ] `.*X*X*X",
"*X*X*X*X*X*X*X*X].E.^ ~ / W I q 0 3 3 3 3 3 3 8 3 3 8 3 3 3 3 2 1 1 % % % $ % % % @ 4 ~ !.'.*X*X*X*X",
"*X*X*X*X*X*X*X*X*X*XS.$.~ ! W g b 8 3 3 3 8 3 3 3 3 3 3 3 3 3 2 1 % % # $ % $ @ = E M.}.>X*X*X*X*X*X",
"*X*X*X*X*X*X*X*X*X*X*X}.M...! ! R U P b 0 8 3 3 5 6 6 2 2 2 2 % & % % # # # # U $.'.*X*X*X*X*X*X*X*X",
"*X*X*X*X*X*X*X*X*X*X*X*X&X/.m.U w 3 5 5 5 8 3 3 6 5 2 1 1 % % % $ $ @ X . 0 ' ).%X%X*X*X*X*X*X*X*X*X",
"*X*X*X*X*X*X*X*X*X*X*X*X%X*X,X].`.).U...d 5 % % # @ X . . . . . . .   1 E (.*X*X*X*X*X*X*X*X*X*X*X*X",
"*X*X*X*X*X*X*X*X*X*X*X*X*X*X*X*X*X-X>X}.Z.k.` 2.s s a y r r r r e e e u ) A.&X*X*X*X*X*X*X*X*X*X*X*X",
"*X*X*X*X*X*X*X*X*X*X*X*X*X*X*X*X@XOX,X,XF.D.z.z.c.u.u.6.<.<.<.:.-.-.*.&.a C O.{.*X*X*X*X*X*X*X*X*X*X",
"*X*X*X*X*X*X*X*X*X*X*X*X*X*X*X@X$X-X'.Z.f.) V Z h.x.c.a.i.e.e.9.<.7.>.:.-.a t A.`.*X*X*X*X*X*X*X*X*X",
"*X*X*X*X*X*X*X*X*X*X*X*X*X@X@X+X-X).N.Y Q K S S n 4.h.x.c.c.s.i.t.e.0.9.7.>.-._ k.oX*X*X*X*X*X*X*X*X",
"*X*X*X*X*X*X*X*X*X*X*X*X*X@XOX+X=X).Y.} L L J.G A M n B B B 3.5.u.t.e.q.q.9.<.-.;.` A.&X*X*X*X*X*X*X",
"*X*X*X*X*X*X*X*X*X*X*X%X%XOXOXOX-X).Y.J L L K.H.G v < > > & & , ,.5.r.t.e.e.9.<.:.&.f ` `.*X*X*X*X%X",
"*X*X*X*X*X*X*X*X*X*X*X%X+X+XOXOX-X:X{.F.g.f._ V f u * 7 9 0 3 % , u 3.p.r.t.e.7.<.:.&.t j.*X*X*X*X*X",
"*X*X*X*X*X*X*X*X*X@X@XOXOXOXOXOX-X;X[.Z.f.d.V V B p * 6 9 d g 3 % @ * i 3.y.r.9.7.>.=.y j.@X*X*X*X*X",
"*X*X*X*X*X*X*X*X*X@XOXOXOXOXOXOX$X).A.} L H G G D v < 7 q w 8 2 # X o O p f 5.u.r.6.:.y j.`.*X*X*X*X",
"*X*X*X*X*X*X*X*X@X+XOXOXOXOXOXOX-XU.I.} K.H.H.D F A m c < % @ . o ; : : ; p 2.p.u.6.:.y k.^.@X%X*X*X",
"*X*X*X*X*X*X@X@XOX+XOXOXOXOXOXOX-X_.I.} K.J.D H.F H.F m c < : : : : z < : p Z p.u.6.>.&.C O.$X%X*X*X",
"*X*X*X*X*X*X@X+XOXOXOXOXOXOXOXOX-X_.I.} L J.H.H.H.A A v v x x z x x x z ; i s 8.w.w.<.=.y d !.*X*X*X",
"*X*X*X*X*X@XOXOXOXOXOXOXOXOXOXOX-XU.I.b b > c < : : ; ; + + + + + + + >  .| O.5.1.>.&.e ) S.*X*X*X*X",
"*X*X*X*X@XOXOXOXOXOXOXOXOXOXOXOXOXOX=X_._._.].U.#.P 1 % # # # # o # E U.'.#X~.{ k d l M.+X%X*X*X*X*X",
"*X*X*X@X+XOXOXOXOXOXOXOXOXOXOXOXOXOXOXOX-X#XOXOX#XOXOXOXb.T b.k 5 g U.+XOXOX+X#X$X#X$XOX+XOX%X*X*X%X",
"*X@X*X+XOXOXOXOXOXOXOXOXOXOXOXOXOXOXOXOXOXOXOXOXOXOXOXOXOXOXOXOXOX+X+X+XOXOXOXOX#X#XOXOXOXOXOX%X%X%X",
"*X@X+XOXOXOXOXOXOXOXOXOXOXOXOXOXOXOXOXOXOXOXOXOXOXOXOXOXOXOXOXOX+X+X+X+XOXOXOXOXOXOXOXOXOXOXOX+X@X-X",
"@X@XOXOXOXOXOXOXOXOXOXOXOXOXOXOXOXOXOXOXOXOXOXOXOXOXOXOXOXOXOXOXOXOXOXOXOXOXOXOXOXOXOXOXOXOXOXOXOX+X",
"OXOXOXOXOXOXOXOXOXOXOXOXOXOXOXOXOXOXOXOXOXOXOXOXOXOXOXOXOXOXOXOXOXOXOXOXOXOXOXOXOXOXOXOXOXOXOXOXOX+X"
};
