/* XPM */
static char *result[] = {
/* columns rows colors chars-per-pixel */
"50 50 205 2 ",
"   c #060606",
".  c #0A000D",
"X  c #0B0A0B",
"o  c #16090C",
"O  c #0F100E",
"+  c #0E0914",
"@  c #12011D",
"#  c #141414",
"$  c #171917",
"%  c #1B1518",
"&  c #1A1A1A",
"*  c #25020A",
"=  c #37010F",
"-  c #2E0B19",
";  c #261417",
":  c #1F211F",
">  c #22360A",
",  c #22251E",
"<  c #190625",
"1  c #1F1E20",
"2  c #20062C",
"3  c #241723",
"4  c #3A132A",
"5  c #260538",
"6  c #361531",
"7  c #232323",
"8  c #282927",
"9  c #2E2E2E",
"0  c #302B2A",
"q  c #2E342E",
"w  c #2F2F30",
"e  c #332935",
"r  c #333433",
"t  c #373838",
"y  c #3C3C3B",
"u  c #480216",
"i  c #4D011A",
"p  c #55011A",
"a  c #62011F",
"s  c #441A27",
"d  c #690523",
"f  c #770327",
"g  c #6B102A",
"h  c #6A1B31",
"j  c #552633",
"k  c #573E3F",
"l  c #652438",
"z  c #71293F",
"x  c #364512",
"c  c #3A4B28",
"v  c #3D423C",
"b  c #587B03",
"n  c #44482E",
"m  c #47493B",
"M  c #62403C",
"N  c #2C0443",
"B  c #2D0546",
"V  c #31044B",
"C  c #390657",
"Z  c #4E1B4E",
"A  c #440E5E",
"S  c #443B43",
"D  c #6C2B44",
"F  c #7D2B45",
"G  c #643241",
"H  c #450A65",
"J  c #581A6A",
"K  c #510E74",
"L  c #5B147C",
"P  c #5C3565",
"I  c #62206E",
"U  c #672C71",
"Y  c #444443",
"T  c #424A43",
"R  c #4C4C4B",
"E  c #4A534A",
"W  c #4D544C",
"Q  c #53564A",
"!  c #534B52",
"~  c #535453",
"^  c #585757",
"/  c #545A54",
"(  c #5C5C5C",
")  c #794449",
"_  c #61545E",
"`  c #765256",
"'  c #556155",
"]  c #596258",
"[  c #5D695C",
"{  c #6B6556",
"}  c #61685D",
"|  c #625C61",
" . c #5E6D60",
".. c #626262",
"X. c #626D63",
"o. c #6D6A6A",
"O. c #766863",
"+. c #667265",
"@. c #687668",
"#. c #6C796A",
"$. c #747D6C",
"%. c #796876",
"&. c #797974",
"*. c #85022C",
"=. c #8C002D",
"-. c #93012E",
";. c #9C0031",
":. c #831437",
">. c #A70134",
",. c #B30038",
"<. c #B90039",
"1. c #C3013D",
"2. c #CB003F",
"3. c #8D3651",
"4. c #883857",
"5. c #BB325E",
"6. c #CD0242",
"7. c #D40043",
"8. c #DB0044",
"9. c #CD114E",
"0. c #E60048",
"q. c #F4004D",
"w. c #FB004F",
"e. c #FD0150",
"r. c #FC0B59",
"t. c #F6175E",
"y. c #FC125D",
"u. c #CD225A",
"i. c #D92D64",
"p. c #C73866",
"a. c #F92166",
"s. c #F8296B",
"d. c #FA3774",
"f. c #995F48",
"g. c #814A51",
"h. c #9B6853",
"j. c #927155",
"k. c #9E4361",
"l. c #BD5471",
"z. c #81727E",
"x. c #C0476E",
"c. c #C94F76",
"v. c #DE4778",
"b. c #CA5379",
"n. c #E7497C",
"m. c #F6477E",
"M. c #7D8C36",
"N. c #71816E",
"B. c #758573",
"V. c #7B8C7B",
"C. c #7E917E",
"Z. c #8D9F2E",
"A. c #A6C61A",
"S. c #838D54",
"D. c #B18C50",
"F. c #91A64F",
"G. c #90886E",
"H. c #84947F",
"J. c #A9A56E",
"K. c #C9E263",
"L. c #6C1E89",
"P. c #6F2087",
"I. c #74238A",
"U. c #91798E",
"Y. c #839682",
"T. c #889A84",
"R. c #928E90",
"E. c #8CA48C",
"W. c #94A68A",
"Q. c #9BA795",
"!. c #93AD93",
"~. c #95B396",
"^. c #99B596",
"/. c #96BB97",
"(. c #96B498",
"). c #9AB69A",
"_. c #9CBC9B",
"`. c #A5B58E",
"'. c #A1BB9B",
"]. c #AD96A9",
"[. c #B394AD",
"{. c #B2B2B2",
"}. c #94C596",
"|. c #96C897",
" X c #9BCA97",
".X c #96C599",
"XX c #9BC59D",
"oX c #9ECB99",
"OX c #A3C39E",
"+X c #A0CC99",
"@X c #BECF96",
"#X c #9FC5A1",
"$X c #9CC9A0",
"%X c #A5C5A2",
"&X c #A8C7A2",
"*X c #A6CEA1",
"=X c #A9CCA2",
"-X c #CAD98D",
";X c #D4D9BD",
":X c #EDFCAF",
">X c #C7A8C2",
",X c #DAAFD3",
"<X c #E4B9DD",
"1X c #E7BBE0",
"2X c #D3D6CB",
/* pixels */
"|.}.}.}.}.}.}.}.}.}.}.}.}.}.}.}.}.}.}.}.}.}.}.}.}.}.}.}.}.}.}.}.}.}.}.}.}.}.}.}.}.}.}.}.}.}.}.}.}.|.",
"oX|.}.}.}.}.}.}.}.}.}.}.}.}.}.}.}.}.}.}.}./.}.}.}.}.}.}.}.}.}.}.}.}.}.}.}.}.}.}.}.}.}.}.}.}.}.}.|.oX",
"+X+X|.}.}.}.}.}.}.}.}.}.}.}.}.}.}.}.}.}.}.}.}.}.}.}.}.}.}.}.}.}.}.}.}.}.}.}.}.}.}.}.}.}.}.}..X XoX+X",
"+XoXoX|.}.}.}.}.}.}.}.}.}.}.}.}.}.}.}.}.}.}.}.}.}.}.}.}.}.}.}.}.}.}.}.}.}.}.}.}.}.}.}.}.}.}.|.oX+X+X",
"+X+X+XoX|.}.}.}.}.}.}.}.}.}.}.}.}.}.}.}.}.}.}.}.}.}.}.}.}.}.}.}.}.}.}.}.}.}.}.}.}.}.}.}.}..XoX+X+X+X",
"+X+X+X+X X}.}.}.}.}.}.}.}.}.}.}.}.}.}.}.}.}.}.}.}.}.}.}.}.}.}.}.}.}.}.}.}.}.}.}.}.}.}.}.|.oX+X+X+X+X",
"+X+X+X+X+XoX}.}.}.}.}.}.}.}.}.}.}.}.}.}.}.}.}.}.}.}.}.}.}.}.}.}.}.}.}.}.}.}.}.}.}.}.}.}.oX+X+X+X+X+X",
"+X+X+X+X+X+X+X}.}.}.}.}.}.}.}.}.}.}.}.}.}.}.}.}.$X_.E.(.#X}.}.}.}.}.}.}.}.}.}.}.}.}.}. XoX+X+X+XoX+X",
"+X+X+X+X+X+X+X+X X|.}.}.}.}.}.}.}.}.}.}.}..X}.$XE.#.W / +._.$X.X}.}.}.}.}.}.}.}.|. X+X+X+X+X+X+X+X+X",
"+X+X+X+X+X+X+X+X X|.}.}.}.}.}.}.}.}.}.$X$X$X$X~. ./ R w t Y.(.$X}.}.}.}.}.}.}.}.|.+X+X+X+X+X+X+X+X+X",
"+X+XoX+X+X+X+X+X+X+X|.}.}.}.}..X.X_.E.C.@. .[ / E ( o.! Y T  .!./.#X#X#X$XXX}.|.oXoX+X+X+X+X+X+X+X+X",
"+X+X+X+X+X+X+X+X+X+X X}.}..X(.C.#. .^ W y w : y | U.].%.! 7 & t T ' / ' V.(.$X*X+XoX+X+X+X+X+X+X+X+X",
"+X+X+X+X+X+X+X+X+X+X+X+X_.Y.X./ R R R Y y Y | z.[.>X,XU.| 9 $ X   X X # 8 m H.^.=X*X+X+X+X+X+X+X+X+X",
"+X+X X+X+X+X+X+X+X+XOXY.#.~ / ( ..( t w y | ].>X<X1X,XU._ e 1 # # X X O O # q E T._.*X+X+X+X+X+X+X+X",
"+X+X+X+X+X+X+X+XOXH.$./ ^ ( ....( R 8 9 y ( R.].[.[.].%.! w 7 & #   X O $ $ $ $ q / E.OX=X+X+X+X+X+X",
"+X+X+X+X+X+XOXH.N./ ^ ( | ..( ^ Y y w w e S ! ! ! ! ! S t 9 9 7 1 O O # $ $ & & $ & r ' E.OX*X+X+X+X",
"+X+X+X+X+X!.V.W ~ ..} ..( ^ R S t t w w w w w 9 9 9 w w w 9 w 9 7 & & $ $ $ $ & & & # & q #.%X=X+X+X",
"+X+X+X+XOXN.] / ^ ..( / R y t r w w w w 9 9 q 9 9 9 w w w 9 9 9 9 7 1 & & & & & $ & $ $ O v Y._.+X+X",
"+X+X+X^.V./ ~ ^ ^ R v q 8 : 1 1 1 1 8 8 9 9 w 9 w w w w 9 9 9 9 9 7 7 & & & $ $ & & & $ $ & w N.=X+X",
"oX+XoXW.X.R R | ~ 8 , > c /  .o.o.( y w 8 9 w 9 w w w w 9 9 9 9 w 9 8 1 & & & & $ $ & & $ #   [ OX+X",
"+X+X+XW.X.R R } R & x b F.@X2X2X{.V.Y r 8 8 9 9 r 9 9 9 9 9 9 9 w w 7 1 & & % & & & & $ & +   [ OX+X",
"+X+XOXV.] ~ ~ ..} { M.A.K.:X;X{.%.! r 9 w w 9 w 9 9 9 9 9 r 9 9 w w 9 1 1 & $ & & % $ & $ $   [ OX+X",
"+X+X'.Q.R.B.o...{ $.S.Z.F.J.$...v r w w w w q 9 w 9 w w 9 9 9 r w w 8 1 1 $ & $ & & % & & #   [ OX+X",
"+X%X'.Q.R.z.&...( Q m n m m y t w w w w w w w w 9 9 w r 9 9 9 9 9 8 8 & & & & % $ & & $ & #   [ OX+X",
"+X+X%XV...( ( } ^ Y t w w w w w w 9 r 9 9 w 9 9 9 9 9 w 9 r 9 9 8 7 1 & & & & & & $ $ $ O q +.W.+X+X",
"+X+X+XT.X.R R | ~ Y t w w w w w 9 w w 9 9 9 w w 9 r 9 9 9 9 9 9 9 7 & & & $ $ & & & & $   E ^.+X+X+X",
"+X+X+X&X^.X./ ~ ~ ! T r q 9 9 w 9 9 9 9 w 0 w 9 9 9 9 r q r w 8 7 1 & & & & $ & $ $ # 8 +.E.+X+X+X+X",
"+X+X+X+X+XC.[ R W ( ~ k t 9 w w 9 9 9 9 r 9 r 0 9 w 9 9 9 8 8 ; & & & & $ & & $ # 7 } Y.%XoX+X+X+XoX",
"+X+X+X+X+XOX^.} ~ ~ ~ R Y t r w 9 q w w w w w w 9 9 w w 9 8 : & & & $ $ $ $ # $ ' V.OX+X+XoX+X+X+X+X",
"+X+X+X+X+X+X+X'.!.} / ~ ~ R R Y k q w 9 w w w w 9 9 8 7 7 & & & $ & & & $ O W B.OXoX+X+X+X+X+X+X+X+X",
"+X+X+X+X+X+X+X+X+X'.E.] Y 9 9 9 9 q w w w w w 9 8 3 & & & $ & & $ O X X m $.OX+X+X+X+X+X+X+X+X+X+X+X",
"+X+X+X+X+X+X+X+X+X+X+X'._.W.!.E. .T & # # # # # O X X X X X X X     r $.).oX+X+X+X+X+X+X+X+X+X+X+X+X",
"+X+X+X+X+X+X+X+X+X+X+X+X+X+X+X+X{.W.j.g.3.3.:.f d p i i i i i i i u l O.Q.+X+X+X+X+X+X+X+X+X+X+X+X+X",
"+X+X+X+X+X+X+X+X+X+X+X+X+X+X+X*X-XK.h.h.l.c.n.i.9.9.<.6.<.>.;.-.=.=.f g ) &.+X+X+X+X+X+X+X+X+X+X+X+X",
"+X+X+X+X+X+X+X+X+X+X+X+X+X+X+X^.S.{ k G D 4.b.v.m.s.r.r.q.0.8.2.1.>.;.-.d - Y. X+X+X+X+X+X+X+X+X+X+X",
"+X+X+X+X+X+X+X+X+X+X+X+XoXoX~.@.S Z U U J Z D 4.b.n.m.d.d.t.r.q.q.8.8.6.>.f ) G.OX+X+X+X+X+X+X+X+X+X",
"+X+X+X+X+X+X+X+X+X+XoX+XoX}.!.X.P I P.P.L H < 6 j j D z F 5.i.t.r.e.w.w.8.,.=.g ` H.&XoX+X+X+X+X+X+X",
"+X+X+X+X+X+X+X+X+X+X+X X|.|.!.X.P U I.I.L H < 2 8 r t 3 % s l 5.i.y.r.w.q.8.<.;.f h O.Y.+X+X+X+X+X+X",
"+X+X+X+X+X+X+X+X+XoXoX}.}.|.=X`.D.D.f.g.s B e r S Y Y 9 & o ; k.x.m.d.y.r.w.2.<.;.*.u M '.+X+X+X+X+X",
"oX+X+X+X+X+X+XoX+XoX}.}.}.|.'.W.G.h.g.G ; 8 9 q t 9 7 : & X o s D c.v.a.y.w.q.8.<.-.u k '.+X+X+XoX+X",
"oX+X+XoX+X+X+X+X X|.}.}.}.}.!.X.P I L.J < < $ : 7 1 1 + + @ @ . 4 k.p.a.y.e.e.q.2.;.u k ^.+X+X+X+X+X",
"+X+XoX+X+X+X+X|.}.}.}.}.}.}.!.X.P I L L C N < + X X X < 5 N 5 @ 4 k.p.a.y.e.0.7.,.-.u k '.+X+X+X+X+X",
"+X+X+X+X+X+XoX}.}.}.}.}..X.X!.X.e 5 A K K K C V B B V V V V N @ 4 k.p.s.y.e.7.,.;.=.f h O.T.+X+X+X+X",
"+X+X+XoX+XoX}.}.}.}.}.}.}.%XV.W 9 1 < 2 2 B A A H H C C V B N @ 4 k.5.u.9.1.>.>.;.*.a u o Q +X+X+X+X",
"oX+X+X+X|.}.}.}.}.}.}.}..XY.^ t w 9 7 : # < < < @ @ @ @ @ @ . . o s s i a f *.=.a u * 8 $.!.+X+X+X+X",
"+X+X+XoX}.}.}.}.}.}.}.}.}.#XC.E 9 : : : & #   v V.E.(.(.~.~.E.' y # O O * * = = * ; @.~.}.}.+X+X+X+X",
"oXoXoX|.}.}.}.}.}.}.}.}.}.}.$X_.(.(.(././.(.(..X}.}.}.}.}.}.}.}..X}.}..X/./.^././. X}.}.}.}. X X+X+X",
"+X X|.|.}.}.}.}.}.}.}.}.}.}.}.}.}.}.}..X.X.X}.}.}.}.}.}.}.}.}.}.}.}.}.}.}.}.}.}.}.}.}.}.}.}.}. XoXoX",
"oX|.}.}.}.}.}.}.}.}.}.}.}.}.}.}.}.}.}.}.}.}.}.}.}.}.}.}.}.}.}.}.}.}.}.}.}.}.}.}.}.}.}.}.}.}.}.}.}. X",
"}.}.}.}.}.}.}.}.}.}.}.}.}.}.}.}.}.}.}.}.}.}.}.}.}.}.}.}.}.}.}.}.}.}.}.}.}.}.}.}.}.}.}.}.}.}.}.}.}.}."
};
