/* XPM */
static char *result[] = {
/* columns rows colors chars-per-pixel */
"50 50 210 2 ",
"   c #060506",
".  c #080506",
"X  c #09060A",
"o  c #0B0B0B",
"O  c #1A070D",
"+  c #120E0F",
"@  c #0F0D11",
"#  c #180716",
"$  c #141414",
"%  c #191616",
"&  c #171917",
"*  c #1A1A1A",
"=  c #361312",
"-  c #1E211D",
";  c #242E1B",
":  c #140021",
">  c #180027",
",  c #1C052A",
"<  c #290929",
"1  c #291726",
"2  c #220135",
"3  c #29063A",
"4  c #34093C",
"5  c #2B1139",
"6  c #1B2020",
"7  c #232423",
"8  c #272A26",
"9  c #2F2F2F",
"0  c #2C322D",
"q  c #363A2F",
"w  c #322F33",
"e  c #333333",
"r  c #383437",
"t  c #363A35",
"y  c #3A3C36",
"u  c #3C3C3C",
"i  c #430417",
"p  c #57011A",
"a  c #59011A",
"s  c #63011E",
"d  c #6F3614",
"f  c #743914",
"g  c #541626",
"h  c #451331",
"j  c #660B25",
"k  c #780429",
"l  c #532A2F",
"z  c #532732",
"x  c #6E273A",
"c  c #2D5003",
"v  c #3E4333",
"b  c #414E16",
"n  c #4F443D",
"m  c #6A4236",
"M  c #766239",
"N  c #2D0145",
"B  c #2E004A",
"V  c #330549",
"C  c #3B0A56",
"Z  c #392146",
"A  c #3F0660",
"S  c #4E1857",
"D  c #551E5B",
"F  c #463A47",
"G  c #4E2A52",
"H  c #702F52",
"J  c #7B3253",
"K  c #4A0C6D",
"L  c #571566",
"P  c #551D60",
"I  c #520E76",
"U  c #530D79",
"Y  c #5B157C",
"T  c #631B7C",
"R  c #5F2365",
"E  c #6D2B6C",
"W  c #444443",
"Q  c #484B46",
"!  c #4C4C4B",
"~  c #475045",
"^  c #4D544D",
"/  c #4E5C52",
"(  c #555554",
")  c #545D54",
"_  c #595558",
"`  c #5C5C5C",
"'  c #704C4E",
"]  c #5D685C",
"[  c #6D6B5E",
"{  c #615A61",
"}  c #5D6661",
"|  c #626262",
" . c #636C61",
".. c #6A636D",
"X. c #696868",
"o. c #687666",
"O. c #6B7A6A",
"+. c #7A796C",
"@. c #746371",
"#. c #7B6C79",
"$. c #767075",
"%. c #800028",
"&. c #8C012C",
"*. c #94012F",
"=. c #880A30",
"-. c #9D0132",
";. c #A20133",
":. c #AC0135",
">. c #B70039",
",. c #C2013C",
"<. c #CB003F",
"1. c #9D6919",
"2. c #802E49",
"3. c #953856",
"4. c #A43A5D",
"5. c #B93561",
"6. c #CC0645",
"7. c #DD0045",
"8. c #C2144B",
"9. c #E50049",
"0. c #EB034E",
"q. c #F5004E",
"w. c #F9004E",
"e. c #FC0353",
"r. c #FA0C59",
"t. c #F9135D",
"y. c #D8215C",
"u. c #FC1B63",
"i. c #C63463",
"p. c #F82568",
"a. c #EF336E",
"s. c #8C505C",
"d. c #9F4064",
"f. c #807E71",
"g. c #AF6160",
"h. c #CD4E78",
"j. c #D2537C",
"k. c #EC457B",
"l. c #698804",
"z. c #718B53",
"x. c #6F816E",
"c. c #768269",
"v. c #758875",
"b. c #7A8E7A",
"n. c #7D937E",
"m. c #7D9D7E",
"M. c #8D9E37",
"N. c #B79227",
"B. c #B4D025",
"V. c #89954B",
"C. c #98A25A",
"Z. c #938B6E",
"A. c #848A75",
"S. c #859477",
"D. c #81947E",
"F. c #B29C62",
"G. c #BBD371",
"H. c #E6DB4D",
"J. c #DFF27F",
"K. c #621782",
"L. c #641983",
"P. c #752689",
"I. c #7F2992",
"U. c #877B85",
"Y. c #7E9A81",
"T. c #8C888B",
"R. c #859C84",
"E. c #869C85",
"W. c #919A85",
"Q. c #999897",
"!. c #8CA48B",
"~. c #8AAA8C",
"^. c #92AA8E",
"/. c #8EB38F",
"(. c #8FAF92",
"). c #91AD95",
"_. c #94B395",
"`. c #98B997",
"'. c #9BBA96",
"]. c #9BBD9C",
"[. c #A3BE9A",
"{. c #A48DA1",
"}. c #BA97B4",
"|. c #AEB5AA",
" X c #BCABB9",
".X c #B8B8B6",
"XX c #94C596",
"oX c #9BC195",
"OX c #96C897",
"+X c #9BCA97",
"@X c #95C498",
"#X c #9DC49B",
"$X c #9ECB99",
"%X c #A0C49A",
"&X c #A0CC99",
"*X c #9EC2A1",
"=X c #A6C4A1",
"-X c #A6CBA3",
";X c #AED2A5",
":X c #D1DC8E",
">X c #CFE293",
",X c #C2DCAE",
"<X c #DFF0AD",
"1X c #E3EFA5",
"2X c #C4A3C0",
"3X c #DEBDD9",
"4X c #E1B5DA",
"5X c #E9B9E0",
"6X c #EAC1E3",
"7X c #E3E3E0",
/* pixels */
"OXXXXXXXXXXXXXXXXXXXXXXXXXXXXXXXXXXXXXXXXXXXXXXXXXXXXXXXXXXXXXXXXXXXXXXXXXXXXXXXXXXXXXXXXXXXXXXXXXOX",
"$XOXXXXXXXXXXXXXXXXXXXXXXXXXXXXXXXXXXXXXXXXXXXXXXXXXXXXXXXXXXXXXXX@XXXXXXXXXXXXXXXXXXXXXXXXXXXXX+X$X",
"&X$XXXXXXXXXXXXXXXXXXXXXXXXXXXXXXXXXXXXXXXXXXXXXXXXXXXXXXXXXXXXXXXXXXXXXXXXXXXXXXXXXXXXXXXXXXX+X$X&X",
"&X&X&XOXXXXXXXXXXXXXXXXXXXXXXXXXXXXXXXXXXXXXXXXXXXXXXXXXXXXXXXXXXXXXXXXXXXXXXXXXXXXXXXXXXXXXXX$X$X&X",
"&X&X&X+XOXXXXXXXXXXXXXXXXXXXXXXXXXXXXXXXXXXXXXXX@X@X@X@X(._.].@X@X@XXXXXXXXXXXXXXXXXXXXXXXXX$X&X&X&X",
"&X&X&X&X$XXXXXXXXXXXXXXXXXXXXXXXXXXXXXXXXXXXXXXX@X@X@XE./ / / _.@XXXXXXXXXXXXXXXXXXXXXXX+X&X&X&X&X&X",
"&X&X&X&X&X$XXXXXXXXXXXXXXXXXXXXXXXXXXXXXXXXXXX@X@X@X).x.W e 8 !.*X@XXXXXXXXXXXXXXXXXXXXX$X&X&X&X&X&X",
"&X&X&X&X&X&X&XXXXXXXXXXXXXXXXXXXXXXXXXXXXX]./.Y.b.b.} ) ( Q r ) v.*X$XXXXXXXXXXXXXXXXX$X$X&X&X&X&X&X",
"&X&X&X&X&X&X&X&XOXOXXXXXXXXXXXXXXXXX@X`.~.v.} W t 7 r ! U.#._ 9 0 o.b.~.~./.XXXX@X#X&X&X&X&X&X&X&X&X",
"&X&X&X&X&X&X&X&X+XOXXXXXXXXXXXXXXXXXb.] u ! ^ W u 9 _ #.}.{.@.w $ $ $ - - t v._.-X&X&X&X&X&X&X&X&X&X",
"&X&X&X&X&X&X&X&X&X&XOXXXXXXXXX@X~.x.! ( ` ( W e W ` {.2X4X}.@.w & @ o o @ $ - / !.-X&X&X&X&X&X&X&X&X",
"&X&X&X&X&X&X&X&X&X&X+XOX@X@X@Xn.` ! ` } | u 9 u .. X3X6X5X}.@.r - & @ o @ @ & & - R.[.&X&X&X&X&X&X&X",
"&X&X&X&X&X&X&X&X&X&X&X&X+X~.O.W ( } | | | r 8 u .. X4X6X4X}...w 1 & $ X o @ & % % * ~ '.-X&X&X&X&X&X",
"&X+X&X&X&X&X&X&X&X&X&X&Xm.n ^ { | | | _ W e 9 e t n W F F F r 9 8 7 & o o @ & * & & & 7 O.].&X&X&X&X",
"&X&X&X&X&X&X&X&X&X&X'.o.Q ` ] | | ` ! u e 9 e 9 9 9 9 9 9 w 9 9 9 9 7 - * & * & * * * % * 8 ~.-X&X+X",
"&X&X&X&X&X&X&X&X&X&Xn.^ W ` | | ! W e e 9 9 9 9 9 9 9 9 9 9 9 9 9 e 8 7 * * * * & * & * $ o E.=X&X&X",
"&X&X&X&X&X&X&X&X&XD.! ( ` | _ ~ u e 9 9 9 9 9 9 9 9 w 9 9 9 9 9 9 9 8 7 & * * & * & * * & & 8 ) &X&X",
"&X&X&X&X&X&X&X&X/. .u ` ` q 8 + o X o X X * 8 9 9 9 9 9 9 9 9 9 9 9 w 9 7 6 * * * * * & * * @ v '.&X",
"&X&X&X&X&X&X&X&Xn. .t ( _ 8 ; c z./.|..X.XX.W 8 8 9 9 9 9 9 9 w 9 9 9 9 7 - & & & * * * * & o t '.&X",
"&X&X&X&X&X&X&X-XD. .n _ _ 8 b l.G.<X7X3XQ.! w 8 9 9 9 9 9 9 9 9 9 e 9 9 7 1 * * * * * & * & o t '.&X",
"&X&X&X&X&X&X&X'. .) ( ` [ o.V.B.J.1X.XT.^ t 8 w 9 9 9 9 9 9 9 9 9 9 9 9 8 1 * * * & % * * * o t `.&X",
"&X&X&X&X&X&X&X[.Q.T.$.X. .+.V.M.C.C.X.! e 9 9 9 e 9 9 9 w 9 9 9 w 9 9 9 7 * * * * * * & % * o t '.&X",
"&X&X$X&X&X&X&X=X|.Q.T.X.` ! n q v t e e 9 9 9 9 9 9 9 w 9 9 e 9 9 9 9 8 - - & * * * % * * * o e '.&X",
"&X&X&X&X&X&X&XoXO.) | | ] W t 9 w w w 0 9 9 9 e 9 9 9 9 9 9 9 9 9 e 8 7 * * * * & * * * & $ 0 ] %X&X",
"&X&X&X&X&X&X&X&XR. .n _ ` W u 9 9 e 9 9 9 9 9 9 9 9 9 9 9 9 9 9 9 9 8 1 * * & * * % * * $ X D.%X&X&X",
"&X&X&X&X&X&X&X&X$Xx.W ) } W u 9 9 9 9 9 9 9 9 9 9 9 9 9 e 9 9 9 9 0 8 7 * & * * * * * % $ X E.&X&X&X",
"&X&X&X&X&X&X$X&X&X%Xv.^ W { ( W e 9 9 9 9 9 9 w 9 9 9 9 w 9 9 9 9 7 * * * & * & * * $ o ) _.&X$X&X&X",
"&X&X&X&X&X&X&X&X&X&XoXo.^ | ( W r 9 9 9 9 w 9 9 9 e 9 9 9 9 9 8 7 * * * * * * * * o q !.&X&X&X&X&X&X",
"&X&X&X&X&X&X&X&X&X&X&X%Xc.^ ! ` Q Z q 0 w 9 9 9 9 9 9 0 9 9 9 7 - * * * * * % $ o b.oX&X&X&X&X&X&X&X",
"&X$X&X&X&X&X&X&X&X&X&X&X&XD.] W ( ` ` / v e 9 9 9 w 9 0 7 7 * * * * * * * % o ^ !.&X&X&X&X&X&X&X&X&X",
"&X&X&X&X&X&X&X&X&X&X&X&X&X&X#XO.e * & * 8 9 9 9 9 9 8 1 * * * * % % $ o   8 R.&X&X&X&X&X&X&X&X&X&X&X",
"&X&X&X&X&X&X&X&X&X&X&X&X&X&X&X&X=X[.*X~.] 8 + + + + o o X . . X .       o.^.&X&X&X&X&X&X&X&X&X&X&X&X",
"&X&X&X&X&X&X&X&X&X&X&X&X&X&X&X&X+XXXXX-X%XZ.s.d.2.-.k j a a a p p p p p ' c.&X&X&X&X&X&X&X&X&X&X&X&X",
"&X&X&X&X&X&X&X&X&X&X&X&X&X&X+X+XXXXXXX;X>XF.g.g.h.k.y.y.,.,.,.:.-.&.&.&.k x +.&X&X&X&X&X&X&X&X&X&X&X",
"&X&X&X&X&X&X&X&X&X&X&X&X&X+X+X+X@XXX=X'.C.M m H d.j.k.a.t.r.q.7.6.,.:.;.*.%.i f.&X&X&X&X&X&X&X&X&X&X",
"&X&X&X&X&X&X&X&X&X&X&X&X&X+XXXOX@X#XR. .1 D E S G J h.k.a.p.u.r.e.w.9.<.>.;.s ' W.&X&X&X&X&X&X&X&X&X",
"&X&X&X&X&X&X&X&X&X&X&X$X+XXXXXXXXX#XY.{ S P.P.K.P 4 J d.h.j.j.a.p.e.e.w.w.9.:.=.g W.&X&X&X&X&X&X&X&X",
"&X&X&X&X&X&X&X&X&X&X&X+X+XXXXXXX@X*XY...P L.L.Y I K V 1 # O O H 4.p.u.e.e.q.,.:.&.g ' %X&X&X$X&X&X&X",
"&X&X+X&X&X&X&X&X&X+X+XOXXXXXXXXX@X$XD.X.D P.I.L.T I N 1 t 0 7 @ = 3.i.p.e.e.q.7.>.-.k z A.&X&X&X+X&X",
"&X&X&X&X&X&X&X&X&X+XXXXXXXXXXXXX@X$X,X:XH.N.1.f d d = = y l W 8 * $ z 4.a.t.e.9.>.-.%.i [ &X&X&X&X&X",
"&X&X&X&X&X&X&X&X$XOXXXXXXXXXXXXXXX*XY.$.{ E E L L L 3 1 v Z W 8 * X X O 2.5.u.u.q.6.-.= f.%X&X&X&X&X",
"&X&X&X&X&X&X+X+XOXOXXXXXXXXXXXXXXX@XY...P T L.U I I N 5 W u r 7 &   # : < h 3.i.u.6.-.i A.%X&X&X&X&X",
"&X&X&X&X&X&X+XOXXXXXXXXXXXXXXXXXXXXXY...P Y L.U I U K C 5 * o   X > , N > < 3.i.p.6.;.i A.&X&X&X&X&X",
"&X&X&X&X&X+XXXXXXXXXXXXXXXXXXXXXXX/.Y...P T L.U U U U K V N 2 2 2 3 N B , < s.i.p.6.>.k ' S.&X&X&X&X",
"&X&X&X&XOXXXXXXXXXXXXXXXXXXXXXXXXXXXY.X.R P.P.K.Y K K A V B B N B N N B > < =.8.r.0.,.k x v $X$X&X&X",
"&X&X&X&XXXXXXXXXXXXXXXXXXXXXXXXXXXXXOXx.Z Z G Z N 5 , > : : : : : : : : { O.s.3.<.:.&.l O.XX$X&X&X$X",
"&X+X+XOXXXXXXXXXXXXXXXXXXXXXXXXXXXXXXXOXOX/.~.~.Y./ 0 6 - * 8 8 @   0 Y.OXXX/.c.j g n D.XXXXOX$X$X$X",
"&X+XOXOXXXXXXXXXXXXXXXXXXXXXXXXXXXXXXXOXOXOX@XXXXX@X@X@XXXXXOXXXXX@XXXXXXXOXOXXXOXXXXXXXXXXXOXOX$X$X",
"+X+XXXXXXXXXXXXXXXXXXXXXXXXXXXXXXXXXXXXXXXXXXXXXXXXXXXXXXXXXXXXXXXXXXXXXXXXXXXXXXXXXXXXXXXXXXXXXXX+X",
"XXXXXXXXXXXXXXXXXXXXXXXXXXXXXXXXXXXXXXXXXXXXXXXXXXXXXXXXXXXXXXXXXXXXXXXXXXXXXXXXXXXXXXXXXXXXXXXXXXXX"
};
