/* XPM */
static char *result[] = {
/* columns rows colors chars-per-pixel */
"50 50 206 2 ",
"   c #090409",
".  c #0D0B0B",
"X  c #120C0F",
"o  c #0E0215",
"O  c #130717",
"+  c #1B0E12",
"@  c #151514",
"#  c #181215",
"$  c #171917",
"%  c #191917",
"&  c #1A1A1A",
"*  c #280611",
"=  c #300512",
"-  c #2C1313",
";  c #1E2A10",
":  c #1F211D",
">  c #2B3F06",
",  c #20221F",
"<  c #160126",
"1  c #1C0C23",
"2  c #1A0129",
"3  c #1E0030",
"4  c #231828",
"5  c #341524",
"6  c #270636",
"7  c #35133A",
"8  c #242424",
"9  c #272727",
"0  c #282A27",
"q  c #2F262B",
"w  c #2E2E2E",
"e  c #2F322E",
"r  c #31322F",
"t  c #393C2E",
"y  c #2F3030",
"u  c #333332",
"i  c #3B3A37",
"p  c #3B3B3A",
"a  c #490217",
"s  c #53011A",
"d  c #5B021D",
"f  c #41101B",
"g  c #61011E",
"h  c #452115",
"j  c #520B22",
"k  c #511A33",
"l  c #650422",
"z  c #770429",
"x  c #64132A",
"c  c #761733",
"v  c #522C30",
"b  c #662738",
"n  c #354136",
"m  c #3C423C",
"M  c #4E650A",
"N  c #434939",
"B  c #4D5334",
"V  c #785F2F",
"C  c #2D0A42",
"Z  c #2D0148",
"A  c #3D0E48",
"S  c #3C1541",
"D  c #340254",
"F  c #3C055C",
"G  c #3F0B5E",
"H  c #342046",
"J  c #410B5F",
"K  c #411057",
"L  c #4E1355",
"P  c #5D2140",
"I  c #573844",
"U  c #652645",
"Y  c #72364A",
"T  c #6D3052",
"R  c #440B62",
"E  c #480A6B",
"W  c #571564",
"Q  c #5A1869",
"!  c #4D0C71",
"~  c #520E76",
"^  c #520C79",
"/  c #59137B",
"(  c #641E68",
")  c #641A7D",
"_  c #662662",
"`  c #6D2679",
"'  c #444444",
"]  c #444C44",
"[  c #4F454C",
"{  c #4B4B4B",
"}  c #524A44",
"|  c #4B544B",
" . c #4A5848",
".. c #52544C",
"X. c #524F52",
"o. c #545454",
"O. c #585757",
"+. c #535953",
"@. c #575B58",
"#. c #5C5C5B",
"$. c #744B51",
"%. c #6D5A57",
"&. c #655459",
"*. c #4F6050",
"=. c #576758",
"-. c #5B635A",
";. c #6B6C4F",
":. c #695B66",
">. c #5F6760",
",. c #626262",
"<. c #636B63",
"1. c #6C6867",
"2. c #766A63",
"3. c #667666",
"4. c #6B776A",
"5. c #6B7C6B",
"6. c #787566",
"7. c #746372",
"8. c #7B727A",
"9. c #830029",
"0. c #8B012C",
"q. c #93002E",
"w. c #98012F",
"e. c #A80135",
"r. c #BC013B",
"t. c #C6013E",
"y. c #8C2445",
"u. c #893556",
"i. c #A53056",
"p. c #813974",
"a. c #D10445",
"s. c #EC0952",
"d. c #D7235C",
"f. c #EE2665",
"g. c #814044",
"h. c #8C4C57",
"j. c #9B5C54",
"k. c #897355",
"l. c #AB734B",
"z. c #B54569",
"x. c #E14C7C",
"c. c #F04B7E",
"v. c #7D8D49",
"b. c #6A896F",
"n. c #728372",
"m. c #7A8D7B",
"M. c #729074",
"N. c #7B937C",
"B. c #A7BB3E",
"V. c #908B4D",
"C. c #B39F48",
"Z. c #868676",
"A. c #8E9C70",
"S. c #BDDE5B",
"D. c #DFF863",
"F. c #6A1C86",
"G. c #77258B",
"H. c #75258C",
"J. c #92788E",
"K. c #987B92",
"L. c #7F9681",
"P. c #7EA581",
"I. c #898288",
"U. c #849B85",
"Y. c #899C89",
"T. c #948A93",
"R. c #9F9F9F",
"E. c #86A684",
"W. c #89A28A",
"Q. c #8CAB89",
"!. c #93A88D",
"~. c #87B18A",
"^. c #8BB18C",
"/. c #95B58D",
"(. c #90A992",
"). c #8EBD91",
"_. c #96B392",
"`. c #99B292",
"'. c #91BD94",
"]. c #9CBB96",
"[. c #95B598",
"{. c #9ABD9D",
"}. c #A0A99C",
"|. c #A4B899",
" X c #AE8FA9",
".X c #AE91A8",
"XX c #B396AE",
"oX c #B1B2AE",
"OX c #94C596",
"+X c #9DC496",
"@X c #96C897",
"#X c #9AC997",
"$X c #95C499",
"%X c #9CC39B",
"&X c #9ECB99",
"*X c #A0C799",
"=X c #A0CC99",
"-X c #BAD69F",
";X c #A5C9A3",
":X c #D7E0AC",
">X c #E1EDBE",
",X c #CBA2C3",
"<X c #DBB0D4",
"1X c #E7BCE0",
"2X c #DEDFDA",
"3X c #E7C4E1",
/* pixels */
"@XOXOXOXOXOXOXOXOXOXOXOXOXOXOXOXOXOXOXOXOXOXOXOXOXOXOXOXOXOXOXOXOXOXOXOXOXOXOXOXOXOXOXOXOXOXOXOXOXOX",
"&X@XOXOXOXOXOXOXOXOXOXOXOXOXOXOXOXOXOXOXOXOXOXOXOXOXOXOXOXOXOXOXOXOXOXOXOXOXOXOXOXOXOXOXOXOXOXOX@X&X",
"&X&X@XOXOXOXOXOXOXOXOXOXOXOXOXOX$X$XOX).OX$XOXOXOXOXOXOXOXOXOXOXOXOXOXOXOXOXOXOXOXOXOXOXOXOX$X#X&X=X",
"=X=X&X@XOXOXOXOXOXOXOXOXOXOXOXOX$X~.3.*.5.$XOXOXOXOXOXOXOXOXOXOXOXOXOXOXOXOXOXOXOXOXOXOXOXOX@X&X=X=X",
"=X=X&X&X@XOXOXOXOXOXOXOXOXOXOXOX$X3.| H =.E.{.OXOX$XOXOXOXOXOXOXOXOXOXOXOXOXOXOXOXOXOXOXOX@X&X=X=X=X",
"=X=X=X=X&XOXOXOXOXOXOXOXOXOX$X$XP.m X.o.@.-.n.M.L.{.OXOXOXOXOXOXOXOXOXOXOXOXOXOXOXOXOXOX@X&X=X=X=X=X",
"=X=X=X=X=X&XOXOXOXOXOXOX$XE.L.=.m 8 7.8.1.y y N X.5.N.{.OXOXOXOXOXOXOXOXOXOXOXOXOXOXOXOX&X=X=X=X=X=X",
"=X=X=X=X=X=X=XOXOXOXOXOX=.0 $ @ @ 8 J. X.X:.u H { X.] <.Y.OXOXOXOXOXOXOXOXOXOXOXOXOXOX#X=X=X=X=X=X=X",
"=X=X=X=X=X=X=X&X@X@X~.+.: X . . $ 9 K.,X<X,X1.' p { #.o.>.m.$X$XOXOXOXOXOXOXOXOXOX#X=X=X=X=X=X=X=X=X",
"=X=X=X=X=X=X=X=X&X^.m : @ . . @ 1 9 K.,X1X3XT.{ w m ,.#.#.@.L.{.OX$XOXOXOXOXOXOX@X=X=X=X=X=X=X=X=X=X",
"=X=X=X=X=X=X&X&X=Xm : & $   . $ , w 7.K. XXX8.I w p #.>.#.#.-.Y.$X$XOXOXOXOXOXOX&X=X=X=X=X=X=X=X=X=X",
"=X=X=X=X=X=X=X&X .: & & $ . @ & 8 y I #.:.>.X.p w u { #.,.>.@.>.L.$XOX$XOXOX@X&X=X=X=X=X=X=X=X=X=X=X",
"=X=X=X=X=X&X&X .& & $ & $ @ & 8 w w y u u u u u y w p X.O.,.,.o.-.5.$X$XOX#X=X=X=X=X=X=X=X=X=X=X=X=X",
"=X=X=X=X=X=XN @ $ & $ & $ $ 8 w y y y y w y u u w w y p ' #.,.,.{ ' $X$X@X=X=X=X=X=X=X=X=X=X=X=X=X=X",
"=X=X=X=X=X=., @ & & $ & & & 8 w w y y w w w w w w y w y u ' O.,.O.{ 5.@X&X&X=X=X=X=X=X=X=X=X=X=X=X=X",
"=X=X=X=X/.8 % % & & & & & : 9 w y w y w w w w w w 8 & & & & w ' O.O.N &X=X=X=X=X=X=X=X=X=X=X=X=X=X=X",
"=X=X=X=XE.$ @ & & $ & % & 8 w w w w y w w y w q w { ,.,.-.n > n X.#.w ].&X&X=X=X=X=X=X=X=X=X=X=X=X=X",
"=X=X=X=XE.@ @ & & & & % & 9 w w w y y w y w w 9 w #.R.oX|.V.> t { ,.9 _.=X=X=X=X=X=X=X=X=X=X=X=X=X=X",
"=X=X=X=XE.$ # & & & & & & 9 w w y w w y y y w q w ' oX2X>XS.M N ..#.e !.=X=X=X=X=X=X=X=X=X=X=X=X=X=X",
"=X=X=X=X^.$ # % $ & & & & 9 w w w w y w y w w w w 9 #.oX:XD.B.v.3.&.{ 4.=X=X=X=X=X=X=X=X=X=X=X=X=X=X",
"=X=X=X=XOX$ @ % & & # & & 9 w w y w y w w y w y w w p &.6.V.v.;.<.1.T.}.=X=X=X=X=X=X=X=X=X=X=X=X=X=X",
"=X=X=X=X&X@ @ % & & & & & : w w y w w y y w y w w e e i n N N ] #.,.I.!.=X=X=X=X=X=X=X=X=X=X=X=X=X=X",
"=X=X=X=X&X{ , $ & $ & & & & 8 w w y w w y y y w y w w u r r r ] O.,.O.Q.=X=X=X=X=X=X=X=X=X=X=X=X=X=X",
"=X=X=X=X&X5.9 X & & & & & & 8 9 y w w y y y w y y y w w w w r ' +.:.i &X=X=X=X=X=X=X=X=X=X=X=X=X=X=X",
"=X=X=X=X=X=Xm & $ # & & & $ 9 w u w w u w y y w y w y w y w u [ O.#. .=X=X=X=X=X=X=X=X=X=X=X=X=X=X=X",
"=X=X=X=X=X=X=Xn @ & & & & & & 9 0 w w w y w w y w y w w w u ' o...' _.=X=X=X=X=X=X=X=X=X=X=X=X=X=X=X",
"=X=X=X=X=X=X=X*X| $ % % & & & & 4 w y w w y w w y y w y e r { #.} n =X=X=X=X=X=X=X=X=X=X=X=X=X=X=X=X",
"=X=X=X=X=X=X=X=X=X .: @ & $ % % & 0 w y w w r w w w y w u ' @.[ =.=X=X=X=X=X=X=X=X=X=X=X=X=X=X=X=X=X",
"=X=X=X=X=X=X=X=X=X*X=.e @ % % % & 8 8 0 w w e w w u p ' { o.' 3.#X=X=X=X=X=X=X=X=X=X=X=X=X=X=X=X=X=X",
"=X=X=X=X=X=X=X=X=X=X`.4.r @ @ @ % & : 8 8 w w w w u u u p ' <.=X=X=X=X=X=X=X=X=X=X=X=X=X=X=X=X=X=X=X",
"=X=X=X=X=X=X=X=X=X=X=X`.3.: X @ @ # # & & 8 9 9 9 9 ' | | +.'.&X=X=X=X=X=X=X=X=X=X=X=X=X=X=X=X=X=X=X",
"=X=X=X=X=X=X=X=X=X=X=X=X%X+.#   . .   . X # # # # & n.(.[.'.OX@X=X=X=X=X=X=X=X=X=X=X=X=X=X=X=X=X=X=X",
"=X=X=X=X=X=X=X=X=X=X=X=X`.$.s a s s s s d z y.u.h.k.;X;XOXOXOXOXOX&X&X&X=X=X=X=X=X=X=X=X=X=X=X=X=X=X",
"=X=X=X=X=X=X=X=X=X=X=X/.$.z 9.0.w.e.t.t.t.d.x.z.j.C.-X%XOXOXOXOXOX@X&X=X&X=X=X=X=X=X=X=X=X=X=X=X=X=X",
"=X=X=X=X=X=X=X=X=X=X*X2.x 0.e.r.t.a.s.f.f.c.z.u.Y V A.*XOXOXOXOXOXOX@X&X=X=X=X=X=X=X=X=X=X=X=X=X=X=X",
"=X=X=X=X=X=X=X=X=X=XZ.Y z q.q.q.w.w.e.e.i.i.T _ _ T } m.$XOXOXOXOXOXOX@X=X=X&X=X=X=X=X=X=X=X=X=X=X=X",
"=X=X=X=X=X=X=X=X=X!.$.c z 9.g d s s s j k k L Q ) ` 7 ' n.+XOXOXOXOXOXOX@X&X=X=X=X=X=X=X=X=X=X=X=X=X",
"=X=X=X=X=X=X=X=X|.$.c 9.0.d = + + + @ X O 6 J / F.H.7 q ] E.OXOXOXOXOXOXOX@X&X=X=X=X=X=X=X=X=X=X=X=X",
"=X=X=X=X=X=X=X`.$.z 0.z s * + & , 8 + + 6 J ~ ) F.G.K q r 5.$X@XOXOXOXOXOXOXOX&X=X=X=X=X=X=X=X=X=X=X",
"=X=X=X=X=X=X=X2.l q.l a * # & 8 0 , - h v b b U g.l.V.;.N ] P.@XOXOXOXOXOXOXOXOX&X=X=X=X=X=X=X=X=X=X",
"=X=X=X=X=X=X&X%.d 0.s * X $ 8 9 w @ 5 k P P U U Y j.k.B m n ).OXOXOXOXOXOXOXOXOX@X&X=X=X=X=X=X=X=X=X",
"=X=X=X=X=X&X+X%.g 0.a + X % 8 8 9 1 A L W Q W Q ( p.I q ; 3.OXOXOXOXOXOXOXOXOXOXOXOX=X=X=X=X=X=X=X=X",
"=X=X=X=X=X&X].%.g z b v 0 X & 4 4 Z R ! ^ ^ ^ ^ / G.S p $X@XOXOXOXOXOXOXOXOXOXOXOXOXOX=X=X=X=X=X=X=X",
"=X=X=X=X=X&X/.$.g d 6.4.| . X 4 C G ! ! ^ ^ ^ ^ ) F.7 <.OXOXOXOXOXOXOXOXOXOXOXOXOXOXOXOX#X=X=X=X=X=X",
"=X=X=X=X#X@X6.b z = Y.U.4.o 2 Z F J F E ! ^ ^ ^ ! K O (.OXOXOXOXOXOXOXOXOXOXOXOXOXOXOXOX#X#X=X=X=X=X",
"=X=X=X&XOXOX..5 f - W.W.5.o 3 Z D D D D F ! ! G C o b.$XOXOXOXOXOXOXOXOXOXOXOXOXOXOXOXOXOX@X=X=X=X=X",
"=X&X&XOXOXOXOX$X$X$X).N.m   o < < < < 2 2 3 H @.b.).@XOXOXOXOXOXOXOXOXOXOXOXOXOXOXOXOXOXOXOX@X&X=X=X",
"=X#X@XOXOXOXOXOX@X$XOXP.n @ n M.~.OX$X$X$X$X$X@X$XOXOXOXOXOXOXOXOXOXOXOXOXOXOXOXOXOXOXOXOXOXOX@X=X#X",
"#X@XOXOXOXOXOXOXOXOXOXOXOXOXOXOXOXOXOXOXOXOXOXOXOXOXOXOXOXOXOXOXOXOXOXOXOXOXOXOXOXOXOXOXOXOXOXOXOX@X",
"OXOXOXOXOXOXOXOXOXOXOXOXOXOXOXOXOXOXOXOXOXOXOXOXOXOXOXOXOXOXOXOXOXOXOXOXOXOXOXOXOXOXOXOXOXOXOXOXOXOX"
};
