/* XPM */
static char *result[] = {
/* columns rows colors chars-per-pixel */
"50 50 226 2 ",
"   c #0D0D0D",
".  c #14060A",
"X  c #19090E",
"o  c #17091A",
"O  c #151515",
"+  c #1A1517",
"@  c #171917",
"#  c #1A1A1A",
"$  c #230D19",
"%  c #27191D",
"&  c #1E211D",
"*  c #23261F",
"=  c #1A0128",
"-  c #1F1128",
";  c #1F0033",
":  c #271A28",
">  c #39102D",
",  c #280333",
"<  c #26003B",
"1  c #271833",
"2  c #361A39",
"3  c #1F2420",
"4  c #242424",
"5  c #252A24",
"6  c #292827",
"7  c #2E2E2E",
"8  c #33282C",
"9  c #273026",
"0  c #2B332B",
"q  c #30342F",
"w  c #2F2932",
"e  c #352734",
"r  c #333333",
"t  c #353C34",
"y  c #36353A",
"u  c #3B363B",
"i  c #3C3C3B",
"p  c #4B041A",
"a  c #53011A",
"s  c #5A021D",
"d  c #60011F",
"f  c #461D2B",
"g  c #56152B",
"h  c #470A35",
"j  c #4C173C",
"k  c #5C1132",
"l  c #660624",
"z  c #6D0122",
"x  c #7B0027",
"c  c #740528",
"v  c #6B1432",
"b  c #4E2D31",
"n  c #5A2739",
"m  c #68273F",
"M  c #63363D",
"N  c #364520",
"B  c #3D463A",
"V  c #42463D",
"C  c #4D5A33",
"Z  c #7E5A3E",
"A  c #60712B",
"S  c #2B0244",
"D  c #391646",
"F  c #3C0959",
"G  c #3C1056",
"H  c #4A1459",
"J  c #511952",
"K  c #6A1F52",
"L  c #5C2745",
"P  c #453F44",
"I  c #502B5A",
"U  c #7A2243",
"Y  c #6C3050",
"T  c #460C67",
"R  c #5A1A69",
"E  c #4D0D72",
"W  c #510E74",
"Q  c #581776",
"!  c #5A137C",
"~  c #611D6C",
"^  c #641C79",
"/  c #682A67",
"(  c #692D78",
")  c #3F4345",
"_  c #444444",
"`  c #484647",
"'  c #494947",
"]  c #4A4449",
"[  c #4B4B4B",
"{  c #564B4C",
"}  c #485647",
"|  c #55544A",
" . c #4B4E51",
".. c #574D55",
"X. c #545353",
"o. c #575659",
"O. c #5A5B5A",
"+. c #77424A",
"@. c #664853",
"#. c #735555",
"$. c #53674F",
"%. c #5C655A",
"&. c #5C7259",
"*. c #616744",
"=. c #6F794F",
"-. c #656856",
";. c #6C4E6F",
":. c #685A66",
">. c #5A6465",
",. c #676767",
"<. c #646A64",
"1. c #6D6B6D",
"2. c #697668",
"3. c #736D72",
"4. c #786B77",
"5. c #707271",
"6. c #787477",
"7. c #747973",
"8. c #820028",
"9. c #8B012C",
"0. c #94002E",
"q. c #970232",
"w. c #801D3C",
"e. c #A30033",
"r. c #AD0036",
"t. c #B5023B",
"y. c #BB003C",
"u. c #C3003E",
"i. c #9B1845",
"p. c #892647",
"a. c #87315F",
"s. c #A5254F",
"d. c #A02450",
"f. c #B12355",
"g. c #9A3765",
"h. c #A93C65",
"j. c #BC3E69",
"k. c #CD0142",
"l. c #C80C48",
"z. c #D90348",
"x. c #C6154D",
"c. c #C91A52",
"v. c #DB1858",
"b. c #E7034C",
"n. c #EF0752",
"m. c #F30A56",
"M. c #E71659",
"N. c #CA2459",
"B. c #D3245B",
"V. c #F01E61",
"C. c #DE2A63",
"Z. c #C83866",
"A. c #D5396C",
"S. c #E62764",
"D. c #E7336E",
"F. c #884E52",
"G. c #A5545A",
"H. c #8C745C",
"J. c #837370",
"K. c #81787F",
"L. c #C1416C",
"P. c #7E9244",
"I. c #6E826F",
"U. c #74866C",
"Y. c #7B8679",
"T. c #7A9978",
"R. c #879647",
"E. c #8E9A52",
"W. c #99A55C",
"Q. c #A2B354",
"!. c #8D9366",
"~. c #868775",
"^. c #809C7C",
"/. c #939E78",
"(. c #A79460",
"). c #A6BB66",
"_. c #BDCE6D",
"`. c #6F4F81",
"'. c #777283",
"]. c #877885",
"[. c #957B90",
"{. c #7D9181",
"}. c #7EA482",
"|. c #8C8C89",
" X c #849284",
".X c #899588",
"XX c #9C8E98",
"oX c #999F99",
"OX c #88A589",
"+X c #95AC8C",
"@X c #99AC8E",
"#X c #8DB58E",
"$X c #97BE8E",
"%X c #99AA98",
"&X c #8FB992",
"*X c #93B392",
"=X c #9BB393",
"-X c #93BC94",
";X c #9BBB96",
":X c #9CB59D",
">X c #A5BC99",
",X c #AA8CA6",
"<X c #B99FB3",
"1X c #9DBCA0",
"2X c #A7ACA4",
"3X c #A7B8A5",
"4X c #B2B3AD",
"5X c #C6A4BF",
"6X c #94C596",
"7X c #9BC494",
"8X c #96C897",
"9X c #9ACA97",
"0X c #96C599",
"qX c #99C59C",
"wX c #9ECB99",
"eX c #BBC789",
"rX c #A2C299",
"tX c #A0CC99",
"yX c #9EC8A1",
"uX c #A4C5A5",
"iX c #ABCCA3",
"pX c #AFCEAA",
"aX c #B5D2B1",
"sX c #CBD3B5",
"dX c #C8A7C4",
"fX c #D0A8CA",
/* pixels */
"8X6X6X6X6X6X6X6X6X6X6X6X6X6X6X6X6X6X6X6X6X6XqX0XqX6X6X6X6X6X6X6X6X6X6X6X6X6X6X6X6X6X6X6X6X6X6X6X6X8X",
"wX8X6X6X6X6X6X6X6X6X6X6X6X6X6X6X6X6X6X6X-XyX:X:X1XyXqX0X6X6X6X6X6X6X6X6X6X6X6X6X6X6X6X6X6X6X6X6X8XwX",
"wXwX8X6X6X6X6X6X6X6X6X6X6X6X6X6X6X6X6X6X%X2.i i ) Y.1XyX6X0X6X6X6X6X6X6X6X6X6X6X6X6X6X6X6X6X6X8XtXtX",
"tXtXwX8X6X6X6X6X6X6X6X6X6X6X6X6X6X6X6X1X<.) y u B _ 1.1XuXqX0X6X6X6X6X6X6X6X6X6X6X6X6X6X6X6X8XwXtXtX",
"tXtXwXwX8X6X6X6X6X6X6X6X6X6X6X6X6X0X-X{.y y u u i ' [ [ %.7.{.:XuXqX0X6X6X6X6X6X6X6X6X6X6X8XwXtXtXtX",
"tXtXtXtX9X6X6X6X6X6X6X6X6X6X6XqX*X{.) 7 6 u ....o.] r 6 5 r i  .<..X:XuXqX6X6X6X6X6X6X6X8XwXtXtXtXtX",
"tXtXwXtXtXwX6X6X6X6X6X6X6XqX*XB &     O w P 1.J.4.:.] u r r r r y i  .{.:XyXqX6X6X6X6X8XwXtXtXtXtXtX",
"tXtXtXtXtXwXwX7X6X6X6X6X*X&.4         # u ..].[.,X[.4.o.] _ _ ` _ u u i X.|.uXyX6X6X6X9XwXtXtXtXtXtX",
"tXtXtXtXtXtXtXwX8X6X0X7.} #         O 4 P o.[.,XfX5X<X[.1. .] ] [ X.X.' ` _ <..XuXwXwXwXtXtXtXtXtXtX",
"tXtXtXtXtXtXtXtXtXT.&.5 @ O       O @ 4 u ..[.,XdXdXdXXX6..._ _ ] X.o.O.X.' ` ' 6.%XiXwXtXtXtXtXtXtX",
"tXtXtXtXtXtX7X6XT.B 4 # O O   O O O # 6 e P o.;.K.].K.:.o.P i i B X.o.O.O.O. .' [ X..X3XiXwXwXwXtXtX",
"tXwXtXtXtXtX$X2.B # # @ # O O @ # # 6 6 w y i ) P P P P b r r r i ` [ X.O.O.O.X.[ ` [ ,.:XpXwXwXtXtX",
"tXtXtXtXtXT.} # @ @ # @ # O # # 4 4 6 6 r w 7 r 7 r r r q r 7 r r y ) ' X.O.O.O.X.[ B _ 7.%XuXwXtXtX",
"tXtXwX7XI.0 @ O @ # # @ # # # # 4 6 7 7 7 7 7 q 7 7 7 7 q 7 7 7 q r r i _ [ X.O.o. .P i X.Y.pXiXtXtX",
"tXtXtXT.N 5 O @ @ @ # # # # - # 4 6 7 7 r 7 7 r 7 r 7 7 7 7 7 7 7 6 7 7 r i ` [ X.X.' _ b  ..X3XtXtX",
"tXtX7X&.9 & O @ # # + @ # # & 4 6 6 7 7 7 7 7 7 7 7 7 7 7 7 7 7 6 6 6 6 * 3 5 7 B ' [ ` i V 1.%XiXtX",
"tXwX9X} 5 O O # # # # @ # # 4 4 7 7 7 7 7 q 7 7 7 r 7 7 7 7 y X.,.{.]. XU.*.C N N V [ ' r i ,.oXaXtX",
"tXwX6XB 5 O @ @ O @ # # # # & 4 6 7 7 7 7 7 r 7 7 7 7 7 7 7 y X.5.oX4XsXeX).P.A C } [ ' i i %..XaXaX",
"tXtX&X} 0 O @ # # # @ # # - 4 6 7 7 7 7 7 w 7 7 7 7 7 7 7 0 r ) o.Y.XX>XeX_.Q.R.P.-.-.X.[ [ X.5.3XuX",
"tXtX&X$.0 # @ # # # @ @ & & & 4 6 7 r 7 7 7 r 7 7 r 7 r 7 7 7 q b | -.~.!.W.E.R.=.=.,.,.1.1.4.].2X2X",
"tXtXtX$.B 3 O @ O # @ # # # 4 5 7 7 7 7 7 r 7 r 7 7 7 7 7 7 7 7 r i V | | *.*.*.-.:.,.3.].].|.XX4X4X",
"tXtXtXT.} N @ @ # # @ # # # # : 4 5 7 7 7 7 7 7 7 7 r 7 7 7 7 7 7 r 7 r r t t t ' X.<.,.1.5.3.].2X3X",
"tXtXtXtXU.B & O O # # # # # # & 4 6 7 7 7 7 7 7 r 7 7 r r 7 7 r 7 7 7 7 q 7 r i ' { X.X.' _ [ 7.uXtX",
"tXtXtXtXwX$.t # O # # O # # # # 4 4 w 0 7 r 7 r 7 7 7 7 7 7 7 7 q q w 7 7 q r i ' [ [ ' i ) 5.=XtXtX",
"tXtXtXtXtXwX&.9 O O O @ @ # # # & 3 5 6 7 7 7 7 r 7 7 7 r 7 r w q 0 w q r r i _ [ [ ' ) ` <.>XtXtXtX",
"tXtXtXtXtXtXtX&.t O O O @ @ # # # - 3 4 6 7 7 q 7 7 7 7 7 7 7 7 w 7 q w y t ) [ [ [ B b O..XtXtXtXtX",
"tXtXtXtXtXtXtXtX^.q % O @ O @ @ # # # 3 6 6 7 q 7 r 7 r 7 r 7 r r r r y u b  . .[ ) ` [ OXtXtXtXtXtX",
"tXtXtXtXtXtXtXtXtXT.) # @ O O @ # # & - 4 4 6 6 7 7 7 7 7 7 7 7 r r r i V _ ) [ _ _ O.OXtXtXtXtXtXtX",
"tXtXtXtXtXtXtXtXtXtX*XB 5 O O @ @ # @ # # % 4 4 6 6 7 7 7 7 7 7 r i i _ ` ' _ )  .2.uXtXtXtXtXtXtXtX",
"tXtXtXtXtXtXtXtXtXtXtXrXU.q O       O @ @ @ @ # % * * 5 7 7 7 6 6 6 6 6 6 6 t X.=XwXtXtXtXtXtXtXtXtX",
"tXtXtXtXtXtXtXtXtXtXtXtXtX;Xu X . . . . . . X X X X $ $ % % : & * t [ 2.7. X>XtXtXwXtXtXtXtXtXtXtXtX",
"tXtXtXtXtXtXtXtXtXtXtXtXtX@Xf p p p a a s s s s l c w.v p.F.+.F.H.>XiXiXwXwXtXwXtXtXtXtXtXtXtXtXtXtX",
"tXtXtXtXtXtXtXtXtXtXtXtX@X+.l z 8.8.9.0.e.r.r.t.y.c.N.j.Z.G.G.(.(.eXwX7XtXtXtXtXtXtXtXtXtXtXtXtXtXtX",
"tXtXtXtXtXtXtXtXtXtXtX$X+.d x 9.e.t.y.u.u.z.b.M.S.C.A.j.h.F.F.+.Z !.$XwXtXtXtXtXtXwXtXtXtXtXtXtXtXtX",
"tXtXtXtXtXtXtXtXtXtXrX#.l 8.0.r.u.u.z.b.m.M.V.S.D.A.L.g.a.Y Y L n V ~.tXtXtXtXtXtXtXtXtXtXtXtXtXtXtX",
"tXtXtXtXtXtXtXtXtX@X+.l 9.r.u.u.b.n.m.m.V.C.A.A.L.h.a.K R ~ ~ ~ J D <.6XtXtXwXtXtXtXtXtXtXwXtXtXtXtX",
"tXtXtXtXtXtXtXrX~.v c 9.r.u.n.m.m.m.v.B.s.p.m m n L J H T ^ ^ ^ / I 1.-X0XwXwXtXtXtXtXtXtXtXtXtXtXtX",
"tXtXtXtXtXtX$XM l 8.q.y.u.b.n.m.M.B.s.m f f 8 : 1 1 D H R ^ / / / @.6.6X8X8XwXwXtXtXtXtXtXtXtXtXtXtX",
"tXtXtXtXtX7X#.a z 0.r.u.z.n.n.B.s.p.g f 8 8 r w 8 f f j n Y +.G.H./.;X6X6X6X8XwXtXtXtXtXtXtXtXtXtXtX",
"tXtXtXtXtX7X@.d x e.u.z.M.M.f.i.v f % % 6 7 y y e e > L L K Y F.J./.6X6X6X6X6X6XwXtXtXtXtXtXtXtXtXtX",
"tXtXtXtXtX$XM z 9.t.l.v.c.f.p.k : - o # : 5 r w w D D H J R / ( ;.Y.6X6X6X6X6X6X8XwXtXtXtXtXtXtXtXtX",
"tXtXtXtXtXOXM z 9.u.c.B.f.p.k > - = o   - : w e 2 D G T W ! Q Q ;.T.6X6X6X6X6X6X6X9XtXwXtXtXtXtXtXtX",
"tXtXwXwXtXJ.m z q.x.x.N.d.U j , ; = = o O o - 1 D G T E W ! ! ( '.OX6X6X6X6X6X6X6X6X6XwXtXtXtXtXtXwX",
"tXtXwX9X+X+.s 8.q.c.c.N.d.U j , < < < ; ; ; ; S F T E W ! ! ! `.'.#X6X6X6X6X6X6X6X6X6X6X9XtXtXtXtXtX",
"tXtXtXtX.Xb p 8.e.k.l.x.i.v h , ; < < < S S S S S F F T Q ( `.'.{.6X6X6X6X6X6X6X6X6X6X6X8X9XwXtXtXtX",
"tXtXtXwX0XU.b a z 0.0.0.c k > 2 1 1 - 1 y ) )  .o.>.>.>.2.2.T.}.qX6X6X6X6X6X6X6X6X6X6X6X6X9XtXtXtXtX",
"wXwXwX9X6X6X+X| b p p g { Y.OX-X}.}.}.}.}.yX6X6X6X6X6X6X6X6X6X6X6X6X6X6X6X6X6X6X6X6X6X6X6X6X6X9XwXwX",
"wX9X6X6X6X6X6X6X-X+X+X-X7X0X0X0X6X0X0X0X0XqX6X6X6X6X6X6X6X6X6X6X6X6X6X6X6X6X6X6X6X6X6X6X6X6X6X8XwXwX",
"wX6X6X6X6X6X6X6X6X6X6X6X6X6X6X6X6X6X6X6X6X6X6X6X6X6X6X6X6X6X6X6X6X6X6X6X6X6X6X6X6X6X6X6X6X6X6X6X6X9X",
"6X6X6X6X6X6X6X6X6X6X6X6X6X6X6X6X6X6X6X6X6X6X6X6X6X6X6X6X6X6X6X6X6X6X6X6X6X6X6X6X6X6X6X6X6X6X6X6X6X6X"
};
