/* XPM */
static char *result[] = {
/* columns rows colors chars-per-pixel */
"50 50 221 2 ",
"   c #0C0C0C",
".  c #110409",
"X  c #15090C",
"o  c #0F0D12",
"O  c #110D13",
"+  c #160A18",
"@  c #151515",
"#  c #171917",
"$  c #191519",
"%  c #1A1A1A",
"&  c #220B18",
"*  c #281B1E",
"=  c #1E201D",
"-  c #293F08",
";  c #24281F",
":  c #1A0526",
">  c #1E1722",
",  c #250927",
"<  c #251925",
"1  c #3A1927",
"2  c #270838",
"3  c #300D31",
"4  c #2C1838",
"5  c #232423",
"6  c #292226",
"7  c #262925",
"8  c #2E2E2E",
"9  c #2D3229",
"0  c #34352F",
"q  c #2F2B31",
"w  c #332838",
"e  c #333333",
"r  c #343933",
"t  c #393B36",
"y  c #3B373A",
"u  c #3C3D3C",
"i  c #490318",
"p  c #52021D",
"a  c #63001F",
"s  c #491927",
"d  c #511429",
"f  c #690726",
"g  c #780327",
"h  c #62162C",
"j  c #751734",
"k  c #572F37",
"l  c #433A3E",
"z  c #69283C",
"x  c #75263D",
"c  c #66343C",
"v  c #3D4924",
"b  c #3D423D",
"n  c #557108",
"m  c #444F33",
"M  c #687338",
"N  c #2B0244",
"B  c #2F0349",
"V  c #31044C",
"C  c #380C4D",
"Z  c #390855",
"A  c #332040",
"S  c #4B1852",
"D  c #413B41",
"F  c #5C2851",
"G  c #6C2C48",
"H  c #7B2F45",
"J  c #65354B",
"K  c #77334C",
"L  c #682855",
"P  c #470D66",
"I  c #4F1468",
"U  c #531569",
"Y  c #5D1975",
"T  c #631C79",
"R  c #753762",
"E  c #6D2971",
"W  c #6E237D",
"Q  c #3C4840",
"!  c #444343",
"~  c #444B43",
"^  c #48444A",
"/  c #4B4C4B",
"(  c #4A5449",
")  c #55544D",
"_  c #574E55",
"`  c #4C5A51",
"'  c #545454",
"]  c #585557",
"[  c #545B53",
"{  c #585B55",
"}  c #5C5C5C",
"|  c #654446",
" . c #744849",
".. c #715054",
"X. c #785657",
"o. c #4D6050",
"O. c #596557",
"+. c #5D645C",
"@. c #656959",
"#. c #727759",
"$. c #5C4B62",
"%. c #604C66",
"&. c #675965",
"*. c #636362",
"=. c #676B67",
"-. c #7A6561",
";. c #657465",
":. c #697466",
">. c #6D7C6C",
",. c #717B6F",
"<. c #786876",
"1. c #777677",
"2. c #840129",
"3. c #8A012B",
"4. c #93012F",
"5. c #890931",
"6. c #980131",
"7. c #A30034",
"8. c #AC0439",
"9. c #B30038",
"0. c #BC003B",
"q. c #C2003D",
"w. c #CB003F",
"e. c #B31547",
"r. c #9A2B4E",
"t. c #953756",
"y. c #BB2B59",
"u. c #A8375C",
"i. c #9B3D64",
"p. c #C80D49",
"a. c #D50043",
"s. c #DC0348",
"d. c #E4014A",
"f. c #EC004B",
"g. c #F6004E",
"h. c #FC0152",
"j. c #F80956",
"k. c #E71357",
"l. c #F4195F",
"z. c #D3285E",
"x. c #FB1962",
"c. c #C03B64",
"v. c #EC2B68",
"b. c #F42869",
"n. c #E2346B",
"m. c #E43C72",
"M. c #F53572",
"N. c #8C5053",
"B. c #8A6F56",
"V. c #957852",
"C. c #A54263",
"Z. c #B9436A",
"A. c #817776",
"S. c #C64771",
"D. c #D94172",
"F. c #E1497B",
"G. c #7E874E",
"H. c #71876E",
"J. c #6F8273",
"K. c #738373",
"L. c #7A8875",
"P. c #7C8D7B",
"I. c #7D937D",
"U. c #7F9C7E",
"Y. c #86A11C",
"T. c #809B38",
"R. c #97AB31",
"E. c #AABC4E",
"W. c #8F9072",
"Q. c #84947E",
"!. c #A3BA7E",
"~. c #A9C449",
"^. c #611783",
"/. c #782789",
"(. c #857883",
"). c #967C93",
"_. c #7F9581",
"`. c #7FA380",
"'. c #898689",
"]. c #869884",
"[. c #859A84",
"{. c #919A8D",
"}. c #998797",
"|. c #959393",
" X c #A1839B",
".X c #88A789",
"XX c #8BA48A",
"oX c #94A88A",
"OX c #95B18E",
"+X c #8FAA91",
"@X c #94AB92",
"#X c #97B395",
"$X c #9BB394",
"%X c #97B997",
"&X c #9CBC9C",
"*X c #A5B38D",
"=X c #A1BE9D",
"-X c #AB8BA4",
";X c #AFADAC",
":X c #AABBA5",
">X c #94C596",
",X c #9DC396",
"<X c #96C897",
"1X c #9BCA97",
"2X c #96C499",
"3X c #9ECB99",
"4X c #A1C694",
"5X c #A2C39D",
"6X c #A0CC99",
"7X c #9EC5A1",
"8X c #9EC9A1",
"9X c #A5C4A1",
"0X c #A8C1A3",
"qX c #A5CBA1",
"wX c #A9CBA3",
"eX c #D7EA8C",
"rX c #CDD7B0",
"tX c #D2ACCB",
"yX c #D9B5D4",
"uX c #E6B7DD",
"iX c #D0D0CF",
/* pixels */
"<X>X>X>X>X>X>X>X>X>X>X>X>X>X>X>X>X>X>X>X>X>X>X>X>X>X>X>X>X>X>X>X>X>X>X>X>X>X>X>X>X>X>X>X>X>X>X>X>X<X",
"3X<X>X>X>X>X>X>X>X>X>X>X>X>X>X>X>X>X>X>X>X2X>X>X>X>X>X>X>X>X>X>X>X>X>X>X>X>X>X>X>X>X>X>X>X>X>X>X<X6X",
"3X3X<X>X>X>X>X>X>X>X>X>X>X>X>X>X>X>X>X>X2X7X7X7X%X7X2X>X>X>X>X>X>X>X>X>X>X>X>X>X>X>X>X>X>X>X>X<X6X6X",
"6X6X3X<X>X>X>X>X>X>X>X>X>X>X>X>X>X>X>X>X7X&XK.,.>.+X7X2X>X>X>X>X>X>X>X>X>X>X>X>X>X>X>X>X>X>X<X6X6X6X",
"6X6X3X3X<X>X>X>X>X>X>X>X>X>X>X>X>X>X>X>X%X[.~ ~ / ,.+X8X>X2X>X>X>X>X>X>X>X>X>X>X>X>X>X>X>X>X3X3X6X6X",
"6X6X6X6X3X>X>X>X>X>X>X>X>X>X>X>X>X>X2X7X_.:.y Q / +.J.+X&X&X7X7X8X2X>X2X>X>X>X>X>X>X>X>X<X3X6X6X6X6X",
"6X3X6X6X6X3X>X>X>X>X>X>X>X>X2X2X>X2X%XXX[ / ! _ *.} [ ;.J.H.L.+X%X7X7X8X2X>X>X>X>X>X>X>X6X6X6X6X6X6X",
"6X6X6X6X6X6X6X>X>X>X>X>X2X2X.XH.J.>.[ Q 5 e &.<.}.=.~ e 7 A Q } ;.P.[.%X8X2X>X2X>X>X>X2X6X6X6X6X6X3X",
"6X6X6X6X6X6X6X3X<X<X<X&X.Xo.r % @ @ o @ % u (.).tX-X(._ A Q D / / ^ ` *.U.%X7X2X<X1X6X6X6X6X6X6X6X6X",
"6X6X6X6X6X6X6X6X3X2X+XO.b * # o     @ # * S A.-XuXyXtX-X1./ y Q ^ } } ' +.=.XX&X6XqX6X6X6X6X6X6X6X6X",
"6X6X6X6X6X6X3X3X&X>.o.7 = # O       # % 5 l <.).tXyXyX;X}./ e e u } } *.} ' =.,.$X9XqX6X6X6X6X6X6X6X",
"3X6X6X6X6X6X5X[.:.r 7 % # # o       % > 7 y _ <.).). X(.<.D e 8 y ' { *.*.} { +.K.].9XqXqX6X6X6X6X6X",
"6X6X6X6X6X%XQ.m e # # # # % O @ o # 5 7 8 e u D _ _ ' _ / r e 8 e ! / ' } *.} } } *.Q.@XwX6X6X6X6X6X",
"6X6X6X3X4X;.b = # # % % # # # $ # = 7 8 8 8 e e e e e e e 8 8 8 8 e u / ' } *.&.} [ [ :.#X9X6X6X6X6X",
"6X6X6X4X.Xr # # # # % # # % % % % 5 8 8 8 8 8 8 q 8 8 8 8 8 8 e 8 8 e r A ` ] } *.} ^ ) L.#XqX6X6X6X",
"6X6X6XI.( ; @ # % % % % % # % % 5 5 8 8 e 8 8 e 8 8 e 8 8 8 8 8 8 8 8 8 9 t Q / { } ' ' [ L.=XwX6X6X",
"6X6X,X` % @ # % % % % % % % % 5 8 8 8 8 e 8 8 8 e 8 8 8 8 q 8 8 8 7 7 8 7 5 ; ; m m } } ~ O.[.5X6X3X",
"6X6X,X( O @ % % # % # % % % = 5 7 q 8 8 8 8 8 8 8 8 8 8 e 7 8 u ' 1.'.'.K.G.m - ; 0 ] } A ' Q.=X3X3X",
"6X6X,X(   # % # % $ % # % # = 5 8 8 q 8 8 8 8 8 8 8 8 e q 7 7 u { |.;XiXrX4XT.n v t ] } m ' L.&X6X6X",
"6X6X,X~   # % # # % % # # % < 5 8 8 8 8 8 e 8 8 8 e 8 8 8 8 8 q ! =.|.iXrXeX~.Y.M ) *.*./ { ,.@XwXwX",
"6X6X1X(   # # # % $ # % % # % 5 9 q 8 8 8 8 q 8 8 e 8 8 8 8 8 8 0 ^ &.|.oXeXE.R.G.#.=.*.*.=.1.{.wX0X",
"6X6X6XO.  # % % % % # % # % 5 5 8 8 8 e 8 e e 8 8 8 8 8 8 8 8 8 8 8 u ) { G.M M @.@.*.=.(.(.}.;X0X0X",
"6X6X6XH.% # $ % % % % % % % % * 5 7 8 8 8 8 e 8 8 8 8 e 8 8 8 8 8 8 e 0 0 0 e 0 m / } =.1.1.(.|.:X:X",
"6X6X6X1XH.5 O # # % # $ # % # % = 5 8 8 8 8 8 8 8 8 8 8 8 e 8 8 8 8 q 8 q q 8 8 D ^ &.} / { ,.@XwXwX",
"6X6X6X6X,Xv % # # # % # % % % % = 5 8 8 e 8 8 8 e 8 8 8 8 e 8 8 e 8 8 8 e 8 e e A / } { ! +.].5XqX6X",
"6X6X6X6X6X.XO.8 % @ # % % # # % > = 5 8 8 8 8 8 8 8 e 8 8 8 8 8 8 8 8 8 8 8 r u ) ' ' ' @.Q.9XqX6X6X",
"6X6X6X6X6X6X,X+.~ ; # # # % # % % = = 7 8 8 8 8 8 e 8 8 e 8 e 8 8 q 8 8 8 e y ! [ { / ' L.@XqX6X6X6X",
"6X6X6X6X6X6X6X6X.X~ r # % # % $ % % % > 5 7 8 8 8 8 8 8 8 8 8 8 8 8 e e r e ! / [ { [ ;.@X9X6X6X6X6X",
"6X6X6X6X6X6X6X6X6XOX:.9 5 # # # % % % % ; 5 8 9 8 e 8 8 8 8 e 8 e e e r y ! / ' ' +.L.XXwX6X6X6X6X6X",
"6X6X6X6X6X6X6X6X6X6X6X.XO.5 % # # # # % % * < 5 6 7 8 0 8 8 8 8 e r u ! ^ / ) ' ,.].9X5X6X6X6X6X6X6X",
"6X6X6X6X6X6X6X6X6X6X6X6X3XI.~ # O o # @ # # $ % % 5 6 6 7 7 8 8 9 e b ^ ~ ~ ;.P.5XqX6X6X6X6X6X6X6X6X",
"6X6X6X6X6X6X6X6X6X6X6X6X6X6XXXO.* . X X X X X X X X & * < < * ; b @.P.#X$X$X:XwX6X6X6X6X6X6X6X6X6X6X",
"6X6X6X6X6X6X6X6X6X6X6X6X6X6X]...d i i i i p p p p f f j 5.K  . .B.*XwX6X6X6X6X6X6X6X6X6X6X6X6X6X6X6X",
"6X6X6X6X6X6X6X6X6X6X6X3X6XoXX.x g g 2.2.3.4.7.7.7.8.e.y.c.C.N.B.W.6X6X6X6X6X6X6X6X6X6X6X6X6X6X3X6X6X",
"6X6X6X6X6X6X6X6X6X6X6X6X*X| x 2.6.7.7.9.q.a.s.d.s.v.n.D.S.i.N.N.V.!.4X6X6X6X6X6X6X6X6X6X6X6X6X6X3X6X",
"6X3X6X6X6X6X6X6X6X6X3X,X-.p 2.7.9.q.a.s.d.f.l.l.b.m.F.Z.t.L L J J M W.=X6X6X3X6X6X6X6X6X6X6X6X6X6X6X",
"6X6X6X6X6X6X6X6X6X6X$XX.H 4.0.a.d.f.h.j.l.v.n.m.D.S.C.L S U Y W F A _ [.&X6X3X6X6X6X6X6X6X6X6X6X6X6X",
"6X6X6X6X6X6X6X3X4X-. .g 6.q.d.h.h.h.l.k.u.r.z z G k s 3 3 U ^./.T I %.].&X<X3X3X3X6X6X6X6X6X6X6X6X6X",
"6X3X6X6X6X6X6XW.X.j 5.7.q.d.g.h.l.b.z.r.s 1 < q l e < , 2 I Y W E R &.].7X2X>X3X6X6X6X6X6X6X6X3X6X6X",
"6X3X3X3X6X3X,Xk h 3.7.q.s.h.j.x.M.D.t.x & @ 5 e u t y q w S F N.N.V.W.*X9X>X>X<X3X6X6X6X6X6X6X6X6X6X",
"6X6X6X6X6X4XOXs a 6.0.s.f.h.l.b.m.Z.G s . O > 7 e e y q 6 1 s  .N.V.W.*X<X>X>X>X1X3X6X6X6X6X6X6X6X6X",
"6X6X6X6X6X4XOXs a 9.w.f.g.h.x.b.Z.t.1 + O O # # 5 7 8 5 > , C R t.X.A.XX2X>X>X>X<X<X3X3X6X6X6X6X6X6X",
"6X6X6X6X6X6XoXs a 9.w.g.h.h.x.b.u.H , + : : O @ # > % $ > 2 C Y T S %.I.&X>X>X>X>X>X>X3X6X6X6X6X6X6X",
"6X6X6X6X6X6XQ.d a 7.0.a.f.h.l.M.u.G , : N N 2 : o o o : 2 Z P Y Y S $.I.2X>X>X>X>X>X>X>X3X6X6X6X6X6X",
"6X6X6X6X1XL.| a g 4.7.q.a.g.l.v.u.K , : V V V V B B B C Z P P P C 2 ^ P.>X>X>X>X>X>X>X>X<X3X6X6X6X3X",
"6X6X6X6X>X@.1 p a 3.6.7.9.0.p.y.t.G , : N N B V V Z Z Z C 2 2 4 5 5 b J.>X>X>X>X>X>X>X>X>X>X6X6X6X6X",
"6X1X6X<X>X.X:.* i a g 3.g g j h s w : > A A A A A A A 2 : > $ 9 U.>X>X>X>X>X>X>X>X>X>X>X>X>X>X1X3X6X",
"6X1X<X<X>X>X1XU.;.k k z c c ) O.o.;.`._.`._..X+X`._.J.( b o.;.>X>X>X>X>X>X>X>X>X>X>X>X>X>X>X>X1X3X1X",
"1X<X>X>X>X>X>X>X>X>XOX>X>X>X>X>X>X>X>X>X>X>X>X>X>X>X>X>X>X>X>X>X>X>X>X>X>X>X>X>X>X>X>X>X>X>X>X>X>X<X",
">X<X>X>X>X>X>X>X>X>X>X>X>X>X>X>X>X>X>X>X>X>X>X>X>X>X>X>X>X>X>X>X>X>X>X>X>X>X>X>X>X>X>X>X>X>X>X>X>X>X"
};
