/* XPM */
static char *result[] = {
/* columns rows colors chars-per-pixel */
"50 50 218 2 ",
"   c #6F5A66",
".  c #6D5D6A",
"X  c #725A67",
"o  c #745D69",
"O  c #7A5E6B",
"+  c #6B626F",
"@  c #75626C",
"#  c #7C636D",
"$  c #6D6471",
"%  c #6B6A77",
"&  c #726673",
"*  c #7D6570",
"=  c #756975",
"-  c #7C6B74",
";  c #7A6D78",
":  c #6F707D",
">  c #757477",
",  c #7C7473",
"<  c #74747C",
"1  c #7C737D",
"2  c #835F6D",
"3  c #82646E",
"4  c #88656F",
"5  c #836470",
"6  c #8C6470",
"7  c #846A72",
"8  c #8C6C74",
"9  c #8E6F78",
"0  c #936672",
"q  c #926A73",
"w  c #9C6B75",
"e  c #9C6B76",
"r  c #847374",
"t  c #8C7376",
"y  c #86777A",
"u  c #8E7579",
"i  c #8D7B7B",
"p  c #937277",
"a  c #9B7176",
"s  c #947479",
"d  c #9A757A",
"f  c #927B7C",
"g  c #9C7A7D",
"h  c #A26D77",
"j  c #A36C78",
"k  c #AA6E79",
"l  c #A57077",
"z  c #A4747A",
"x  c #AB747B",
"c  c #A27C7E",
"v  c #AA7B7E",
"b  c #B7797D",
"n  c #B47C7E",
"m  c #C17D7F",
"M  c #7B867C",
"N  c #85847A",
"B  c #8B847C",
"V  c #858B7D",
"C  c #8C8B7E",
"Z  c #95827E",
"A  c #9B827F",
"S  c #948A7F",
"D  c #87927F",
"F  c #A3817E",
"G  c #A8807F",
"H  c #637282",
"J  c #6B7583",
"K  c #6B7887",
"L  c #6C7A89",
"P  c #717482",
"I  c #747B84",
"U  c #757C89",
"Y  c #8F7881",
"T  c #A67E81",
"R  c #AB7F82",
"E  c #B37D80",
"W  c #C27E81",
"Q  c #6E848A",
"!  c #79828C",
"~  c #79888B",
"^  c #788893",
"/  c #7C8B94",
"(  c #7B8E99",
")  c #7B9491",
"_  c #7D919A",
"`  c #878B85",
"'  c #958780",
"]  c #9C8680",
"[  c #948B81",
"{  c #9C8C82",
"}  c #849381",
"|  c #8D9483",
" . c #869D84",
".. c #8C9D85",
"X. c #829B8B",
"o. c #929383",
"O. c #9D9586",
"+. c #929A85",
"@. c #999788",
"#. c #9D9C89",
"$. c #81979C",
"%. c #A48382",
"&. c #AB8383",
"*. c #A38B84",
"=. c #AB8B85",
"-. c #A78D8A",
";. c #B18384",
":. c #BC8384",
">. c #B68B87",
",. c #BB8B86",
"<. c #B58A89",
"1. c #BB8D8B",
"2. c #A39285",
"3. c #A79587",
"4. c #A5928B",
"5. c #AD938C",
"6. c #A29E8A",
"7. c #AC9A8B",
"8. c #B09485",
"9. c #B4928B",
"0. c #BC928D",
"q. c #B29A8C",
"w. c #BA9B8E",
"e. c #BC9B91",
"r. c #B89C90",
"t. c #8BA488",
"y. c #8BAC8B",
"u. c #92A086",
"i. c #94A389",
"p. c #9DA38B",
"a. c #94AC8D",
"s. c #9BAB8E",
"d. c #8EB38F",
"f. c #93B28F",
"g. c #85A894",
"h. c #8CB793",
"j. c #96B691",
"k. c #9AB291",
"l. c #93BC93",
"z. c #9CBC95",
"x. c #A4A48D",
"c. c #ABA48E",
"v. c #A4AC8F",
"b. c #ABA88E",
"n. c #B1A38E",
"m. c #AEA690",
"M. c #A5AC91",
"N. c #ADAB92",
"B. c #B4A391",
"V. c #B9A293",
"C. c #B2AB92",
"Z. c #A3B593",
"A. c #AEB293",
"S. c #A3BB95",
"D. c #ACBA96",
"F. c #B8B599",
"G. c #C48383",
"H. c #C98886",
"J. c #C38F8B",
"K. c #CD8C8A",
"L. c #D48B89",
"P. c #C2938E",
"I. c #CA958B",
"U. c #C49A8D",
"Y. c #D1948D",
"T. c #DB938E",
"R. c #C39490",
"E. c #C39B91",
"W. c #CD9E92",
"Q. c #D79D92",
"!. c #E4958F",
"~. c #E69992",
"^. c #C3A18E",
"/. c #CBA897",
"(. c #D3A394",
"). c #DDA497",
"_. c #D3A698",
"`. c #D3A999",
"'. c #DBAB9B",
"]. c #CBB79C",
"[. c #D5B79E",
"{. c #EBA699",
"}. c #E2AC9C",
"|. c #E3B19F",
" X c #D4BBA1",
".X c #DBBCA5",
"XX c #E4B6A1",
"oX c #EBB6A2",
"OX c #E6BCA4",
"+X c #ECBBA5",
"@X c #EABFAA",
"#X c #F1B3A1",
"$X c #F3BCA6",
"%X c #F5BFA8",
"&X c #94C496",
"*X c #9AC296",
"=X c #9BC897",
"-X c #A4C296",
";X c #A9C399",
":X c #B3C79C",
">X c #B6D1A3",
",X c #C4C59E",
"<X c #C6C6A3",
"1X c #C9D1A9",
"2X c #E6C5A9",
"3X c #EEC3AB",
"4X c #F0C0A7",
"5X c #F4C2AA",
"6X c #FAC5AC",
"7X c #F4C9AD",
"8X c #FBC9AE",
"9X c #EDC7B0",
"0X c #EFCBB3",
"qX c #F3CBB1",
"wX c #FBCDB2",
"eX c #E9D1B5",
"rX c #FAD4B8",
"tX c #FBD5B9",
/* pixels */
"&X&X&X&X&X&Xl.d. .[ g 8 8 p F %.*.*.*.4.4.*.g 7 3 g F F *.4.*.{ 4.4.*.T 7 8 p A ..y.d.&X&X&X&X&X&X&X",
"&X&X&X&Xl.} C 2./.XXXX0.9._.4X4X5X5X3X0XqX5X$X%.%.+X4X5X5X7X9X9XqXqX3XXX1.0._.+X/.q.O.D l.&X&X&X&X&X",
"&X&Xl.f.p.V./..XOX5X+XI.P.'.6X8XwXwX8XwX8X8X6X&.&.$X6X8X8XwXwXwXwXwX8X$X0.P.'.6X@X.X XF.s.j.&X&X&X&X",
"&X&Xd.+.5.@XtXtX8X6XoXP.,._.4X5X%X%X%X%X5X$X$X%.G $X5X5X%X%X%X%X$X6X5XXX9.P._.5XwXtXtXeXF.k.l.&X&X&X",
"=Xt.O.0.0XwXwX6X#X{.!.b x :.T.T.T.T.T.T.T.T.T.e h L.T.T.!.T.T.T.T.T.T.K.x b H.~.#X%X8XwXeX<XZ.l.&X=X",
"l.o.r.'.qX8X$X#X!.H.k 0 5 0 w j j j a j e a 6 O @ ; 7 6 q e z j h h w e 4 0 k b !.{.#X6X8X2X Xk.=X=X",
"j.2./.$X8X6X#X!.G.h 0 2 2 6 0 0 q 0 0 0 0 6 O . + % . O 2 0 0 0 0 0 0 6 3 2 4 0 W T.{.$X8X4XOXD.=X=X",
"u.0.|.8X8X%X~.W 0 O X o 6 w w w j w j w j e 2 o + H . O 6 w w w w w w w 0 O o X 6 b T.#X6X8X5X].D.-X",
"u XX6X8X6X~.L.h o O 2 0 0 0 0 0 0 0 0 0 0 6 O X + H .   X X X X     .       X     0 G !.%X7X8X4X<X:X",
"t +X6X8X6XT.b 3 3 0 w k R E R ;.&.E ;.&.T e 2 o + K . O 4 s g c T T g T g d p q 3 4 a I.OX7X7X6X,X:X",
"t '.XX+X|.G.w X 4 w h x E <.<.<.<.<.<.<.E z 5 o $ L + 3 q F ;.<.;.;.<.<.<.;.T j 4 O 3 G ].,X|.|.F.D.",
"# d F c d 0 3   O 2 3 4 8 9 q 9 9 q 9 8 8 8 O . + H . @ * 8 t t 9 8 9 t 8 8 6 5 2 X o r C S S A S +.",
"7 ).oXOX}.G.a + & & * T ;.1.1.1.9.7.s.s.x.5.;.7 & K * T 3.s.s.x.9.1.1.1.<.T 9 & @ + * G `.[.2X|.n.x.",
"p 3X8X8X$XH.z $ P P < z 1.R.R.R.E.r.Z.z.Z.N.0.9 = K 9 { m.*Xz.Z.V.R.0.R.R.T u : M < i G.|.5X2X6XF.v.",
"i 0XwX8X6XK.z P / ! I s 1.R.R.R.R.r.S.&Xz.Z.e.p ; L u O.Z.&X&XS.C.R.R.R.R.d y U _ ) | K.5X6X8XtX<XD.",
"f 0XwX8X6XL.z O 9 p Y :.R.R.R.R.R.e.N.Z.N.B.1.9 ; ^ t &.0.N.Z.N.V.R.R.R.R.<.=.o.f.f.v.I.4X8X8XtX1X>X",
"f qXwX8X6XL.l O 3 7 7 q s s s s s f i i i i q * ; / * 9 d ' ' Y g g T T d d f i | V S H.$X6X8XtX1X>X",
"f 9XwX8X6XK.l o 3 3 4 3 3 3 3 5 5 5 * 5 3 5 # o = ( * 6 s d d g g d s d f d d ] ' u s G.%X6X8XrX1X>X",
"t %X8X8X6XK.k O 6 4 6 6 6 6 6 6 6 6 6 6 6 6 2 o = ! 9 R P.R.R.R.R.R.R.R.R.R.E.e.P.c z b 5X6X6X8X<X:X",
"t +X8X8X%XK.x 6 j k k k k k k j k k k x k k j 5 ; / t &.P.R.R.R.R.R.R.R.E.e.e.e.e.=.c G.|.6X7X8X,X:X",
"7 (._.`.W.n w 3 e e w w e e w w w w e w w w 0 5 = ^ 5 d R &.&.;.&.&.&.=.5.m.C.N.C.x.O.G (./.[.`.A.v.",
"# &.>.9.;.d q # 8 q q 6 0 0 0 0 0 0 0 q 0 6 5 O & L * 6 s d d g g d g ] O.M.Z.S.D.z.v.F G q.C.w.2.o.",
"8 }.+X4X{.H.x s 9.0.0.1.0.0.0.J.1.1.R.1.1.J.;.6 & H 5 T 1.1.0.0.0.0.0.n.A.C.A.D.-X-XD.U.}.$X5X|.-.f ",
"i 3XwX8X5XK.E g 0.R.R.R.R.R.R.R.R.R.R.R.R.<.T 5 . % * a R R.R.R.R.R.e.V.C.V.C.-X-X-XA.^.4X6X8XwX5.Z ",
"i qXwX8X6XI.;.] w.w.0.1.1.0.1.1.0.1.1.1.<.R Y Y = $ P Y T <.1.J.1.0.0.q.B.r.C.-X-XZ.v.^.5X8X8XtX5.f ",
"Y 0XwX8X6XI.=.o.v.c.3.=.%.&.T %.T %.T T a 8 P $.$.% _ ` P w T T %.%.T T T 4.m.S.k.s.x.w.4X8X8XtX5.i ",
"i 0XrX8X6X^.7.u.i.i.+.N # @ # o O O O O o o P $.^ & ^ U P e T T %.&.&.&.%.6.M.Z.b.D x.U.4X8X8XtX5.i ",
"s 3XwX8X6X(.8.t.+.@.O.A q q 0 0 0 0 0 0 2 * P ( ^ & ( U Y T <.1.1.1.1.1.1.m.N.A.C.b.3.J.4X8X8XwX5.f ",
"p 4X8X8X6XQ.G D ' *.%.G x k k k T k k k e 5 P ( / $ ( ! I <.J.R.U.U.P.R.I.C.A.A.C.c.G I.$X6X8X8X=.u ",
"p 4X8X8X6XY.G , 7 e j j j j j k j j j j 0 5 P ( / $ ( ! y z ;.<.,.8.1.9.n.C.n.b.c.S S I.$X6X8X8X=.p ",
"* 0.U.U.G x d r [ T T d d d d d z Y e e 6 5 P ( / $ ( U 1 @ * 7 * # N S D D C C C N S G 1.P.^.0.p 3 ",
"4 8.^./.I.x a B 4.*.T T &.R T &.T R &.T d 8 P ( / $ ( ! < # * - r 3 t D S S C B C N N l >.U.W.U.p 3 ",
"8 _.|.|.).G b g 0.U.R.R.R.R.R.R.R.R.R.R.;.Y P $./ $ ( U P u T ] ] z ] *.2.2.*.%.Z , 8 b Q.}.XX}.T 7 ",
"i 3XwX8X5XK.b e J.P.R.R.R.R.R.R.R.0.R.R.;.e P ( / $ ( / ` o.{ *.*.T R v v v x x 0 O 3 m oX6X8XrX=.f ",
"Z 0XwX8X6XK.x 4 g ] ] A T c c T T T T T s 6 J ( / $ / / ` ` ' ' A f s p p p p q 8 # 6 m $X8X8XtX5.i ",
"i 0XwX8X6XI.x r N V V N i d s s s s p s 9 5 P / ^ > ^ / ` [ [ [ [ ' f s s p p t 8 * 7 W $X8X8XtX5.i ",
"f 0XwX8X6XI.G C j.*X*XM.w.R.R.R.R.R.R.R.:.T - 1 M Q ~ ` o.9.r.r.e.E.R.e.R.<.%.u 9 7 6 W $X8X8XrX5.i ",
"u 3X8X6X6XQ.8.X.$.) ~ f 1.R.R.R.R.R.R.R.R.1.<.i > Q } #.M.e.e.e.R.R.R.R.R.T i U / P y W $X8X8XwX8.s ",
"u 4X6X6X6X(.q.g.g.) ~ ] 0.0.R.R.R.e.R.0.R.1.<.p 1 Q | i.M.9.0.0.R.0.R.0.R.T 1 P ! J r W $X8X8X8X=.t ",
"u +X6X6X$X(.C.h.h.g.y.#.r.r.r.0.9.0.0.1.1.1.R 8 , ^ ' @.x.9.9.0.1.1.<.1.<.*.` > > > r G.oX5X5X5X=.p ",
"r >.U.w.1.7.Z.&X&X&X&Xl.l.j.f.i.| o.C B u 7 @ o % L - 8 p s s s s s s u i B ..f.k.i.O.G >.J.U.0.f t ",
"8 U._.`.I.m.Z.&Xs.p.6.#.#.#.O.{ %.A F g d e # o $ L 7 g ;.<.<.<.<.<.<.<.=.5.q.n.m.@.S v J.W./.(.A u ",
"u _.XX|.'.A.S.l.#.3.2.2.2.2.2.*.*.*.*.%.c a 3 o $ L 9 &.P.R.P.U.R.R.R.E.E.e.w.w.B.@.{ n (.|.|.|.*.i ",
"i 9XwX8X7XF.z.&Xl.k.k.k.k.k.k.k.k.k.k.#.S i O   + K 8 R J.R.P.I.R.R.R.R.e.e.V.n.m.s.p.P.$X6X8XrX5.f ",
"i 2X0X8XqX;X&X&X&X&X&X&X&X&X&X&X&X&X&Xl.j.a.+., & H = r y N y B i C i.k.*Xz.z.z.z.l.k.^.4X6X8XtX5.f ",
"[ 2X7X7X3X;X&X&Xz.z.Z.Z.k.Z.Z.Z.Z.S.Z.Z.M.m.7.r & H > V t.t.D t.t.t.f.l.&X&X&X&X&X&X*Xb.+X6X8XwX-.p ",
"p.[.2X5XXX;X&X&XM.N.N.N.N.N.m.N.m.m.m.B.r.0.<.9 % H M y.&X&X&X&X&X&X&X&X&X&X&X&X&X&X*Xz.[.+X5X$XG t ",
"&Xv.c.n.m.z.&X&Xz.z.S.Z.Z.M.M.x.x.x.x.4.=.&.v 3 + M M d.&X&X&X&X&X&X&X&X&X&X&X&X&X&X&Xa.3.>.,.W p 7 ",
"&Xf.a.i.f.l.l.&X&X&X&X&Xz.l.f.f.f.f.a...| +.| V ~ t.d.&X&X&X&X&X&X&X&X&X&X&X=X&X&X&X&Xy.t...o.o.....",
"&Xd.y.y.d.l.&X&X&X&X&X&X&X&Xl.d.d.d.d.t. . . . .t.y.&X&X&X&X&X&X&X&X&X&X&X&X&X&X&X&X&Xy. . . . .y.y."
};
