/* XPM */
static char *result[] = {
/* columns rows colors chars-per-pixel */
"50 50 204 2 ",
"   c #1E353F",
".  c #2D222D",
"X  c #2B252C",
"o  c #32232C",
"O  c #39252C",
"+  c #3A322E",
"@  c #32373E",
"#  c #36393D",
"$  c #412A2E",
"%  c #4C2D2D",
"&  c #52312F",
"*  c #452D31",
"=  c #483B37",
"-  c #5B3932",
";  c #69392E",
":  c #743E2F",
">  c #793F2E",
",  c #59452B",
"<  c #5B512F",
"1  c #48453C",
"2  c #7C412E",
"3  c #794C2C",
"4  c #6F542C",
"5  c #654534",
"6  c #794A35",
"7  c #7A5637",
"8  c #7A523B",
"9  c #79692E",
"0  c #7A6E30",
"q  c #7D7237",
"w  c #393E45",
"e  c #3D4949",
"r  c #295248",
"t  c #30524E",
"y  c #28614F",
"u  c #276C57",
"i  c #3D6A5A",
"p  c #287359",
"a  c #3A795D",
"s  c #1D6A69",
"d  c #1D7471",
"f  c #297765",
"g  c #4A504A",
"h  c #555145",
"j  c #445351",
"k  c #4B5754",
"l  c #7A5343",
"z  c #615C59",
"x  c #4F6259",
"c  c #53685D",
"v  c #6F6252",
"b  c #66685A",
"n  c #777256",
"m  c #4D6C61",
"M  c #5A6E64",
"N  c #46786A",
"B  c #5D7868",
"V  c #647668",
"C  c #83442E",
"Z  c #8A462E",
"A  c #88482E",
"S  c #954C2E",
"D  c #9C4F2D",
"F  c #845A24",
"G  c #824B33",
"H  c #8A4A32",
"J  c #944B30",
"K  c #845637",
"L  c #8D5C39",
"P  c #985634",
"I  c #A14F2F",
"U  c #A4502F",
"Y  c #AC532F",
"T  c #B3552F",
"R  c #B8582F",
"E  c #BD592E",
"W  c #A95732",
"Q  c #AD5632",
"!  c #B25A33",
"~  c #BD5D32",
"^  c #8B6724",
"/  c #8E782C",
"(  c #987627",
")  c #986338",
"_  c #887B35",
"`  c #A6663A",
"'  c #B96334",
"]  c #B26C39",
"[  c #B9743C",
"{  c #C45C2E",
"}  c #CA5D2F",
"|  c #C65D30",
" . c #C95E30",
".. c #D3612F",
"X. c #CD6031",
"o. c #C36835",
"O. c #CA6C35",
"+. c #D26231",
"@. c #D66932",
"#. c #D86D33",
"$. c #C8763A",
"%. c #DA7336",
"&. c #D47539",
"*. c #DE7B39",
"=. c #E07E3B",
"-. c #826A4F",
";. c #8E6D4D",
":. c #866A53",
">. c #867958",
",. c #987955",
"<. c #AC7446",
"1. c #A9794A",
"2. c #8A7A64",
"3. c #C57D42",
"4. c #1E8779",
"5. c #2B976B",
"6. c #238C73",
"7. c #3BA46F",
"8. c #588C6F",
"9. c #6A8B75",
"0. c #6D947E",
"q. c #799A7B",
"w. c #4AA374",
"e. c #7AA17F",
"r. c #928231",
"t. c #A7902E",
"y. c #B9A332",
"u. c #C2861A",
"i. c #DC813D",
"p. c #E2833C",
"a. c #E4883F",
"s. c #CEA426",
"d. c #C3B43C",
"f. c #DEC635",
"g. c #E0C32F",
"h. c #E1CA38",
"j. c #9E9457",
"k. c #A69844",
"l. c #B0A246",
"z. c #838A65",
"x. c #8C846B",
"c. c #898D69",
"v. c #8B916B",
"b. c #979263",
"n. c #9A9363",
"m. c #95976D",
"M. c #8B8C73",
"N. c #918C74",
"B. c #889777",
"V. c #939C79",
"C. c #88A57D",
"Z. c #ADA66C",
"A. c #DC8741",
"S. c #E78D41",
"D. c #C9B94A",
"F. c #C9BB57",
"G. c #D1C65A",
"H. c #E7D44B",
"J. c #E6D65A",
"K. c #E9D758",
"L. c #CDC162",
"P. c #EEDF66",
"I. c #F0E16D",
"U. c #F2E575",
"Y. c #F3E679",
"T. c #729F81",
"R. c #7BAC87",
"E. c #8E9C86",
"W. c #939B85",
"Q. c #85A685",
"!. c #87AB8A",
"~. c #92A583",
"^. c #90A28C",
"/. c #97AB88",
"(. c #8DB48D",
"). c #97B28B",
"_. c #97B68C",
"`. c #8BA491",
"'. c #8DAB92",
"]. c #91A893",
"[. c #94AC93",
"{. c #94B394",
"}. c #92BD95",
"|. c #9BBB95",
" X c #95B49A",
".X c #9ABD99",
"XX c #A7B987",
"oX c #94C596",
"OX c #9CC395",
"+X c #97C897",
"@X c #9AC997",
"#X c #94C398",
"$X c #9EC49A",
"%X c #9DCB98",
"&X c #A0CC99",
"*X c #DCD490",
"=X c #F7EC87",
"-X c #F6EC8B",
";X c #F8EF97",
":X c #FBF2AC",
">X c #FBF6BC",
",X c #F9F4C3",
"<X c #FDFADF",
"1X c #FDFBE8",
/* pixels */
"oXoXoXoXoXoXoXoXoXoXoXoXoXoXoXoXoXoXoXoXoXoXoXoXoXoXoXoXoXoXoXoXoXoXoXoXoXoXoXoXoXoXoXoXoXoXoXoXoXoX",
"oXoXoXoXoXoXoXoXoXoXoXoXoXoXoXoXoXoXoXoXoXoXoXoXoXoXoXoXoXoXoXoXoXoXoXoXoXoXoXoXoXoXoXoXoXoXoXoXoXoX",
"oXoXoXoXoXoXoXoXoXoXoXoXoXoXoXoXoXoXoXoXoXoXoXoXoXoXoXoXoXoXoXoXoXoXoXoXoXoXoXoXoXoXoXoXoXoXoXoXoXoX",
"oXoXoXoXoXoXoXoXoXoXoXoXoXoXoXoXoXoXoXoXoXoXoXoXoXoXoXoXoXoXoXoXoXoXoXoXoXoXoXoXoXoXoXoXoXoXoXoXoXoX",
"oXoXoXoXoXoXoXoXoXoXoXoXoXoXoXoXoXoXoXoXoXoXoXoXoXoXoXoXoXoXoXoXoXoXoXoXoXoXoXoXoXoXoXoXoXoXoXoXoXoX",
"oXoXoXoXoXoXoXoXoXoXoXoXoXoXoXoXoXoXoXoXoXoXoXoXoXoXoXoXoXoXoXoXoXoXoXoXoXoXoXoXoXoXoXoXoXoXoXoXoX+X",
"@X+XoXoXoXoXoXoXoXoXoXoXoXoXoXoXoXoXoXoXoXoXoXoXoXoXoXoXoXoXoXoXoXoXoXoXoXoXoXoXoXoXoXoXoXoXoXoX+X@X",
"%X@X@XoXoXoXoXoXoXoXoXoXoXoXoXoXoXoXoXoXoXoXoXoXoXoXoXoXoXoXoXoXoXoXoXoXoXoXoXoXoXoXoXoXoXoXoX+X@X%X",
"&X&X%X%X+XoXoXoXoXoXoXoXoXoXoXoXoXoXoXoXoXoXoXoXoXoXoXoXoXoXoXoXoXoXoXoXoXoXoXoXoXoXoXoXoX+X%X&X&X&X",
"&X&X&X%X@X@XoXoXoXoXoXoXoXoXoXoXoXoXoXoXoXoXoXoXoXoXoXoXoXoXoXoXoXoXoXoXoXoXoXoXoXoXoX+X@X%X%X&X&X&X",
"&X&X&X&X%X@X+X+XoXoXoXoXoXoXoXoXoXoXoXoXoXoXoXoXoXoXoXoXoXoXoXoXoXoXoXoXoXoXoXoXoXoX+X+X@X%X&X&X&X&X",
"&X&X&X&X&X%X%X@XoXoXoXoXoXoXoXoXoXoXoXoXoXoXoX+XoXoXoXoXoXoXoXoXoXoXoXoXoXoXoXoXoXoX@X%X%X&X&X&X&X&X",
"&X&X&X&X&X&X%X%X@X+XoXoXoXoXoXoXoXoXoXoXoXoXoX!.B V R.}.oXoXoXoXoXoXoXoXoXoXoXoX+X@X%X&X&X&X&X&X&X&X",
"&X&X&X&X&X&X&X&X%X@X@XoXoXoXoXoXoXoXoXoXoX}.R.8.a y N T.}.oXoXoXoXoXoXoXoXoXoX+X@X&X&X&X&X&X&X&X&X&X",
"&X&X&X&X&X&X&X&X%X%X@X@XoXoXoXoXoXoXoXoX}.q.w.w.7.u r m  XoXoXoXoXoXoXoXoXoX@X%X%X&X&X&X&X&X&X&X&X&X",
"&X&X&X&X&X&X&X&X&X&X&X%X+XoXoXoXoXoXoXoX!.N 7.7.y   r i 0.9.!.}.oXoXoXoX@X@X%X&X&X&X&X&X&X&X&X&X&X&X",
"&X&X&X&X&X&X&X&X&X&X&X&X%X+X+X#XoXoXoX}.`.p 5.5.p s 4.6.p t 0.!.oXoXoX+X+X%X&X&X&X&X&X&X&X&X&X&X&X&X",
"&X&X&X&X&X&X&X&X&X&X&X&X&X%X+X#XoXoXoX}.'.N f f s s d 4.6.7.i 8. X+X+X%X&X&X&X&X&X&X&X&X&X&X&X&X&X&X",
"&X&X&X&X&X&X&X&X&X&X&X&X&XQ.E.q.q.(.oX#X X^.b h h h i i d N j V  Xe.T.).&X&X&X&X&X&X&X&X&X&X&X&X&X&X",
"&X&X&X&X&X&X&X&X&X&X&XOX/.= $ $ $ E.Q.R.`.Z.*X;X;X-XZ.n = ^.!.!.~.$ * n XX_.&X&X&X&X&X&X&X&X&X&X&X&X",
"&X&X&X&X&X&X&X&X&X&X_.V.J } ....+.Z % 1 b.,X1X1X>X-X-XY.J.0 = - S X..... .;./.OX&X&X&X&X&X&X&X&X&X&X",
"&X&X&X&X&X&X&X&X&XOXx.H  .X.......| Z l b.,X<X1X>X-X-XU.J.0 3 S E ~ E E E E 8 B.&X&X&X&X&X&X&X&X&X&X",
"&X&X&X&X&X&X&X&X&X|.V o C {  . .| > $ = n.;X-X-X-X-X-XY.J.0 + X . . . . X . . V &X&X&X&X&X&X&X&X&X&X",
"&X&X&X&X&X&X&X&X&X{.2.2 > O . . o C > 8 b.,X,X:X=X-X=XU.K.0 6 I +.+.X.+.+.+.2 c.&X&X&X&X&X&X&X&X&X&X",
"&X&X&X&X&X&X&X&X&X[.2.Z +...+.+.....S 8 n.-X-X-X=X=XP.H.f.0 3 I } ........X.K N.&X&X&X&X&X&X&X&X&X&X",
"&X&X&X&X&X&X&X&X&X&X|.W.C  .....+.> * # n.-X-XY.K.h.h.g.f.0 + % Z +.....{ : [.$X&X&X&X&X&X&X&X&X&X&X",
"&X&X&X&X&X&X&X&X&X].2.C : O . . . > > l n.-XI.D.q X 9 / 0 C R U ; o . . O C 6 x.$X&X&X&X&X&X&X&X&X&X",
"&X&X&X&X&X&X&X&X&X].2.Z  . . . . .%.) K _ h.t.9 F u.^ 4 A &.a.i.&.| X.| }  .> 2..X&X&X&X&X&X&X&X&X&X",
"&X&X&X&X&X&X&X&X&X&X/.W.Z &.*.S.S.S.A.$.7 + < ( s.g.r.9 A *.a.a.S.S.S.*.O.2 W. X&X&X&X&X&X&X&X&X&X&X",
"&X&X&X&X&X&X&X&X&X{.x.K : J ' p.S.S.S.A.o.; 9 t.h./ F P O.a.S.S.S.S.*.! H 2 l 2.$X&X&X&X&X&X&X&X&X&X",
"&X&X&X&X&X&X&X&X[.>.` O.| 2 - & P S.S.S.a.O.P 5 = 3 ] *.a.S.S.S.A.L & - C | O.<.>..X&X&X&X&X&X&X&X&X",
"&X&X&X&X&X%XOX/.;.3.A.p.#.~ T Q $.S.S.S.a.a.O.~ Y O.i.a.S.S.S.S.S.o.Q T | %.p.A.3.:..X&X&X&X&X&X&X&X",
"&X&X&X&X&X&X.XE.L A.S.S.i.%.@.+.@.#.=.p.S.S.p.p.=.p.S.S.S.S.=.=.@.@...@.%.a.S.S.A.6 |.&X&X&X&X&X&X&X",
"&X&X&X&X&X|.V.,.3.A.S.S.S.p.i.*.#.....#.%.%.%.#.%.%.%.%.#.#.@.@...#.=.=.p.S.S.S.A.[ >.~.&X&X&X&X&X&X",
"&X&X&X&X&X[.N.) S.S.S.S.S.a.S.S.a.=.=.#.....................@.=.=.a.a.S.S.S.S.S.S.S.K N..X&X&X&X&X&X",
"&X&X&X&X Xx.1.$.S.S.S.*.p.S.S.S.a.a.p.a.=.=.=.%.%.=.=.=.=.=.=.a.a.S.S.S.S.=.p.p.S.S.[ ,.N.&X&X&X&X&X",
"&X&X&X&X].;.] S.=.*.*.%.p.S.S.S.S.S.S.S.S.S.S.S.a.S.S.S.S.S.S.S.S.S.S.S.S.p.*.*.*.i.a.` :.&X&X&X&X&X",
"&X&X&X&X^.;.[ 3.W U o.*.S.S.S.S.S.S.S.S.S.S.S.S.S.S.S.S.S.S.S.S.S.S.S.a.S.S.%.| I ' i.` -.&X&X&X&X&X",
"&X&X$X|.x.1.] ! > D o.*.S.p.p.a.S.S.S.S.S.S.S.S.S.S.S.S.S.S.S.S.S.a.a.a.p.a.=.| S 2 ] ] 1.C.&X&X&X&X",
"&X&X|.^.5 L L G I } #.=.S.=.p.p.S.S.S.S.S.S.S.S.S.S.S.S.S.S.S.S.a.=.a.p.=.=.%.@.} S K L ) z OX&X&X&X",
"&X$X{.V.g k z :.T } @.%.p.a.a.a.p.a.S.S.S.S.S.S.S.S.S.a.S.p.p.i.%...%.i.a.p.%...} Y :.z k g ).|.&X&X",
"&X{.~.n.>.^.{.'.-.Q { ..%.*.*.*.p.a.S.S.S.S.S.a.S.S.S.a.S.*.p.*.*.#.*.*.*.%...E ! v [.].E.b.c.).%X%X",
"%X[.W.b.j.m.q.q.M.K D { ....@.%.p.p.=.p.p.p.p.p.p.p.p.p.p.p.p.p.p.p.%.@.....~ S 8 B.q.B.m.Z.>.~.OX%X",
"+X{.^.m.G.k.q < ( ^ F C I R } ................................+.......} R I 2 ^ ( / < _ l.G.c.(.oX@X",
"+X+X}.`.b.F.D.y.y.t.^ , w l P Q Y Y Y Y Y Y Y Y T Y Y ! ! ! ! ! ! ! ! J , X 4 ( y.d.d.G.L.9._.OXoX+X",
"oXoX}.[.m.v.b @ @ w @ e  X'.M w @ @ @ @ @ @ @ @ @ @ w e e e j j j j j x x c x c c c c q.C.z.oXOXoXoX",
"oXoXoXoX'.{.|.oXoXoXoXoXoXoX}.oXoXoXoXoXoXoXoXoXoXoXoXoXoXoXoXoXoXoX+XoXoXoXoXoX@XoXoXoXoXoXoXoXoXoX",
"oXoXoXoXoXoXoXoXoXoXoXoXoXoXoXoXoXoXoXoXoXoXoXoXoXoXoXoXoXoXoXoXoXoXoXoXoXoXoXoXoXoXoXoXoXoXoXoXoXoX",
"oXoXoXoXoXoXoXoXoXoXoXoXoXoXoXoXoXoXoXoXoXoXoXoXoXoXoXoXoXoXoXoXoXoXoXoXoXoXoXoXoXoXoXoXoXoXoXoXoXoX",
"oXoXoXoXoXoXoXoXoXoXoXoXoXoXoXoXoXoXoXoXoXoXoXoXoXoXoXoXoXoXoXoXoXoXoXoXoXoXoXoXoXoXoXoXoXoXoXoXoXoX"
};
