/* XPM */
static char *result[] = {
/* columns rows colors chars-per-pixel */
"50 50 208 2 ",
"   c #2B202C",
".  c #39272D",
"X  c #4B2E2E",
"o  c #56322E",
"O  c #56382E",
"+  c #583A33",
"@  c #6D3C2F",
"#  c #753E2E",
"$  c #643A31",
"%  c #574B2D",
"&  c #5E502F",
"*  c #5E463B",
"=  c #7B422F",
"-  c #67552B",
";  c #7A5B2F",
":  c #6C4636",
">  c #784633",
",  c #68573F",
"<  c #7E6628",
"1  c #363E43",
"2  c #1E5E5F",
"3  c #3B4547",
"4  c #2B564F",
"5  c #286958",
"6  c #326A55",
"7  c #1E6F6A",
"8  c #237969",
"9  c #31716A",
"0  c #5A4C43",
"q  c #5D554A",
"w  c #475652",
"e  c #6F5C4F",
"r  c #795A46",
"t  c #635B56",
"y  c #4D665B",
"u  c #52635D",
"i  c #696556",
"p  c #6B745A",
"a  c #7B7455",
"s  c #585F62",
"d  c #586D60",
"f  c #467E6D",
"g  c #676A62",
"h  c #687769",
"j  c #71776B",
"k  c #737B73",
"l  c #A2721F",
"z  c #934F2F",
"x  c #8C5C29",
"c  c #94512C",
"v  c #864831",
"b  c #9B4D31",
"n  c #865734",
"m  c #985734",
"M  c #A5502F",
"N  c #AB532E",
"B  c #BB592F",
"V  c #A34F30",
"C  c #A55634",
"Z  c #AB5432",
"A  c #AB5A34",
"S  c #B35732",
"D  c #BC5B31",
"F  c #94742D",
"G  c #856933",
"H  c #B66537",
"J  c #B4643D",
"K  c #BB743E",
"L  c #C35A2F",
"P  c #CD5E2F",
"I  c #C65E31",
"U  c #D3612F",
"Y  c #C46334",
"T  c #CB6433",
"R  c #C66B36",
"E  c #D36431",
"W  c #D66A33",
"Q  c #D96E35",
"!  c #C8793D",
"~  c #DB7336",
"^  c #D27439",
"/  c #D3773A",
"(  c #DC7638",
")  c #DE7C3A",
"_  c #E07E3B",
"`  c #835D46",
"'  c #9B5D42",
"]  c #876748",
"[  c #9A6647",
"{  c #976E55",
"}  c #8D7250",
"|  c #977659",
" . c #B26D42",
".. c #A87347",
"X. c #B37644",
"o. c #897866",
"O. c #887C6B",
"+. c #1F8375",
"@. c #328F69",
"#. c #399769",
"$. c #269174",
"%. c #2EA275",
"&. c #4B8E6D",
"*. c #589976",
"=. c #66836D",
"-. c #7C8664",
";. c #62857A",
":. c #768978",
">. c #79987B",
",. c #59A277",
"<. c #98823A",
"1. c #A28E39",
"2. c #AA9835",
"3. c #B8A434",
"4. c #D5843F",
"5. c #DE813D",
"6. c #E2843D",
"7. c #E4893F",
"8. c #D5B832",
"9. c #D4BF38",
"0. c #928D54",
"q. c #AA9C4A",
"w. c #B9A94A",
"e. c #ACA65B",
"r. c #89846D",
"t. c #998968",
"y. c #88916D",
"u. c #969A65",
"i. c #8E8D77",
"p. c #878C78",
"a. c #968D75",
"s. c #849B7E",
"d. c #8B9A7C",
"f. c #A89F68",
"g. c #80A07E",
"h. c #93A57A",
"j. c #A9A26B",
"k. c #B2A566",
"l. c #A2A87A",
"z. c #AFAB7C",
"x. c #B8B879",
"c. c #D68340",
"v. c #DC8740",
"b. c #E78D41",
"n. c #C0BB6F",
"m. c #DAC646",
"M. c #EBD95A",
"N. c #CEC876",
"B. c #D5CD77",
"V. c #E5D66A",
"C. c #EDDF72",
"Z. c #F3E577",
"A. c #7C8B84",
"S. c #6F9E81",
"D. c #7C9984",
"F. c #7BA988",
"G. c #7AB188",
"H. c #879A87",
"J. c #8E908D",
"K. c #82A285",
"L. c #8AA788",
"P. c #85AD8B",
"I. c #94A585",
"U. c #95A788",
"Y. c #93AC8B",
"T. c #89B58E",
"R. c #92B48E",
"E. c #9AB48B",
"W. c #90A696",
"Q. c #8EBA91",
"!. c #9DB493",
"~. c #93BC94",
"^. c #98B896",
"/. c #AEAD8C",
"(. c #A1B797",
"). c #A1B4A0",
"_. c #B3B9B7",
"`. c #94C596",
"'. c #9AC596",
"]. c #97C897",
"[. c #9AC997",
"{. c #96C598",
"}. c #9CC39B",
"|. c #9DCB98",
" X c #A2C39A",
".X c #A0CC99",
"XX c #9CC7A1",
"oX c #AAC5A7",
"OX c #A6CBA1",
"+X c #A9CAA3",
"@X c #B1C6AF",
"#X c #BAC7B7",
"$X c #DCD384",
"%X c #DCD59D",
"&X c #F5E982",
"*X c #F6EC89",
"=X c #F7ED92",
"-X c #DCD8AE",
";X c #F8F1A5",
":X c #F9F3B3",
">X c #C9D2C7",
",X c #DCDEDD",
"<X c #FBF8CF",
"1X c #E2E4E1",
"2X c #EBF4EB",
"3X c #FDFBE3",
"4X c #F4F7F4",
"5X c #FDFEFD",
/* pixels */
"`.`.`.`.`.`.`.`.`.`.`.`.`.`.`.`.`.`.`.`.`.`.`.`.`.`.`.`.`.`.`.`.`.`.`.`.`.`.`.`.`.`.`.`.`.`.`.`.`.`.",
"`.`.`.`.`.`.`.`.`.`.`.`.`.`.`.`.`.`.`.`.`.`.`.`.`.`.`.`.`.`.`.`.`.`.`.`.`.`.`.`.`.`.`.`.`.`.`.`.`.`.",
"`.`.`.`.`.`.`.`.`.`.`.`.`.`.`.`.`.`.`.`.`.`.`.`.`.`.`.`.`.`.`.`.`.`.`.`.`.`.`.`.`.`.`.`.`.`.`.`.`.`.",
"`.`.`.`.`.`.`.`.`.`.`.`.`.`.`.`.`.`.`.`.`.`.`.`.`.`.`.`.`.`.`.`.`.`.`.`.`.`.`.`.`.`.`.`.`.`.`.`.`.`.",
"].`.`.`.`.`.`.`.`.`.`.`.`.`.`.`.`.`.`.`.`.`.`.`.`.`.`.`.`.`.`.`.`.`.`.`.`.`.`.`.`.`.`.`.`.`.`.`.`.].",
"|.].`.`.`.`.`.`.`.`.`.`.`.`.`.`.`.`.`.`.`.`.`.`.`.`.`.`.`.`.`.`.`.`.`.`.`.`.`.`.`.`.`.`.`.`.`.].].].",
"|.|.].`.`.`.`.`.`.`.`.`.`.`.`.`.`.`.`.`.`.`.`.`.`.`.`.`.`.`.`.`.`.`.`.`.`.`.`.`.`.`.`.`.`.`.`.].|..X",
".X|.|.].`.`.`.`.`.`.`.`.`.`.`.`.`.`.`.`.`.`.`.`.`.`.`.`.`.`.`.`.`.`.`.`.`.`.`.`.`.`.`.`.`.`.].|..X.X",
".X.X.X|.[.].`.`.`.`.`.`.`.`.`.`.`.`.`.`.`.`.`.`.`.`.`.`.`.`.`.`.`.`.`.`.`.`.`.`.`.`.`.`.[.[.[..X.X.X",
".X.X.X|.|.[.].`.`.`.`.`.`.`.`.`.`.`.`.`.`.`.`.~.>.:.Q.].`.`.`.`.`.`.`.`.`.`.`.`.`.`.`.[.[..X.X.X.X.X",
".X.X.X.X.X|.[.[.`.`.`.`.`.`.`.`.`.`.`.`.`.`.~.G.*.&.S.T.].].`.`.`.`.`.`.`.`.`.`.`.[.[.[.|.|..X.X.X.X",
".X.X.X.X.X.X.X[.].].`.`.`.`.`.`.`.`.`.`.`.Q.G.,.#.6 6 u d d u :.P.`.`.`.`.`.`.`.`.[.|..X.X.X.X.X.X.X",
".X.X.X.X.X.X.X.X|.[.`.`.`.`.`.`.`.`.`.`.`.P.*.#.@.2 4 4 5 6 6 =.F.`.`.`.`.`.`.[.[.|..X.X.X.X.X.X.X|.",
".X.X.X.X.X.X.X.X|.|.[.`.].`.`.`.`.`.`.`.`.F.*.@.$.7 8 $.%.%.&.F.T.].`.`.`.`.[.[.|..X.X.X.X.X.X.X.X.X",
".X.X.X.X.X.X.X.X.X.X|.[.].`.`.`.`.`.`.`.`.T.>.f 2 2 2 8 +.+.;.Q.].].].].`.[.[.|..X.X|..X.X.X.X.X.X.X",
".X.X|..X.X.X.X.X.X.X.X|.[.`.T.T.>.>.P.`.`.Q.g.y.a a p u 9 9 D.Q.Q.>.=.>.`.[.|..X.X.X|..X.X.X.X.X.X.X",
".X.X.X|..X.X.X.X.X.X.X.X|.K.:.^.A.W.H.K.H.I./.%X;X=X$Xk.0.j s.g.D.A.s J.T.'..X.X.X.X.X.X.X.X.X.X|.|.",
".X.X.X.X.X.X|.|..X.X.X.X'.s.@X4X5X5X>XA.t /.-X3X3X;X=X&XV.w., k _.5X5X4XoXR. X.X.X.X.X.X.X.X.X.X.X|.",
".X.X.X.X.X.X.X.X.X.X.X.XR.>.).4X5X4X>X_.O./.-X<X<X;X=X&XV.w.} @X4X5X5X5X2XR.R..X.X.X|..X.X|..X.X.X.X",
".X.X.X.X.X.X.X|..X.X.X.XL.k j #X,X1XW.s 0 j.$X=X=X*X*X&XV.w.& t O.>X,X>XJ.j :. X.X.X.X.X.X.X.X.X.X.X",
".X.X.X.X.X.X.X.X.X.X.X.XY.O.v @ o o @ v ` z.%X:X;X=X*XZ.V.3.; > # $ X $ = ` i..X.X.X.X.X.X.X.X.X.X.X",
".X.X.X.X.X.X|..X.X.X.X.XE.a.C T U P L V ` f.B.&X*XZ.Z.M.m.3.; c S P P P S { I.|..X.X.X.X.X.X.X.X.X.X",
".X.X.X.X.X.X.X.X.X.X.X.X XE.O.b S S v o 0 f.B.&XC.m.m.9.8.2.& O # M D V { I. X.X.X.X|..X.X|..X.X.X.X",
".X.X.X.X.X.X.X.X.X.X.X.XU.o.# o . . o = ` k.B.V.w.% % - < n M C = X   X # r i..X.X.X.X.X.X.X.X.X.X.X",
".X.X.X.X.X.X.X.X.X.X.X.XE.o.C T E W R H G 1.2.1.< l l x ; A ) 5.) W T U S [ i.OX.X.X.X.X.X.X.X.X.X|.",
".X.X.X.X.X.X.X.X.X.X.X.X!.| A _ b.b.b.b.K : % - 1.8.8.F x M 6.7.b.7.b.6.H { i.oX.X.X.X.X.X.X.X.X.X.X",
".X.X.X.X[..X.X.X.X.X|.|.OX(.r.A ^ 6.7.b._ H m G 2.3.F x H 6.b.b.7.7.5.H | I.oX|..X.X.X.X.X.X.X.X.X.X",
".X.X.X.X.X.X.X.X.X.XOXD.t + v # m R 7.7.7.6.R b O O x D ) b.b.b.7./ H = > : 0 j .X.X.X.X|..X.X|..X.X",
".X.X.X.X.X.X.X.X^.:.* [ K ^ T N @ + > K b.b.6./ R T ( 7.7.b.b.! m * o b I ^ ! ..0 g K..X.X.X.X.X.X.X",
".X.X.X.X.X.Xd.p e ..K c.b.7.) W I S H T ~ 6.7.b.7.6.7.7.b.6.( T I B S P ~ 6.7.b./ X.] i :..X.X.X.X.X",
".X.X.X^.:.q [ X.4.c.b.b.b.b.7.6.~ E U U U E W W W W W W W W E U U U W ) 6.b.b.b.b.7.c.X...i k L..X.X",
".XOX!.d...4.c.7.b.b.b.b.b.b.7.7.6.6.6.6._ Q E U U U U U U W ) 6.6.7.6.b.b.b.b.b.b.b.b.b.v.! X.t.U.+X",
".X+XY.j O + > m H ( 7.b.b.b.b.b.b.b.b.b.b.6.6.6.6.6._ _ 7.7.7.7.b.b.b.b.b.b.b.b.6.) T A ` , : i p.oX",
".X.X~.L.>.>.H.r.r > J ) 7.b.b.b.b.b.b.b.b.b.b.b.b.b.b.7.b.b.7.7.b.b.b.b.b.b.b.6.K z r o.H.>.>.K.^..X",
".X.X.X.X.X.X.X^.L.p.|  ./ 7.b.b.b.b.b.b.b.b.b.b.b.b.b.b.b.b.b.b.b.b.b.b.b.b.4.R { O.d.Y.OX.X.X.X.X.X",
".X.X.X.X.X.X.X.X.X.Xp.[ H Q _ 7.b.b.b.b.b.b.b.b.b.b.b.b.b.b.b.b.b.b.b.7._ ( T A o.(..X.X|..X.X.X.X.X",
".X.X.X.X.X.X.X.X XU.| J T W _ 6.b.b.b.b.b.b.b.b.b.b.b.b.b.b.7.b.b.b.b.7._ _ U D [ a.!.OX.X.X.X.X.X.X",
".X.X.X.X.X.X.X.X(.i.[ T Q _ 6.6.6.b.6.b.b.b.b.b.b.b.b.b.b.b.7.7.b.b.7.7._ _ Q W N { U.+X.X.X.X.X.X.X",
".X.X.X.X|..X.X|.^.Y.|  .~ 6.7.7.6.6.7.b.b.b.b.b.b.b.b.b.b.b.7._ 7._ 6.7._ _ _ Y ' a.!..X.X.X.X|..X.X",
".X.X.X.X.X}.|.`.].{.d.[ R _ 7.b.b.6.6.6.b.b.b.b.b.b.b.b.7.7.6._ Q _ _ 7.7._ Q Z o.^.}.|..X}..X.X.X.X",
".X.X.X.X XY.~.`.~.Q.y.G Z T ( _ _ _ _ _ b.b.b.b.b.b.7.7.6.6._ ) ( ( ) _ ) W H c ] H.R.~.E.I.!.(..X.X",
".X.XOX XI.l.l.l.h.u.1.F c m L E E Q _ _ _ _ _ _ _ _ _ _ ) ) ) ) _ ~ W E I N c x l 0.u.d.l.j.h.!.+X.X",
".X|..X XE.x.x.k.q.3.3.1.} ] ' Z L P U U U U U U U U U U U U T U U P Y S m ] ] <.3.3.q.e.n.x.E.^..X.X",
"|.|.].`.}.T./.n.N.e.-.>.P.P.A.q ` m M V V M M M M Z C A A J J J J  ...p :.P.Q.>.p u.n.B.x.R.`.|.].|.",
"].].`.`.{.XXR.I.K.Y.}.{.`.`.`.{.D.u 1 1 1 1 1 1 3 3 w w y d h =.=.:.`.`.`.`.`.`.`.R.L.I.Y.`.`.].`.].",
"].`.`.`.`.`.XX^.^.}.`.`.`.`.`.`.`.`.`.`.`.`.`.`.`.`.`.`.`.`.`.`.].{.`.`.`.`.`.`.`.`.`.~.`.`.`.`.`.`.",
"`.`.`.`.`.`.`.`.`.`.`.`.`.`.`.`.`.`.`.`.`.`.`.`.`.`.`.`.`.`.`.`.`.`.`.`.`.`.`.`.`.`.`.`.`.`.`.`.`.`.",
"`.`.`.`.`.`.`.`.`.`.`.`.`.`.`.`.`.`.`.`.`.`.`.`.`.`.`.`.`.`.`.`.`.`.`.`.`.`.`.`.`.`.`.`.`.`.`.`.`.`.",
"`.`.`.`.`.`.`.`.`.`.`.`.`.`.`.`.`.`.`.`.`.`.`.`.`.`.`.`.`.`.`.`.`.`.`.`.`.`.`.`.`.`.`.`.`.`.`.`.`.`.",
"`.`.`.`.`.`.`.`.`.`.`.`.`.`.`.`.`.`.`.`.`.`.`.`.`.`.`.`.`.`.`.`.`.`.`.`.`.`.`.`.`.`.`.`.`.`.`.`.`.`."
};
