/* XPM */
static char *result[] = {
/* columns rows colors chars-per-pixel */
"50 50 158 2 ",
"   c #77A057",
".  c #77A157",
"X  c #78A057",
"o  c #78A157",
"O  c #77A058",
"+  c #77A158",
"@  c #77A258",
"#  c #78A158",
"$  c #79A158",
"%  c #79A159",
"&  c #79A258",
"*  c #7BA358",
"=  c #7AA259",
"-  c #7AA359",
";  c #7BA458",
":  c #7CA458",
">  c #7CA459",
",  c #7DA459",
"<  c #7DA559",
"1  c #7EA659",
"2  c #7EA55A",
"3  c #7EA65A",
"4  c #7FA65A",
"5  c #81A759",
"6  c #80A75A",
"7  c #81A85A",
"8  c #83A85A",
"9  c #83A95A",
"0  c #84AA5A",
"q  c #84AB5B",
"w  c #86AB5B",
"e  c #87AB5B",
"r  c #86AC5B",
"t  c #87AC5C",
"y  c #88AD5C",
"u  c #89AE5C",
"i  c #89AE5D",
"p  c #8AAE5C",
"a  c #8BAE5C",
"s  c #8AAF5C",
"d  c #8BAF5C",
"f  c #8AAE5D",
"g  c #8BAF5D",
"h  c #8CB05D",
"j  c #8DB15D",
"k  c #8EB15D",
"l  c #8EB25D",
"z  c #8FB35D",
"x  c #8EB15E",
"c  c #8FB25E",
"v  c #90B25E",
"b  c #90B35E",
"n  c #90B35F",
"m  c #90B45E",
"M  c #91B45E",
"N  c #93B65F",
"B  c #94B65F",
"V  c #95B75F",
"C  c #96B85F",
"Z  c #96B760",
"A  c #97B860",
"S  c #98B960",
"D  c #99BA60",
"F  c #9ABA60",
"G  c #9ABB60",
"H  c #9BBB60",
"J  c #9BBB61",
"K  c #9CBC61",
"L  c #9CBD61",
"P  c #9DBD61",
"I  c #9EBD61",
"U  c #9DBD62",
"Y  c #9EBE62",
"T  c #9FBE62",
"R  c #A0BF62",
"E  c #A1BF62",
"W  c #A0BF63",
"Q  c #A1C062",
"!  c #A2C062",
"~  c #A2C063",
"^  c #A2C163",
"/  c #A3C163",
"(  c #A3C263",
")  c #A4C163",
"_  c #A4C263",
"`  c #A5C263",
"'  c #A5C363",
"]  c #A3C164",
"[  c #A5C264",
"{  c #A5C364",
"}  c #A6C364",
"|  c #A7C365",
" . c #A7C464",
".. c #A6C465",
"X. c #A7C465",
"o. c #A8C465",
"O. c #A8C565",
"+. c #A9C565",
"@. c #A9C665",
"#. c #A8C566",
"$. c #A9C566",
"%. c #AAC666",
"&. c #ABC666",
"*. c #ABC766",
"=. c #ABC767",
"-. c #ACC766",
";. c #ACC767",
":. c #ACC867",
">. c #ADC867",
",. c #ADC868",
"<. c #AEC868",
"1. c #AEC968",
"2. c #AFC968",
"3. c #B0C968",
"4. c #B0CA68",
"5. c #B0CA69",
"6. c #B1CA69",
"7. c #B1CB69",
"8. c #B2CB69",
"9. c #B2CB6A",
"0. c #B3CB6A",
"q. c #B3CC6A",
"w. c #B4CC6A",
"e. c #B5CD6A",
"r. c #B4CC6B",
"t. c #B4CD6B",
"y. c #B5CD6B",
"u. c #B6CD6B",
"i. c #B6CE6B",
"p. c #B7CE6B",
"a. c #B6CE6C",
"s. c #B7CE6C",
"d. c #B7CF6C",
"f. c #B8CE6C",
"g. c #B8CF6C",
"h. c #B8CF6D",
"j. c #B9CF6D",
"k. c #B9D06D",
"l. c #BAD06D",
"z. c #BBD16D",
"x. c #BAD06E",
"c. c #BBD06E",
"v. c #BAD16E",
"b. c #BBD16E",
"n. c #BCD16D",
"m. c #BCD16E",
"M. c #BCD26E",
"N. c #BDD26E",
"B. c #BCD26F",
"V. c #BDD26F",
"C. c #BED26E",
"Z. c #BED26F",
"A. c #BED36F",
"S. c #BFD36F",
"D. c #BFD370",
"F. c #BFD470",
"G. c #C0D470",
"H. c None",
/* pixels */
"H.  # y P _ { %.y.G.G.G.j.u.l.G.G.G.s.y.A.G.G.G.G.G.N.b.F.G.c.a.s.G.G.G.G.G.G.G.Z.s.y.s.%.' G p , % ",
"H.+ * x T { =.y.A.G.G.G.S.A.D.G.G.G.A.A.G.G.G.G.G.G.g.a.S.G.D.A.A.G.G.G.G.G.G.G.G.A.A.A.y.%._ A r X ",
"H.  7 B Q X.2.j.G.G.G.G.G.G.G.G.G.G.G.G.G.G.G.G.G.G.l.j.S.G.G.G.G.G.G.G.S.S.F.G.G.G.G.G.x.2. .H s - ",
"H.  f R _ @.q.M.G.G.G.G.G.G.G.G.G.G.G.G.G.G.G.G.G.G.G.G.G.G.G.G.G.G.G.G.N.b.A.G.G.G.G.G.G.u.+.P l 4 ",
"H.; c Q } %.5.g.G.G.G.G.G.G.G.G.G.G.G.G.G.G.G.G.G.G.G.G.G.G.G.G.G.G.G.G.j.s.M.G.G.G.C.M.G.u.+./ G j ",
"H.5 Z ^ O.2.y.l.G.G.G.G.F.S.F.G.G.G.G.G.G.G.G.G.G.G.G.G.G.G.G.G.G.G.G.G.x.j.V.G.G.G.z.k.F.s.%._ K z ",
"H.a ^ _ >.k.G.G.G.G.G.G.C.m.V.G.G.G.G.G.G.G.G.G.G.G.G.G.G.G.G.G.G.G.G.G.G.G.G.G.G.F.s.y.D.j.>.) S s ",
"H.a ^ _ >.g.N.V.G.G.G.G.l.s.b.G.G.G.G.G.G.G.G.G.G.G.G.G.G.G.G.G.G.G.G.G.G.G.G.G.G.G.A.Z.G.M.8.W h > ",
"H.a ^ ` 1.s.l.b.G.G.G.G.b.j.m.G.G.G.G.G.G.G.G.G.G.G.G.G.G.G.G.G.G.G.G.G.G.G.G.G.G.G.G.G.G.m.8.T s = ",
"H.a ^ X.7.a.a.s.G.G.G.G.G.G.G.G.G.G.G.G.G.G.G.G.G.G.G.G.G.G.G.G.G.G.G.G.G.G.G.G.G.G.G.G.G.j.>.T l 4 ",
"H.a ^ :.k.Z.Z.A.G.G.G.G.G.G.G.G.G.G.G.G.G.G.G.G.G.G.G.G.G.G.G.G.G.G.G.G.G.G.G.G.G.G.G.G.G.A.y.O.F j ",
"H.a ^ <.b.F.G.G.G.G.G.G.G.G.G.G.G.G.G.G.G.G.G.G.G.G.G.G.G.G.G.G.G.G.G.G.G.G.G.G.G.G.G.G.G.G.f.*.P M ",
"H.a ^ -.d.A.G.G.G.G.G.G.G.G.G.G.G.G.G.G.G.G.G.G.G.G.G.G.G.G.G.G.G.G.G.G.G.G.G.G.G.G.G.G.G.G.f.*.P M ",
"H.a ^ O.q.z.V.V.G.G.G.G.G.G.G.G.G.G.G.G.G.G.G.G.G.G.G.G.G.G.G.G.G.G.G.G.G.G.G.G.G.G.G.G.G.G.f.*.P M ",
"H.a ^ #.r.l.z.b.G.G.G.G.G.G.G.G.G.G.G.G.G.G.G.G.G.G.G.G.G.G.G.G.G.G.G.G.G.G.G.G.D.D.G.G.G.F.p.&.P M ",
"H.a ^ 1.m.c.a.s.G.G.G.G.G.G.G.G.G.G.G.G.G.G.G.G.G.G.G.G.G.G.G.G.G.G.G.G.G.G.G.S.N.b.G.G.G.C.q.+.P M ",
"H.e I ;.j.V.V.V.G.G.A.V.F.G.G.G.G.G.G.G.G.G.G.G.G.G.G.G.G.G.G.G.G.G.G.G.G.G.G.N.g.d.G.G.A.y.&.) D h ",
"H.8 S O.y.M.F.G.G.G.m.l.S.G.G.G.G.G.G.G.G.G.G.G.G.G.G.G.G.G.G.G.G.G.G.G.G.G.G.V.j.g.G.G.m.4. .R B r ",
"H.. f E *.y.V.G.G.G.f.y.Z.G.G.G.G.G.G.G.G.G.G.G.G.G.G.G.G.G.G.G.G.G.G.G.G.G.G.G.G.G.G.G.g.-.} G u # ",
"H.  f R o.7.b.G.G.G.V.N.F.G.G.G.G.G.G.G.G.G.G.G.G.G.G.G.G.G.G.G.G.G.G.G.G.G.G.G.G.G.G.G.m.3. .G y # ",
"H.o g E o.7.z.F.D.G.G.G.G.G.G.G.G.G.G.G.G.G.G.G.G.G.G.G.G.G.G.G.G.G.G.G.G.G.G.G.G.G.G.G.n.2. .G p & ",
"H.: n Q >.k.S.N.b.G.G.G.G.G.G.G.G.G.G.G.G.G.G.G.G.G.G.G.G.G.G.G.G.G.G.G.G.G.G.G.G.G.G.G.y. ._ L l 4 ",
"H.w K [ 5.b.V.j.d.G.G.G.G.G.G.G.G.G.G.G.G.G.G.G.G.G.G.G.G.G.G.G.G.G.G.G.G.G.G.G.G.G.G.G.s.%.' Q S g ",
"H.a ^ O.q.M.V.h.s.G.G.G.G.G.G.G.G.G.G.G.G.G.G.G.G.G.G.G.G.G.G.G.G.G.G.G.G.G.G.G.G.G.F.D.j.>.} _ P M ",
"H.a ^ 1.b.G.G.G.G.G.G.G.G.G.G.G.G.G.G.G.G.G.G.G.G.G.G.G.G.G.G.G.G.G.G.G.G.G.G.G.G.G.N.b.F.u.+._ P M ",
"H.a ^ >.k.S.G.G.G.G.G.G.G.G.G.G.G.G.G.G.G.G.G.G.G.G.G.G.G.G.G.G.G.G.G.G.G.G.G.G.G.F.k.d.F.u.+._ P M ",
"H.p Q %.i.V.G.G.G.G.G.G.G.G.G.G.G.G.G.G.G.G.G.G.G.G.G.G.G.G.G.G.G.G.G.G.G.G.G.G.G.F.h.s.D.u.+._ P M ",
"H.w K ( ,.l.G.G.G.G.G.G.G.G.G.G.G.G.G.G.G.G.G.G.G.G.G.G.G.G.G.G.G.G.G.G.G.G.G.G.G.G.G.F.G.u.+._ P M ",
"H.< M Q >.k.G.G.G.G.G.G.G.G.G.G.G.G.G.G.G.G.G.G.G.G.G.G.G.G.G.G.G.G.G.G.G.G.S.A.A.G.G.G.A.q.O._ P M ",
"H.o g R >.k.G.G.G.F.G.G.G.G.G.G.G.G.G.G.G.G.G.G.G.G.G.G.G.G.G.G.G.G.G.G.G.G.Z.b.m.G.G.G.N.6. ._ P b ",
"H.; b Q *.u.V.F.N.b.G.G.G.G.G.G.G.G.G.G.G.G.G.G.G.G.G.G.G.G.G.G.G.G.G.G.G.G.x.a.g.G.G.G.g.-.} Q S s ",
"H.0 J / O.9.b.S.l.g.G.G.G.G.G.G.G.G.G.G.G.G.G.G.G.G.G.G.G.G.G.G.G.G.G.G.G.G.V.m.M.G.A.V.m.0.%.Y c 6 ",
"H.a ^ _ o.6.l.A.g.a.G.G.G.G.G.G.G.G.G.G.G.G.G.G.G.G.G.G.G.G.G.G.G.G.G.G.G.G.G.G.G.G.M.v.F.l.2.U u & ",
"H.a ^ ..6.b.G.G.F.D.G.G.G.G.G.G.G.G.G.G.G.G.G.G.G.G.G.G.G.G.G.G.G.G.G.G.G.G.G.G.G.F.s.y.D.F.p.] k 3 ",
"H.a ^ $.t.V.G.G.G.G.G.G.G.G.G.G.G.G.G.G.G.G.G.G.G.G.G.G.G.G.G.G.G.G.G.G.G.G.G.G.G.G.m.b.G.G.f.o.C y ",
"H.a ^ *.s.A.G.G.G.G.G.G.G.G.G.G.G.G.G.G.G.G.G.G.G.G.G.G.G.G.G.G.G.G.G.G.G.G.G.G.G.G.G.G.G.G.s.&.P m ",
"H.a ^ X.9.m.G.G.G.G.G.G.G.G.G.G.G.G.G.G.G.G.G.G.G.G.G.G.G.G.G.G.G.G.G.G.G.G.G.G.G.G.G.G.G.A.w.| S d ",
"H.a ^ $.t.V.G.G.G.G.G.G.G.G.G.G.G.G.G.G.G.G.G.G.G.G.G.G.G.G.G.G.G.G.G.G.G.G.G.G.G.G.G.G.G.l.<.W b 7 ",
"H.p ! *.a.V.G.G.G.G.G.G.G.G.G.G.G.G.G.G.G.G.G.G.G.G.G.G.G.G.G.G.G.G.G.G.G.G.G.G.G.G.G.G.G.u.+.G u $ ",
"H.w K _ ;.a.V.G.G.G.G.G.G.G.G.G.G.G.G.G.G.G.G.G.G.G.G.G.G.G.G.G.G.G.G.G.G.G.G.S.N.M.G.G.C.8.o.K k 2 ",
"H.1 N ! +.q.b.G.G.S.A.G.G.G.G.G.G.G.G.G.G.G.G.G.G.G.G.G.G.G.G.G.G.G.G.G.G.G.G.V.l.k.G.G.z.2. .R V t ",
"H.. f R ..5.l.G.G.N.b.F.G.G.G.G.G.G.G.G.G.G.G.G.G.G.G.G.G.G.G.G.G.G.G.G.G.G.G.m.s.a.G.G.g.-.} _ P M ",
"H.; v Q %.y.V.G.G.g.i.S.G.G.G.G.G.G.G.G.G.G.G.G.G.G.G.G.G.G.G.G.G.G.G.G.G.G.G.F.S.S.G.G.N.6. ._ P M ",
"H.9 S ^ +.q.m.G.G.b.l.F.S.A.D.G.G.G.G.G.G.G.G.G.G.G.G.G.G.G.G.G.G.G.G.G.G.G.G.G.G.G.G.G.z.2. ./ J l ",
"H.p ^ _ ..5.l.G.G.G.G.G.N.b.V.G.G.G.G.G.G.G.G.G.G.G.G.G.G.G.G.G.G.G.G.G.G.G.G.G.G.G.G.G.h.-.} Q A u ",
"H.w K / ;.h.D.G.G.G.G.G.l.s.b.G.G.G.N.m.F.G.G.G.G.G.G.G.G.A.M.V.G.G.G.G.G.G.G.G.G.G.G.G.D.e.O.J d - ",
"H.6 V ! ;.s.V.A.G.G.G.G.m.l.M.G.G.G.z.k.S.G.G.G.G.G.G.G.G.m.l.m.G.G.G.G.G.S.A.D.G.S.A.G.S.w.O.G y # ",
"H.O f R &.q.k.M.G.G.G.G.G.G.G.G.G.G.s.y.A.G.G.G.G.G.G.G.G.k.a.l.G.G.G.G.G.C.m.V.S.N.b.G.N.7. .F y # ",
"H.@ p R ' O.2.g.G.G.C.M.D.G.G.G.G.G.S.A.G.G.S.N.B.G.G.G.G.D.A.D.G.G.G.G.G.l.s.b.A.g.i.G.i.+.~ V q   ",
"H.. i R _ } >.s.G.G.N.b.D.G.G.G.G.G.G.G.G.G.A.M.m.G.G.G.G.G.G.G.G.G.G.G.G.j.u.l.Z.s.y.G.y. .E B 0   "
};
