/* XPM */
static char *result[] = {
/* columns rows colors chars-per-pixel */
"50 50 15 1 ",
"  c #93C596",
". c #94C596",
"X c #94C696",
"o c #95C696",
"O c #96C796",
"+ c #96C797",
"@ c #97C797",
"# c #98C897",
"$ c #99C897",
"% c #9CCA97",
"& c #9CCA98",
"* c #9DCB98",
"= c #9ECB98",
"- c #9ECC98",
"; c #9FCC98",
/* pixels */
"o                                                o",
"=O                                              #;",
";=o                                            #;;",
";;;X                                          o;;;",
";;;-O                                        @;;;;",
";;;;=o                                      $;;;;;",
";;;;;-X                                    +;;;;;;",
";;;;;;;o                                  o;;;;;;;",
";;;;;;;=O                                #;;;;;;;;",
";;;;;;;;=o                              #;;;;;;;;;",
";;;;;;;;;;X                            o;;;;;;;;;;",
";;;;;;;;;;;O                          @;;;;;;;;;;;",
";;;;;;;;;;;=O                        $;;;;;;;;;;;;",
";;;;;;;;;;;;-X                      @;;;;;;;;;;;;;",
";;;;;;;;;;;;;;o                    o;;;;;;;;;;;;;;",
";;;;;;;;;;;;;;=+                  #;;;;;;;;;;;;;;;",
";;;;;;;;;;;;;;;=o                #;;;;;;;;;;;;;;;;",
";;;;;;;;;;;;;;;;;X              o;;;;;;;;;;;;;;;;;",
";;;;;;;;;;;;;;;;;;o            +;;;;;;;;;;;;;;;;;;",
";;;;;;;;;;;;;;;;;;=O          $;;;;;;;;;;;;;;;;;;;",
";;;;;;;;;;;;;;;;;;;=X        @;;;;;;;;;;;;;;;;;;;;",
";;;;;;;;;;;;;;;;;;;;;X      o;;;;;;;;;;;;;;;;;;;;;",
";;;;;;;;;;;;;;;;;;;;;-O    #;;;;;;;;;;;;;;;;;;;;;;",
";;;;;;;;;;;;;;;;;;;;;;=o  #;;;;;;;;;;;;;;;;;;;;;;;",
";;;;;;;;;;;;;;;;;;;;;;;-.o;;;;;;;;;;;;;;;;;;;;;;;;",
";;;;;;;;;;;;;;;;;;;;;;;*.o=;;;;;;;;;;;;;;;;;;;;;;;",
";;;;;;;;;;;;;;;;;;;;;;%X  O=;;;;;;;;;;;;;;;;;;;;;;",
";;;;;;;;;;;;;;;;;;;;;=X    o;;;;;;;;;;;;;;;;;;;;;;",
";;;;;;;;;;;;;;;;;;;;=       X-;;;;;;;;;;;;;;;;;;;;",
";;;;;;;;;;;;;;;;;;;%X        O=;;;;;;;;;;;;;;;;;;;",
";;;;;;;;;;;;;;;;;;*X          o-;;;;;;;;;;;;;;;;;;",
";;;;;;;;;;;;;;;;;;.            X;;;;;;;;;;;;;;;;;;",
";;;;;;;;;;;;;;;;*               o=;;;;;;;;;;;;;;;;",
";;;;;;;;;;;;;;;%X                O=;;;;;;;;;;;;;;;",
";;;;;;;;;;;;;;*X                  o;;;;;;;;;;;;;;;",
";;;;;;;;;;;;;-                     X;;;;;;;;;;;;;;",
";;;;;;;;;;;;&.                      O=;;;;;;;;;;;;",
";;;;;;;;;;;&X                        O-;;;;;;;;;;;",
";;;;;;;;;;-.                          X;;;;;;;;;;;",
";;;;;;;;;*                             o=;;;;;;;;;",
";;;;;;;;%X                              +=;;;;;;;;",
";;;;;;;*X                                o;;;;;;;;",
";;;;;;;                                   X;;;;;;;",
";;;;;*.                                    o=;;;;;",
";;;;%X                                      O=;;;;",
";;;=X                                        X;;;;",
";;=                                           X-;;",
";%X                                            O=;",
"*X                                              o-",
".                                                ."
};
