/* XPM */
static char *result[] = {
/* columns rows colors chars-per-pixel */
"50 50 252 2 ",
"   c #351F19",
".  c #2E2610",
"X  c #322416",
"o  c #33382F",
"O  c #422D1F",
"+  c #4E3334",
"@  c #65383B",
"#  c #344833",
"$  c #3B4A36",
"%  c #4B4A39",
"&  c #6B4F3E",
"*  c #6B384C",
"=  c #3A5A47",
"-  c #4D524C",
";  c #595B49",
":  c #765B4B",
">  c #6B4955",
",  c #715254",
"<  c #506D54",
"1  c #7A6449",
"2  c #666554",
"3  c #7C6758",
"4  c #6B7454",
"5  c #5C5865",
"6  c #7E4E61",
"7  c #5B7165",
"8  c #676A66",
"9  c #7D656A",
"0  c #6B7565",
"q  c #747A68",
"w  c #716E75",
"e  c #82595A",
"r  c #816A59",
"t  c #84755D",
"y  c #AC754A",
"u  c #AB7855",
"i  c #8F526F",
"p  c #875A6A",
"a  c #836A66",
"s  c #887468",
"d  c #93756D",
"f  c #9B6877",
"g  c #887877",
"h  c #937B76",
"j  c #A26677",
"k  c #76885F",
"l  c #658465",
"z  c #76886A",
"x  c #738D6D",
"c  c #788A79",
"v  c #799579",
"b  c #B8855A",
"n  c #88846B",
"m  c #858A7A",
"M  c #978C77",
"N  c #85967A",
"B  c #B18D73",
"V  c #AA927C",
"C  c #8FA27E",
"Z  c #CC966D",
"A  c #CA9A77",
"S  c #D6A37B",
"D  c #E3AA7C",
"F  c #8B7686",
"G  c #977985",
"H  c #A57488",
"J  c #A5708F",
"K  c #B26B92",
"L  c #C7759E",
"P  c #CC77A8",
"I  c #DA77B3",
"U  c #E877B5",
"Y  c #7C8D86",
"T  c #7E9585",
"R  c #7F9191",
"E  c #7EA788",
"W  c #7EC58D",
"Q  c #878887",
"!  c #998986",
"~  c #879887",
"^  c #989788",
"/  c #919296",
"(  c #999893",
")  c #A88889",
"_  c #AA9587",
"`  c #B69888",
"'  c #B08895",
"]  c #A79697",
"[  c #B89994",
"{  c #89A78B",
"}  c #96A88C",
"|  c #8AB98A",
" . c #95B88C",
".. c #88A797",
"X. c #98A898",
"o. c #8CB996",
"O. c #97B895",
"+. c #94BC95",
"@. c #9BB59C",
"#. c #94BD9B",
"$. c #9BBC9B",
"%. c #A6A89A",
"&. c #B5A89C",
"*. c #A6B99A",
"=. c #B2B090",
"-. c #B291A4",
";. c #96AAA6",
":. c #98B9A4",
">. c #9DBCA4",
",. c #9EABB1",
"<. c #A7A9A3",
"1. c #B9ABA7",
"2. c #A3BCA5",
"3. c #A7B8A9",
"4. c #B7B6A9",
"5. c #B9ACB1",
"6. c #A3B9B4",
"7. c #BABAB6",
"8. c #C99793",
"9. c #C6A587",
"0. c #DAA987",
"q. c #C8A695",
"w. c #D6A994",
"e. c #D4B194",
"r. c #D9B69B",
"t. c #DCBB9C",
"y. c #E2AD87",
"u. c #E5B38B",
"i. c #E7B897",
"p. c #F3BF9F",
"a. c #C789A6",
"s. c #D68AA9",
"d. c #CE8EB0",
"f. c #D987B9",
"g. c #D898B7",
"h. c #E289AF",
"j. c #E887B7",
"k. c #F588BD",
"l. c #E898BB",
"z. c #F396BE",
"x. c #DBB8A4",
"c. c #C7ACB7",
"v. c #C2B7B6",
"b. c #CFB0B1",
"n. c #E4BBA6",
"m. c #E8A2BB",
"M. c #F1A2BE",
"N. c #8DC38D",
"B. c #8DC88E",
"V. c #96C887",
"C. c #93C58E",
"Z. c #8EC494",
"A. c #83CB95",
"S. c #8DC992",
"D. c #8EC499",
"F. c #8ACA99",
"G. c #93C494",
"H. c #9AC495",
"J. c #92CA94",
"K. c #9ECA93",
"L. c #94C49B",
"P. c #9BC49B",
"I. c #94CA9A",
"U. c #9CCB9B",
"Y. c #8AD199",
"T. c #98D299",
"R. c #A2C595",
"E. c #A3CA95",
"W. c #A4CD96",
"Q. c #A2C49B",
"!. c #ABC799",
"~. c #A3CA9C",
"^. c #B1C79D",
"/. c #8FC7A6",
"(. c #95C5A2",
"). c #9BC4A3",
"_. c #9DCAA4",
"`. c #9AC8A8",
"'. c #99D2A7",
"]. c #9DCBB3",
"[. c #A4C4A3",
"{. c #A5CAA3",
"}. c #A3C4AA",
"|. c #A9C8A9",
" X c #B7C8A9",
".X c #A8D3AB",
"XX c #A8C7B4",
"oX c #B8C7BC",
"OX c #DEC09A",
"+X c #ECC39C",
"@X c #F5C69B",
"#X c #C5C3AC",
"$X c #C8C5B7",
"%X c #D4CBB6",
"&X c #EBC5A8",
"*X c #F3CAA4",
"=X c #F2CCAB",
"-X c #F9D4AD",
";X c #F1CCB1",
":X c #F9D6B4",
">X c #F98BC4",
",X c #EC98C3",
"<X c #F59CC4",
"1X c #F898C7",
"2X c #FD97D2",
"3X c #DBA3C6",
"4X c #DAB6C4",
"5X c #D5B7CB",
"6X c #E8A7C5",
"7X c #F4A4C7",
"8X c #E9B6CB",
"9X c #EAACD6",
"0X c #E5B1D4",
"qX c #BBC7C2",
"wX c #BDD3CA",
"eX c #DACBC9",
"rX c #CDD2CC",
"tX c #C4DACC",
"yX c #D8DAD8",
"uX c #E3C8C6",
"iX c #E9C9D5",
"pX c #F3C6DB",
"aX c #E5DBDB",
"sX c #F3D6D3",
"dX c #CEE2DE",
"fX c #D5E3DC",
"gX c #FDE6C7",
"hX c #E6E7D7",
"jX c #F6EDD5",
"kX c #DDDAE5",
"lX c #F9CBE8",
"zX c #F7D5EC",
"xX c #FBD7F1",
"cX c #DCE8E7",
"vX c #D9F0E3",
"bX c #E7E5EA",
"nX c #F3E8E8",
"mX c #E4F5E8",
"MX c #FAF8EB",
"NX c #EAE7F1",
"BX c #ECEBF2",
"VX c #F8EBF4",
"CX c #FFE4FD",
"ZX c #FEECFE",
"AX c #EDF5F4",
"SX c #EDF8F8",
"DX c #F9F4F4",
"FX c #FDFBF5",
"GX c #F4F5F9",
"HX c #FEF5FD",
"JX c #F4FCFC",
"KX c #FCFCFD",
/* pixels */
"D.L.L.L.L.P.#.L.L.G.G.G.I.I.Z.Z.Z.J.L.G.H.+. .H.H.$.H.P.H.L.L.G.Z.G.L.G.U.+.L.H.[.[.P.).(.#.#.D./.L.",
"I.L.L.G.L.G.+.G.L.H.L.I.G.Z.Z.Z.G.G.I.G.G.H.E.Q.Q.H.H.H.G.G.G.G.G.L.I.L.L.U.H.#.P.+.| #.U.L.(.(.D.D.",
"I.I.L.G.G.G.G.P.P.L.I.L.Z.Z.J.F.J.Z.G.G.H.H.H.K.H.H.H.H.C.G.G.G.S.J.G.G.G.H.P.P.H.+. .L.L.L.L.I.D.D.",
"I.D.S.L.L.L.H.G.G.G.G.G.Z.Z.I.I.I.I.J.G.G.+.G. .C.C.C.C.C.C.J.J.G.J.Z.N.N.G.H.G.H.U.~.U.J.N.N.N.T.T.",
"S.S.S.J.I.H.I.G.+.G.G.L.Z.Z.Z.D.F.I.G.J.L.G.G.G.G.C.C.B.G.B.J.J.B.N.Z.G.G.G.G.G.H.H. .G.G.N.T.T.B.B.",
"S.S.J.J.I.H.G.G.G.G.G.P.L.G.D.Z.Z.Z.Z.I.L.J.G.G.J.K.C.C.B.J.B.G.Z.Z.G.L.L.P.L.L.Q.U. .C.C.N.V.T.B.A.",
"S.S.B.N.G.G.H.H.H.P.U._._._.L.D.D.D.D.F.Z.Z.G.L.H.T.G.C.N.Z.G.S.D.L.L.L.(.[././.+.+.U.U.H.N.| | T.T.",
"T.S.B.N.C.G.U.H.H.P.#.#.).L.#.D.L.L.I.(.D.G.Z.G.G.U.Z.+.Z.L.I.(./.D.o.o.o.7 < = l v +.H.U.J.B.J.U.T.",
"T.Y.B.B.G.U.~.Q.P.$.O.o.#.L.#.(.(.(.I.(.L.L.G.+.G.H.#.D.o.(.(.`.:.W R W R = # # < l { #._.P.U.'.J.I.",
"T.T.J.J.U.~.P.$.$.@.:.2.>.).}.}.`.(.#.D.(._._.(.P.:.(.:.).:.:.:.;.W ;.R ,.dXdXcXwX>.7 ..|._._._.L.L.",
"T.T.T.T.U.P.+.@.O.{.oXoXtXtXtXwXXX:.o.{ o.$.P.P.#.:.).>.].:.:.E R R ,.,.wXcXSXSXmXdX;.{ T #._.}._.P.",
"T.T.T.~._.P.} O.@.oXfXmXSXJXSXvXtX@.T v { { +.+.@.@.>.3.6.;.;.R R R ,.wXdXSXSXSXJXJXJX/ < ~ >.XX_.).",
"W.U.U..X{.[.~ ~ X.oXyXAXJXJXJXSXvXtX~ 7 - $ # % # # $ % # # o o o o 5 F 7.kXBXVXBXGXKX( 7 { @.3.}.}.",
"T.U.~.|.[.@.~ ~ X.oXyXAXSXJXKXJXAXmX4.~ z 0 4 z 0 4 0 q 8 8 8 8 8 0 / ,.5XbXNXVXGXGXKX;.w } ;.|.}.}.",
"H.H.P.|.2.X.c ~ ( qXyXGXbXBXKXKXKXKXDXAXhXjXjXMXMXMXMXMXMXMXGXKXFXKXDXZXGXHXHXDXHXKXKX%.q X.[.oX2.2.",
"{.{.|..X|.3.<.oXrXkXkXNXBXBXBXGXDXjXv.%.n n n t t 3 t t t t r q a r a a s g M b.iXjXFXaX$X} ~ N |.|.",
"{.|.|.|.2.>.;.rXyXNXNXNXNXNXNXNXbXeX&.M q t r 1 : & 1 1 1 1 1 : 1 1 : 3 e r d ` b.uXjXMXhX} m z [. X",
"{.[.H.} ~ ~ ( qXcXBXBXNXbXbXNXeXv.[ %.` q.e.e.t.OX+XOXOXOXOXOXe.x.OXn.x.x.x.w.h V _ #XhXjXO.C N *.[.",
"~.{.[.@.~ v X.qXcXGXGXGXZXaX5.] ! [ q.e.n.&X-X-X-X-X*X=X&X-X-XOXi.r.8.A B i.n.q.` ` V #X%X^ c z *.2.",
"~.~.[.$.~ v ..oXkXSXGXHXHXyX( q s _ q.%X&X*X*X@X&X*X+X@X*X:X:X&Xr.0.A Z B w.n.n.9.V t q.#Xm z 0 @.}.",
"+.Q.H.$.T T X.qXfXAXBXbXAXyX&.h s M x.;Xr.A b y y u u u Z e.OXS 0.u.p.sXgX9.8.n.q.` r =.$XN ~ v XXXX",
"W.!.U.} v v @.qXfXSXSXSXMXyX( s s _ t.*X0.S Z S D e.D Z Z S u.Z 0.i.:XgXjX0.9.w.e.` s %.#XQ c Y 6.XX",
".X~.R.| x x O.oXfXSXSXJXKXyXQ s s V +X&XS S D @X-XgX*Xi.S u.D B 0.i.:XgXjXw.0.w.q.[ h &.4.c c Y 6.6.",
"E.R.$.O.v v @.oXfXSXJXKXFXyX] h d V i.=XS S D @X-XgX@Xi.S u.u.Z y.p.:XgXgXw.8.w.q.` h &.7.~ Q R 6.6.",
"E.E.R.O.v v X.qXfXJXGXJXFXyX] n d V t.-Xu.D u.u.u.OXu.D D u.u.D 0.i.i.i.x.w.w.x.w.8.h 1.v.Q Y ~ 3.XX",
"~.|.{.} N T X.rXbXKXHXVXZXaX] h d V t.-X+XOXe.b b y b Z +X@X@X@Xu.S B u u 0.n.p.x.q.d &.v.m m v :.>.",
"E.~.Q.} v T ( qXkXGXKXHXHXDXaXq._ r M B OXOX-X=X@X+X@X*X-X-X-X-X-X=X;X&Xn.n.n.8.` ) _ %XhXC c c 3. X",
"E.!.Q. .~ T / oXyXGXKXJXHXKXFXeX1.M n n V =.V A =.A 9.9.9.=.9.9.` ` q.q.8.[ ` ) ` ` v.hXjX^ Y c |.XX",
"T.W.W. .v v X.oXfXSXGXJXKXKXKXFXMXfX^ 2 O o . . . . . X . . . X X X X X     + d 1.eXFXMXbXX.v l ].XX",
"E.K.U.H.H.#.@.>.6.qXyXBXFXKXKXFXFXDXyX%X#Xv.4.v.v.5.v.v.v.v.7.$Xv.7.v.v.7.7.5XyXaXaXaXX.c R ..#.].XX",
"K.K.K.~.{.{.2.:.@.3.oXyXbXVXDXVXVXFXVXDXFXDXDXKXFXDXHXHXHXHXHXHXHXHXHXHXHXCXVXBXaXrX7.Y 0 { :.].].].",
"V.W.W.K.H.H.}.|.XX<.( / c.c.6X8XpXxXCXZXZXCXVXCXZXxXCXCXCXZXZXZXZXZXZXHXZXiX5X5X] Q 8 ( 6.].]./././.",
"E.W.W.E.W.~..X|.2.X.( ! p p H s.l.7X6X0X8X0X0X3X3X3X9X9X9X0X0X0X0X0X5X0X5XJ G 9 w F Q <.|.}.`.].'.'.",
"E.E.E.E.W.!..X X*.] _ G * * i P f.h.I P I s.f.L L P P I I I f.f.f.P f.-.a.p 6 + > 9 %.<.|.>.{..X'.'.",
"W.^.W.W. .*.^. X#X&.` ) s.m.z.k.>X>X2X2Xk.U I k.U >XI I U I I U I I I f.s.h.a.p @ + X ^ $X!.P.H.K.R.",
"E.W.!.!.!.!.4.=.&.&.[ a.m.M.z.k.>X>X2X2X>X>Xk.>X2XU U U I U U U U f.>X,Xz.m.s.f * @ % q N } R.~.R.E.",
"E.R.R.!.^. X=.=.V V 8.s.m.m.h.h.U >X>X2X2X2X2X>X>XU U U U U U k.2X>X1X1X7XM.s.j 6 : s ; % N C ^.R.R.",
"{.E.Q.O.C N C n 3 > & @ j j i i K L j.7X<X<X<Xz.>X2Xj.h.h.l.z.1X1X1X<X<Xz.M.8.j > @ O 1 n 4 k C R.!.",
"_._.P. .N n C M M a e e p i e i J K g.7X6X,X7X7X,X,X,Xl.j.,X<X<X<X7X7X<XM.m.8.f : @ % n V k 4 k *.^.",
"'.).#.{ v N =.#X%XuXuXb.e 6 i K -.g.3X0X3X3X6X8X9X3X3X6X6X6X6X7X7X7X7X7Xm.M.d.f 6 3 M r.^.n k k *.^.",
"].`.(.(.o.| { x 4 2 2 9 G -.g.8XpXzXpX0XlXsXuX4XuXlXzXxXxXzXlXxXxXxXlXlXlXpX4XH , - o - ; 0 N O.Q.[.",
"`.`.).(.I.S.v l < % ; , ) -.3XpXlXzXpXiXpXiXuXeXiXsXnXVXxXzXzXxXxXzXlXlXlX0X4X] 9 , - $ - z { [.[.}.",
").:.(.D.F.A.F.N.A.O.@.%.h G d.m.6Xg.m.8Xb.v.$XAXyXv.b.5X4X4X8X8X6X6X3X6X8X5X5X] ] ;.4.3.@.}.}.{.>.L.",
").).(.D.A.F.A.Y.T.P.2.%.G H a.l.7Xl.-.H 9 2 ; q 0 ; 2 , > > > 6 6 6 i H -.c.c.-.<.<.3.2.:.).(.).D.D.",
").).L.D.A.Y.A.Y.'.P.2.%.G J a.l.,X6XJ p > % o $ $ o + + o O + @ + + * p ) 5.5.<.<.3.3.>.).L.(.(.Z.Z.",
"}.P.G.F.T.Y.W W E { { ( g G a.d.d.d.H a V } *. .} } } @.&.4.1.-.) G G ' v.5.1.1.6.2.@._._.o.o.Z.T.S.",
"P.G.G.Z.J.J.N.B.J.| ~ m w F -.-.-.F G ! } *.[.$.H.L.P.>.2.4.3.&.] ! ! ] 1.<.4.3.2.[.O.L.I.Z.B.C.V.B.",
"G.G.J.G.C.V.| R.!.%.~ q g F J / F 5 / 3.@.$.H.G.I.'.I.L.#.H.*.%.} ^ ! ~ ^ %.%.|.[.*. .H.G.C.V.V.V.V.",
"G.Z.C.C.R.E. .*.^.=.=.%.Q w 5 5 w / 6.6./.#.L.Z.S.A.W A.F.L.P.[.@.} q ; # } *.*.$.H.H.H.V.V.V.V.V.V.",
"J.Z.N. .E.E.C  .^.^.4.4.Q w - - w ,.6.6.6./.G.Z.F.W W A.Z.I.).[.*.} 0 % o C *.*.Q.R.H.V.H.K.V.V.V.V."
};
