/* XPM */
static char *result[] = {
/* columns rows colors chars-per-pixel */
"50 50 166 2 ",
"   c #211F2F",
".  c #1F262B",
"X  c #1E2829",
"o  c #23252E",
"O  c #26292F",
"+  c #26382B",
"@  c #353C2E",
"#  c #262733",
"$  c #262835",
"%  c #292E34",
"&  c #2D2439",
"*  c #32243B",
"=  c #2F323E",
"-  c #267413",
";  c #297716",
":  c #267C11",
">  c #2B741C",
",  c #234223",
"<  c #294829",
"1  c #2E5E27",
"2  c #325D2E",
"3  c #345534",
"4  c #3C6938",
"5  c #404734",
"6  c #4F5A3A",
"7  c #505A3A",
"8  c #5F7F2C",
"9  c #3B2742",
"0  c #343C41",
"q  c #553B53",
"w  c #62395F",
"e  c #3B4447",
"r  c #3D5E40",
"t  c #41464C",
"y  c #444C4E",
"u  c #45524D",
"i  c #474E50",
"p  c #465050",
"a  c #495353",
"s  c #4D5B55",
"d  c #505A57",
"f  c #426442",
"g  c #586946",
"h  c #50784F",
"j  c #4F6156",
"k  c #55655C",
"l  c #556B5C",
"z  c #6D755C",
"x  c #6B4961",
"c  c #7B446F",
"v  c #6B5967",
"b  c #5B6C61",
"n  c #657969",
"m  c #874878",
"M  c #914D7F",
"N  c #91547D",
"B  c #897A7C",
"V  c #27850C",
"C  c #29850E",
"Z  c #268010",
"A  c #2D8512",
"S  c #36861A",
"D  c #368819",
"F  c #468C16",
"G  c #52941A",
"H  c #6C991C",
"J  c #428822",
"K  c #4A862B",
"L  c #418432",
"P  c #518A31",
"I  c #5D8C3C",
"U  c #61822E",
"Y  c #759F25",
"T  c #668531",
"R  c #628C3E",
"E  c #739338",
"W  c #7CA129",
"Q  c #688946",
"!  c #728E4B",
"~  c #6C856D",
"^  c #6E8D74",
"/  c #759276",
"(  c #73957A",
")  c #7C9A7C",
"_  c #83AA2E",
"`  c #86A831",
"'  c #949E4A",
"]  c #9BBF41",
"[  c #948A6D",
"{  c #8F9165",
"}  c #9B8D73",
"|  c #9F9475",
" . c #A69A60",
".. c #AC9D66",
"X. c #B49B6F",
"o. c #A28F78",
"O. c #B1937D",
"+. c #AACC4D",
"@. c #C3C57E",
"#. c #954E82",
"$. c #995385",
"%. c #AE5993",
"&. c #B65B99",
"*. c #BE47AF",
"=. c #BE44B0",
"-. c #C0609F",
";. c #C046B1",
":. c #C44BB2",
">. c #CA52B4",
",. c #CF5DB4",
"<. c #D35BB6",
"1. c #C56BA8",
"2. c #D268AC",
"3. c #D573AC",
"4. c #CD61B3",
"5. c #D665B7",
"6. c #D46DB4",
"7. c #DC6BB3",
"8. c #DC63B9",
"9. c #DA74B4",
"0. c #DD72B9",
"q. c #E06DB6",
"w. c #E56EBA",
"e. c #E96EBD",
"r. c #E478B7",
"t. c #E675BA",
"y. c #EA71BE",
"u. c #ED7ABF",
"i. c #7A9D80",
"p. c #7FA583",
"a. c #B59188",
"s. c #BD8196",
"d. c #8AAC86",
"f. c #8CAF89",
"g. c #8EB28B",
"h. c #92B78F",
"j. c #96BE91",
"k. c #C39794",
"l. c #DC89AE",
"z. c #D491A5",
"x. c #DD87B0",
"c. c #E689B7",
"v. c #F184BF",
"b. c #F088BE",
"n. c #EE92B6",
"m. c #EB9BB5",
"M. c #F09CB5",
"N. c #F496BF",
"B. c #F19ABB",
"V. c #F99DBF",
"C. c #F1A5B9",
"Z. c #94C596",
"A. c #99C696",
"S. c #96C896",
"D. c #9BC997",
"F. c #96C698",
"G. c #99C79C",
"H. c #9DCA99",
"J. c #A0CC99",
"K. c #F286C0",
"L. c #F48BC0",
"P. c #F396C0",
"I. c #F99DC0",
"U. c #F9A4C4",
"Y. c #F7CCCC",
"T. c #FDCAD5",
/* pixels */
"Z.Z.Z.Z.Z.Z.Z.Z.Z.Z.Z.Z.Z.Z.Z.Z.Z.Z.Z.Z.Z.Z.Z.Z.Z.Z.Z.Z.Z.Z.Z.Z.Z.Z.Z.Z.Z.Z.Z.Z.Z.Z.Z.Z.Z.Z.Z.Z.Z.Z.",
"Z.Z.Z.Z.Z.Z.Z.Z.Z.Z.Z.Z.Z.Z.Z.Z.Z.Z.Z.Z.Z.Z.Z.Z.Z.Z.Z.Z.Z.Z.Z.Z.Z.Z.Z.Z.Z.Z.Z.Z.Z.Z.Z.Z.Z.Z.Z.Z.Z.Z.",
"Z.Z.Z.Z.Z.Z.Z.Z.Z.Z.Z.Z.Z.Z.Z.Z.Z.Z.Z.Z.Z.Z.Z.Z.Z.Z.Z.Z.Z.Z.Z.Z.Z.Z.Z.Z.Z.Z.Z.Z.Z.Z.Z.Z.Z.Z.Z.Z.Z.Z.",
"Z.Z.Z.Z.Z.Z.Z.Z.Z.Z.Z.Z.Z.Z.Z.Z.Z.Z.Z.Z.Z.Z.Z.Z.Z.Z.Z.Z.Z.Z.Z.Z.Z.Z.Z.Z.Z.Z.Z.Z.Z.Z.Z.Z.Z.Z.Z.Z.Z.Z.",
"Z.Z.Z.Z.Z.Z.Z.Z.Z.Z.Z.Z.Z.Z.Z.Z.Z.Z.Z.Z.Z.Z.Z.Z.Z.Z.Z.Z.Z.Z.Z.Z.Z.Z.Z.Z.Z.Z.Z.Z.Z.Z.Z.Z.Z.Z.Z.Z.Z.Z.",
"Z.Z.Z.Z.Z.Z.Z.Z.Z.Z.Z.Z.Z.Z.Z.Z.Z.Z.Z.Z.Z.Z.Z.Z.Z.Z.Z.Z.Z.Z.Z.Z.Z.Z.Z.Z.Z.Z.Z.Z.Z.Z.Z.Z.Z.Z.Z.Z.Z.Z.",
"Z.Z.Z.Z.Z.Z.Z.Z.Z.Z.Z.Z.Z.Z.Z.Z.Z.Z.Z.Z.Z.Z.Z.Z.Z.Z.Z.Z.Z.Z.Z.Z.Z.Z.F.j.Z.Z.Z.Z.Z.Z.Z.Z.Z.Z.Z.Z.Z.Z.",
"Z.Z.Z.Z.Z.Z.Z.Z.Z.Z.Z.Z.Z.Z.Z.Z.Z.Z.Z.Z.Z.Z.Z.Z.Z.Z.Z.Z.Z.Z.Z.Z.Z.Z.Z.Z.Z.Z.Z.Z.Z.Z.Z.Z.Z.Z.Z.Z.Z.Z.",
"D.H.Z.Z.Z.Z.Z.Z.Z.Z.Z.Z.Z.Z.Z.Z.Z.Z.Z.Z.Z.Z.Z.Z.Z.Z.Z.Z.Z.Z.Z.Z.Z.Z.Z.Z.Z.Z.Z.Z.Z.Z.Z.Z.Z.Z.S.D.S.H.",
"H.H.S.S.Z.Z.Z.Z.Z.Z.Z.Z.Z.Z.Z.Z.Z.Z.Z.Z.Z.Z.Z.Z.Z.Z.Z.Z.Z.Z.Z.Z.Z.Z.Z.Z.Z.Z.Z.Z.Z.Z.Z.Z.Z.S.D.D.D.H.",
"J.J.J.D.A.Z.Z.Z.Z.Z.Z.Z.Z.Z.Z.Z.Z.Z.Z.Z.Z.Z.Z.Z.Z.Z.Z.Z.Z.Z.Z.Z.Z.Z.Z.Z.Z.Z.Z.Z.Z.Z.Z.Z.Z.S.D.D.J.H.",
"J.J.J.J.J.D.S.Z.Z.Z.Z.Z.Z.Z.Z.Z.Z.Z.Z.Z.Z.Z.Z.Z.Z.Z.Z.Z.Z.Z.Z.Z.Z.Z.Z.Z.Z.Z.Z.Z.Z.S.S.D.H.D.J.J.J.H.",
"J.J.J.J.J.D.J.S.A.Z.Z.Z.Z.Z.Z.Z.Z.Z.Z.Z.Z.Z.Z.Z.Z.Z.Z.Z.Z.Z.Z.Z.Z.Z.Z.Z.Z.Z.Z.Z.Z.D.D.D.D.J.J.J.J.J.",
"J.J.J.J.J.J.J.J.S.Z.Z.A.Z.Z.Z.Z.Z.Z.Z.Z.Z.Z.Z.Z.Z.Z.Z.Z.Z.j.Z.Z.F.Z.Z.Z.Z.Z.Z.S.S.D.H.H.J.J.J.J.J.J.",
"J.J.J.J.J.J.J.J.) # # # # # # # $ $ # # # # # # # # # # # # # # $ $ $ 0 e l h l l s s u t y s b J.H.",
"J.J.J.D.J.J.J.J.) o % 7 7 v v x x x x x x x x x x x x x x x x x x x v v v B $.i.$.[ B z g g i k J.J.",
"J.J.J.J.J.J.J.J.[ O 5 +.+.Y.T.U.P.I.I.I.I.I.I.I.I.I.I.I.I.I.I.I.I.I.I.V.V.V.V.V.V.Y.Y.@.] ' t j J.J.",
"J.J.J.J.J.J.J.J.p.o @ ` ` C.U.r.0.N q $.u.u.u.u.u.u.u.u.u.u.u.u.u.u.u.r.7.q q 3.u.m.C...Y T y k J.J.",
"J.J.J.J.J.J.J.J.) # @ Y _ n.I.t.w.$.q $.y.y.y.y.y.y.y.y.y.y.y.y.y.y.y.q.7.w w 2.y.n.M. .H 8 i k J.J.",
"J.J.J.J.J.J.J.J.) o @ _ Y M.I.u.y.y.y.y.y.y.e.y.y.e.y.y.y.y.y.y.y.y.y.y.y.y.y.y.y.n.M. .H 8 a b J.H.",
"J.J.J.J.J.J.J.J.) o @ Y ` n.N.y.y.y.y.u.N.v.y.y.y.y.y.y.y.y.y.y.y.y.u.b.L.y.y.t.y.n.M. .H U a b J.J.",
"J.J.J.J.J.J.J.J.) o @ W Y M.I.y.e.e.y.r.l.c.y.y.y.y.e.y.y.y.e.e.y.y.r.l.x.y.e.e.e.n.M. .H U a k J.J.",
"J.J.J.J.J.J.J.J.{ O @ W W m.N.>.=.>.q.M & w e.y.y.y.y.y.y.y.e.y.q.7.&.& 9 e.e.:.;.r.M. .H U t k J.J.",
"J.J.J.J.J.J.J.J.i.o + G G ..X.l.0.0.w.-.M %.y.y.K.K.y.y.y.e.v.K.u.w.6.#.#.y.y.9.9.O...E F K b ~ D.J.",
"J.J.J.J.J.J.J.J.i.$ + A A W W z.I.v.y.y.y.y.y.t.P.P.y.e.y.y.K.P.K.y.y.e.y.y.u.B.m.' Y D Z L ( { J.J.",
"J.J.J.J.J.J.J.J.J.J.g.# X S A z.N.5.;.>.y.y.7.2.9 9 0.y.q.7.c * c y.y.e.w.*.*.x.m.Q V 2 e b D.J.J.J.",
"J.J.J.J.J.J.J.J.J.J.f.$ X ; A { } 1.5.5.<.8.w.7.m m 0.y.w.t.%.m &.e.0.,.<.6.6.} { J V 4 d ~ D.J.J.D.",
"J.J.J.J.J.J.J.J.J.J.f.# . : V D D o.P.0.=.>.y.y.e.e.e.y.y.y.y.y.e.e.8.*.*.m.m.K V V V 6 n / J.J.J.J.",
"J.J.J.J.J.J.J.J.J.J.J.j.h.+ + ; V F P [ b.0.:.;.;.;.=.=.;.;.;.;.:.:.,.l.z.K J V Z 3 e ~ A.A.J.J.J.J.",
"J.J.J.J.J.J.J.J.J.J.J.J.J.$ . - V C D Q a.s.4.4.<.4.,.5.,.,.,.,.4.4.1.a.| V V Z Z 3 t ( J.J.J.J.J.J.",
"J.J.J.J.J.J.J.J.J.J.J.J.J.= . - V V V A D ! I.I.V.I.I.I.I.I.I.I.P.m.k.V V V V Z V 6 j ) J.J.J.J.J.J.",
"J.J.J.J.J.J.J.J.J.J.J.J.H.p.) 3 , - V V A D R R R R R R R R R R I I P V V V Z 4 f / d.j.J.J.J.D.J.J.",
"J.J.J.J.H.J.J.J.J.J.J.H.H.H.J.s e 1 - - - - V V V V V V V V V V V V V ; ; > > l b f.J.H.J.J.J.J.J.J.",
"J.J.J.J.J.J.J.J.J.J.H.D.D.Z.Z.G.G.k   . . , V V V V V V V V V V V Z > 0 0 p p h.J.J.J.H.H.J.H.J.J.J.",
"J.J.J.J.J.J.J.H.H.D.D.F.F.Z.Z.F.Z.p.^ ^ ^ b , , , , , , , , , , < 3 r ^ ( i.i.Z.H.H.J.J.J.J.J.J.J.H.",
"J.J.J.J.J.J.J.H.H.D.D.S.Z.Z.Z.Z.Z.Z.Z.Z.G.( % $ $ $ % % $ $ $ $ 0 e s Z.Z.Z.Z.F.S.J.J.J.J.J.J.J.J.J.",
"J.J.J.J.J.J.H.S.S.Z.Z.Z.Z.Z.Z.Z.Z.Z.Z.Z.Z.Z.Z.Z.Z.Z.Z.Z.Z.Z.Z.Z.h.Z.Z.Z.Z.Z.Z.Z.S.D.H.H.J.J.J.J.J.J.",
"J.J.J.J.D.J.G.S.F.Z.Z.Z.Z.Z.Z.Z.Z.Z.Z.Z.Z.Z.Z.Z.Z.Z.Z.Z.Z.Z.Z.Z.Z.Z.Z.Z.Z.Z.Z.Z.Z.S.S.S.H.H.J.J.J.J.",
"J.J.J.J.J.S.S.Z.Z.Z.Z.Z.Z.Z.Z.Z.Z.Z.Z.Z.Z.Z.Z.Z.Z.Z.Z.Z.Z.Z.Z.Z.Z.Z.Z.Z.Z.Z.Z.Z.Z.Z.Z.S.D.H.J.J.J.J.",
"J.J.G.D.S.Z.S.S.Z.Z.Z.Z.Z.Z.Z.Z.Z.Z.Z.Z.Z.Z.Z.Z.Z.Z.Z.Z.Z.Z.Z.Z.Z.Z.Z.Z.Z.Z.Z.Z.Z.Z.S.S.S.S.H.H.J.J.",
"H.H.D.Z.Z.Z.Z.Z.Z.Z.Z.Z.Z.Z.Z.Z.Z.Z.Z.Z.Z.Z.Z.Z.Z.Z.Z.Z.Z.Z.Z.Z.Z.Z.Z.Z.Z.Z.Z.Z.Z.Z.Z.Z.Z.Z.D.D.J.H.",
"D.D.Z.Z.Z.Z.Z.Z.Z.Z.Z.Z.Z.Z.Z.Z.Z.Z.Z.Z.Z.Z.Z.Z.Z.Z.Z.Z.Z.Z.Z.Z.Z.Z.Z.Z.Z.Z.Z.Z.Z.Z.Z.Z.Z.Z.Z.Z.S.S.",
"S.Z.Z.Z.Z.Z.Z.Z.Z.Z.Z.Z.Z.Z.Z.Z.Z.Z.Z.Z.Z.Z.Z.Z.Z.Z.Z.Z.Z.Z.Z.Z.Z.Z.Z.Z.Z.Z.Z.Z.Z.Z.Z.Z.Z.Z.Z.Z.Z.Z.",
"Z.Z.Z.Z.Z.Z.Z.Z.Z.Z.Z.Z.Z.Z.Z.Z.Z.Z.Z.Z.Z.Z.Z.Z.Z.Z.Z.Z.Z.Z.Z.Z.Z.Z.Z.Z.Z.Z.Z.Z.Z.Z.Z.Z.Z.Z.Z.Z.Z.Z.",
"Z.Z.Z.Z.Z.Z.Z.Z.Z.Z.Z.Z.Z.Z.Z.Z.Z.Z.Z.Z.Z.Z.Z.Z.Z.Z.Z.Z.Z.Z.Z.Z.Z.Z.Z.Z.Z.Z.Z.Z.Z.Z.Z.Z.Z.Z.Z.Z.Z.Z.",
"Z.Z.Z.Z.Z.Z.Z.Z.Z.Z.Z.Z.Z.Z.Z.Z.Z.Z.Z.Z.Z.Z.Z.Z.Z.Z.Z.Z.Z.Z.Z.Z.Z.Z.Z.Z.Z.Z.Z.Z.Z.Z.Z.Z.Z.Z.Z.Z.Z.Z.",
"Z.Z.Z.Z.Z.Z.Z.Z.Z.Z.Z.Z.Z.Z.Z.Z.Z.Z.Z.Z.Z.Z.Z.Z.Z.Z.Z.Z.Z.Z.Z.Z.Z.Z.Z.Z.Z.Z.Z.Z.Z.Z.Z.Z.Z.Z.Z.Z.Z.Z.",
"Z.Z.Z.Z.Z.Z.Z.Z.Z.Z.Z.Z.Z.Z.Z.Z.Z.Z.Z.Z.Z.Z.Z.Z.Z.Z.Z.Z.Z.Z.Z.Z.Z.Z.Z.Z.Z.Z.Z.Z.Z.Z.Z.Z.Z.Z.Z.Z.Z.Z.",
"Z.Z.Z.Z.Z.Z.Z.Z.Z.Z.Z.Z.Z.Z.Z.Z.Z.Z.Z.Z.Z.Z.Z.Z.Z.Z.Z.Z.Z.Z.Z.Z.Z.Z.Z.Z.Z.Z.Z.Z.Z.Z.Z.Z.Z.Z.Z.Z.Z.Z.",
"Z.Z.Z.Z.Z.Z.Z.Z.Z.Z.Z.Z.Z.Z.Z.Z.Z.Z.Z.Z.Z.Z.Z.Z.Z.Z.Z.Z.Z.Z.Z.Z.Z.Z.Z.Z.Z.Z.Z.Z.Z.Z.Z.Z.Z.Z.Z.Z.Z.Z."
};
