/* XPM */
static char *result[] = {
/* columns rows colors chars-per-pixel */
"50 50 221 2 ",
"   c #266819",
".  c #2A6C1B",
"X  c #277812",
"o  c #2B7D15",
"O  c #2D751C",
"+  c #2C7918",
"@  c #32781D",
"#  c #325D27",
"$  c #2F6625",
"%  c #2E6A21",
"&  c #356929",
"*  c #2F7321",
"=  c #327323",
"-  c #397626",
";  c #3A752C",
":  c #3B6B31",
">  c #3D6A38",
",  c #3D7334",
"<  c #3E7933",
"1  c #49553B",
"2  c #49642D",
"3  c #51642E",
"4  c #457B29",
"5  c #446B38",
"6  c #596A36",
"7  c #477638",
"8  c #587939",
"9  c #65773B",
"0  c #595A4B",
"q  c #466E42",
"w  c #506D40",
"e  c #4B7444",
"r  c #4B7746",
"t  c #56794A",
"y  c #547951",
"u  c #5A7D55",
"i  c #686D4E",
"p  c #677540",
"a  c #617648",
"s  c #697848",
"d  c #757A42",
"f  c #747C49",
"g  c #7E7F4A",
"h  c #6C675C",
"j  c #677854",
"k  c #7A556C",
"l  c #795B6F",
"z  c #76616A",
"x  c #6D7D68",
"c  c #8F5D7A",
"v  c #915E7C",
"b  c #867B67",
"n  c #94617F",
"m  c #9A797D",
"M  c #2D8214",
"N  c #34831B",
"B  c #3C8522",
"V  c #3D8821",
"C  c #468529",
"Z  c #4E8531",
"A  c #588738",
"S  c #68863A",
"D  c #5C8343",
"F  c #5C8258",
"G  c #698747",
"H  c #638943",
"J  c #6D8C49",
"K  c #78874A",
"L  c #6B845C",
"P  c #748653",
"I  c #70865E",
"U  c #7A8858",
"Y  c #638562",
"T  c #698864",
"R  c #678469",
"E  c #6B8B6C",
"W  c #6F8E6D",
"Q  c #728A69",
"!  c #798977",
"~  c #778F7C",
"^  c #749273",
"/  c #799579",
"(  c #7C9B7B",
")  c #82874D",
"_  c #87944C",
"`  c #868C58",
"'  c #948D5B",
"]  c #998D5D",
"[  c #99965B",
"{  c #878764",
"}  c #8D836B",
"|  c #93886B",
" . c #899062",
".. c #9B9064",
"X. c #838B7D",
"o. c #9B8775",
"O. c #80947D",
"+. c #A79A69",
"@. c #B19A6E",
"#. c #A88C75",
"$. c #AB8E75",
"%. c #A78D7E",
"&. c #B69777",
"*. c #BB9B77",
"=. c #B6AA77",
"-. c #C2AB7F",
";. c #B25C96",
":. c #B65C99",
">. c #BA5D9C",
",. c #9D6384",
"<. c #976983",
"1. c #9A7085",
"2. c #A6688A",
"3. c #A67E83",
"4. c #B17B8E",
"5. c #BC629C",
"6. c #BC6C9A",
"7. c #AE7393",
"8. c #B97097",
"9. c #B57B94",
"0. c #B87E93",
"q. c #BC7599",
"w. c #BF59A2",
"e. c #C1639F",
"r. c #C26A9F",
"t. c #C3749E",
"y. c #C87E9D",
"u. c #C25CA3",
"i. c #C95EAA",
"p. c #CF5CB0",
"a. c #D55EB5",
"s. c #C463A2",
"d. c #C867A6",
"f. c #C56BA2",
"g. c #CA6CA5",
"h. c #CD65AB",
"j. c #CD6BAB",
"k. c #D165AD",
"l. c #D36BAD",
"z. c #C473A2",
"x. c #C975A3",
"c. c #CD7BA5",
"v. c #D17DA5",
"b. c #D472AC",
"n. c #D777AC",
"m. c #D364B4",
"M. c #DA65B6",
"N. c #DB6CB3",
"B. c #D868B5",
"V. c #D660B8",
"C. c #DE6AB8",
"Z. c #DC72B3",
"A. c #DE7BB2",
"S. c #E16EB6",
"D. c #E26CB9",
"F. c #E173B6",
"G. c #E37CB5",
"H. c #E574B9",
"J. c #EA72BD",
"K. c #E67AB9",
"L. c #ED7DBD",
"P. c #7E9882",
"I. c #8B8287",
"U. c #888984",
"Y. c #849E83",
"T. c #889E84",
"R. c #84998C",
"E. c #8A9E8B",
"W. c #909E8F",
"Q. c #949B93",
"!. c #AA8582",
"~. c #B8868B",
"^. c #B28490",
"/. c #86A587",
"(. c #8AA386",
"). c #8CA58C",
"_. c #8CAC8C",
"`. c #91AC8E",
"'. c #92B78E",
"]. c #8CA791",
"[. c #93AC92",
"{. c #93AB98",
"}. c #8FB491",
"|. c #94B395",
" X c #98B797",
".X c #93BC96",
"XX c #96B599",
"oX c #9AB59C",
"OX c #9BBC9C",
"+X c #A1BE9F",
"@X c #9DBFA0",
"#X c #C0888B",
"$X c #C8958A",
"%X c #C88696",
"&X c #C4B184",
"*X c #D2A995",
"=X c #D887A5",
"-X c #D686AB",
";X c #DA82AD",
":X c #DE8DA9",
">X c #E18CAB",
",X c #E297AB",
"<X c #E584B6",
"1X c #ED84BB",
"2X c #EB88B8",
"3X c #E698B5",
"4X c #E2A3AF",
"5X c #94C596",
"6X c #98C093",
"7X c #97C897",
"8X c #99C997",
"9X c #96C599",
"0X c #9CC69B",
"qX c #9DCB99",
"wX c #A2C39E",
"eX c #A0CC9A",
"rX c #9EC4A1",
"tX c #9DC8A1",
"yX c #A5C4A1",
"uX c #A6CBA1",
"iX c #A9CDA3",
/* pixels */
"7X5X5X5X0XtX@XoXoXoXoXoXoXoXoXoXoXoXoXoXoXoXoXoXoXoXoXoXoXoXoXoXXXoXoXoXoXoXoXoXoXoXoXoXoXoX+XyX7X9X",
"qX7X7X5X9X.X|.).T.).W.Q.Q.Q.W.W.Q.Q.Q.Q.Q.Q.Q.Q.Q.Q.Q.].Q.Q.Q.Q.Q.Q.Q.Q.Q.Q.Q.Q.Q.].W.R.E.T.[.OXqXqX",
"qX8X8X5X5X.X_./.U.X.X.U.U.I.I.1.U.1.I.I.I.I.I.I.1.I.I.1.P.1.1.P.I.I.U.1.I.1.U.U.I.U.U.! x x O.+XqXeX",
"eXeXqX7X5X5X/./ Q h h l l l l l l k k l k k k k l l l k k k k k k k l k k k l l l z h 0 0 1 x [.eXeX",
"eXeXeX8X.X_.T j j b b m n n v v <.<.,.,.,.,.,.,.,.,.,.<.,.<.,.,.,.,.v v c v v <.1.1.{ h i 1 x `.qXeX",
"eXeXqXqX.X/.j a s | %.^.0.7.2.n ,.,.7.8.8.6.8.8.q.q.6.q.5.6.6.6.8.8.7.2.,.2.2.7.^.^.| Q j 3 Q `.0XeX",
"eXeXeXeX X).j K ` =.*X4X3X:Xy.y.z.c.<X2X<X1X2X2X1X2X1X2X2X2X2X2X2X2XA.c.z.x.-X-X3X4X&X=.` 6 Q [.0XeX",
"qXeXeXeX X(.G s _ =.*X3X3X;Xr.y.z.b.<X1X1X1X1X1X1X1X1X1X1X1X1X1X1X<XA.c.q.y.c.;X3X4X&X+.' 6 Q `.wXeX",
"eXeXeXeX|.E.s f K =.*X3X>Xn.r.r.z.j.J.L.L.L.J.J.L.1XL.L.L.L.1X1XL.L.n.r.r.r.t.;X3X,X-.+.) 6 Q [.6XeX",
"eXeXeXeX|.T.s s d @.$X>XA.v.;.;.5.s.C.J.J.J.J.J.J.J.J.J.J.J.J.J.J.H.l.e.;.;.5.b.>X,X*.] ) 3 x [.eXeX",
"eXeXeXeX|.T.s p 9 @.$X,XG.b.;.;.5.e.D.J.J.J.J.J.J.J.J.J.J.J.J.J.J.H.l.e.5.5.5.b.2X>X*.] b 3 I `.6XeX",
"eXeXeXiX{.T.a p b *.$X>XG.n.e.e.s.d.J.J.J.J.J.J.J.J.J.J.J.J.J.J.J.J.l.h.e.e.d.n.<X>X*.[ d 3 I [.eXeX",
"eXeXeXiXoXT.a p 9 @.$X>XL.L.S.S.C.K.H.J.J.J.J.J.J.J.J.J.J.J.J.J.J.J.H.F.S.S.S.G.2X:X*.] g 3 P `.eXeX",
"eXeXeXiXoXT.s p d @.$X>XL.L.S.F.K.H.J.L.J.J.J.J.J.J.J.J.J.J.J.J.L.J.G.H.H.H.H.L.2X>X*.] g 3 I [.6XeX",
"eXeXeXiXoXT.a p d @.*.>XG.L.J.H.H.H.K.H.J.J.J.J.J.J.J.J.J.J.J.J.H.G.G.H.H.H.J.L.1X>X*.] g 3 x `.eXeX",
"eXeXeXiX|.T.a 9 d @.$X<XG.J.S.S.b.b.b.b.J.V.J.J.J.J.J.J.J.J.J.J.S.b.b.b.b.S.H.J.G.=X@.] g 3 I [.wXeX",
"eXeXwXiXXXT.t p 9 +.$X;XK.J.D.l.j.x.g.j.F.H.J.J.J.J.J.J.J.J.J.D.b.g.g.b.g.S.D.H.<X=X@.] g 3 I `.8XeX",
"eXeXeXiXXXT.i p d +.$Xv.A.F.D.h.g.r.f.g.Z.F.J.J.J.J.J.J.J.J.J.D.l.r.r.r.d.B.C.F.A.=X@.' g 3 I `.qXeX",
"eXeXeXiXoXT.a 9 9 ..&.%Xn.Z.C.h.5.5.5.f.N.F.J.J.J.J.J.J.J.J.J.H.j.5.5.5.e.B.N.Z.=X%X+.) 9 3 I `.qXqX",
"eXeXeXiX{.T.t 6 9 [ $.#Xv.n.C.d.5.;.:.5.N.F.L.J.J.J.J.J.L.J.J.H.d.5.;.5.e.B.N.n.v.#X[ ) 9 2 I `.qXeX",
"eXeXeXiX X(.a 8 6 _ [ &.%Xn.D.d.>.:.:.>.N.F.K.L.J.J.J.J.L.L.H.F.d.:.:.:.>.B.b.n.%X$._ K 9 3 I |.eXeX",
"eXeXeXiX+X`.j t 8 S ' $.%X%XF.h.s.u.u.d.l.n.A.F.F.H.H.H.Z.Z.Z.Z.d.s.u.u.s.Z.Z.c.~.#.S S 8 6 ^  XqXeX",
"eXeXeXiXwX XT F 8 Z ) #.~.=XA.N.m.h.k.l.l.b.b.b.Z.F.H.S.b.n.n.b.l.l.h.m.m.Z.A.%X&...9 A 8 u ( wXeXeX",
"eXeXeXiXwXOX^ L 8 4 9 ' !.%XK.C.S.D.D.D.l.g.g.g.l.Z.F.S.r.g.g.g.N.S.C.C.C.K.;X%X#.` 4 8 r Y O.wXeXeX",
"eXeXeXiXeXwXO.W t 4 8 ` $.~.A.Z.D.D.D.D.l.r.r.e.g.Z.S.Z.r.r.r.r.N.D.D.C.C.Z.-X~...K 4 7 t W `.yXeXeX",
"eXeXeXeXiXeX'.O.L & 4 K ..%.c.l.M.M.D.M.e.e.5.>.s.l.S.N.5.5.e.e.k.D.C.C.B.n.x.!.' H 2 e L Y. XiXeXeX",
"eXeXeXeXeXeX X(.E $ 2 t ` o.q.j.k.M.M.D.u.>.;.;.e.k.S.k.;.;.;.:.h.M.M.M.m.z.^.| J 8 # w Y `.wXeXeXeX",
"eXeXeXeXeXeXwX`./ & : A P } 4.t.d.M.D.M.u.>.:.:.e.k.S.k.;.:.:.>.h.M.M.m.j.9.3.} D 8 # y W  XwXeXeXeX",
"eXeXeXeXeXeX+X{.O.e 5 7 D f o.9.r.h.B.M.i.u.u.u.p.a.M.M.w.w.w.i.a.m.k.g.t.m b P A 7 > L O.+XwXeXeXeX",
"eXeXeXeXeXeXyX+X`.u 7 ; 7 A P m 4.x.k.m.a.p.p.p.a.a.a.a.p.p.p.p.m.m.g.z.9.{ P A ; , y ^ ).wXeXeXqXeX",
"eXeXeXeXeXeXiXwX|.T r ; = C G } 3.q.j.m.a.a.a.a.a.a.a.a.a.a.a.a.m.m.f.9.3.P A 4 * ; F ( `.yXwXeXeXeX",
"eXeXeXeXeXeXiXyXOX/ F , = - A U } 3.t.d.a.a.M.a.a.M.a.M.a.M.a.a.h.d.9.3.} D Z - $ , E _.+XeXeXeXeXeX",
"eXeXeXeXeXeXeXiXeX(.T 5 % O B H U } 4.z.j.m.m.m.m.m.m.V.V.m.m.m.j.q.!.} P C V O $ 5 O. XwXeXeXeXeXeX",
"eXeXeXeXeXeXeXeXeX|.^ e $ O M Z H U 3.9.j.j.m.m.m.m.m.m.m.m.m.j.z.^.} I D V N . $ q ).OXuXeXeXeXeXqX",
"eXeXeXeXeXeXeXeXeX+XO.u , - M B Z J } !.9.q.z.j.c.j.z.z.z.z.z.t.4.m U G Z M + * > u {.wXiXeXeXeXeXeX",
"eXeXeXeXeXeXeXeXiX+X(.L r ; X N V A P | !.4.9.^.^.^.^.^.0.^.^.^.o.{ G A V o O ; r R OXwXeXeXeXeXeXeX",
"eXeXeXeXeXeXeXeXuXyX_.^ y < X o N V D P  .o.%.%.!.!.%.%.%.%.%.+.{ J Z V M o * < F ^ eXeXeXeXeXeXeXeX",
"eXeXeXeXeXeXeXeXqXuXOX/.T F = + + N Z D U U  .(  .O. . . . . .U J A C @ o = B F ^ (.eXeXeXeXeXeXeXqX",
"eXeXeXeXqXeXeXeXqXuX9X}.( Y , = * + - Z H J F J J J J J J J J J A C - O + , r W O.6XeXqXeXeXeXeXeXeX",
"eXeXeXeXqXeXeXqXqX8X9XtX}.P.y , %   * N V V B N N C V V V V V V @ * .   % e F /.8XeXeXeXeXeXeXqXeXeX",
"qXeXeXeXqXeXqX7X8X9X9XtX@X/.E r > $ = * M M M M M M M M M M M M * * & & , Y / }.6X8XqXeXeXeXeXeXeXeX",
"eXeXeXeXeXqX8X5X5X5XtXtXrX}.P.Y y q , < * * X M X X X X X X X * = , < q r / P..X6X7XqXqXqXeXeXeXeXeX",
"eXeXeXeXqXqX5X5X5X5X9X9XrXrX.X/.P.R F r $                   $   < y Y E P.{.XXrX7X7X7XqXeXeXeXeXeXqX",
"eXeXeXqX8X7X5X5X5X5X5X9XtXrXrX{.P.P.P.y q , $ $ $ $ $ $ $ $ # # r Y ~ P./.OXrXtX7X5X5X7X7XeXeXeXeXeX",
"eXeXeXqX5X5X5X5X5X5X5X5X9XtXrXXXP.P.P.P.y q > q > > > > > > > > Y ^ P.].|.@XrXtX7X7X5X5X7X7XqXqXeXeX",
"eXqX8X7X5X5X5X5X5X5X5X5X5X9XtXtXrX@XtXXXP.R R R R R R R x x R P.P.}.rXtXrX0XtX5X5X5X5X5X7X7X8XqXeXeX",
"qX7X8X7X5X5X5X5X5X5X5X5X5X5X9XtXtXtX@X@XP.P.~ ~ P.P.P.P.P.P.P.P.].XXrX9X5X7X5X5X5X5X5X5X5X7X8X8XqXqX",
"qX7X7X7X5X5X5X5X5X5X5X5X5X5X5X5XtXtX@X@X{.P.P.P.P.P.P.P.P.P.P.Q.XXrXrX9X5X5X5X5X5X5X5X5X5X7X7X7X8X7X",
"7X7X5X5X5X5X5X5X5X5X5X5X5X5X5X5X5X5X9X@X{.}..XP.R.P.R.R.R.R.R.{.}.9X5X5X5X5X5X5X5X5X5X5X5X5X5X5X5X5X",
"7X7X5X5X5X5X5X5X5X5X5X5X5X5X5X5X5X5X5X5X{..X5X].R.P.R.R.R.R.P.{.}.9X5X5X5X5X5X5X5X9X5X5X5X5X5X5X5X5X"
};
