/* XPM */
static char *result[] = {
/* columns rows colors chars-per-pixel */
"50 50 161 2 ",
"   c #1E242B",
".  c #20282D",
"X  c #272636",
"o  c #282635",
"O  c #252A33",
"+  c #35393F",
"@  c #276919",
"#  c #277116",
"$  c #2A7915",
"%  c #397D26",
"&  c #457F1C",
"*  c #4C5F37",
"=  c #4F6B25",
"-  c #546D27",
";  c #4F673B",
":  c #5A6739",
">  c #656D3A",
",  c #383D42",
"<  c #3E5049",
"1  c #454D4D",
"2  c #495848",
"3  c #426B41",
"4  c #5A6643",
"5  c #4A6354",
"6  c #6E744F",
"7  c #854675",
"8  c #854874",
"9  c #8A477A",
"0  c #924E7E",
"q  c #27860D",
"w  c #28850D",
"e  c #2B8511",
"r  c #388B1F",
"t  c #3E8721",
"y  c #478729",
"u  c #5D8A2F",
"i  c #478936",
"p  c #538932",
"a  c #588739",
"s  c #639425",
"d  c #6E9239",
"f  c #54844B",
"g  c #6B8D47",
"h  c #6B8B48",
"j  c #798B56",
"k  c #619557",
"l  c #6A985D",
"z  c #5EA24D",
"x  c #698A6F",
"c  c #768868",
"v  c #779D7B",
"b  c #7EAF77",
"n  c #81814A",
"m  c #879648",
"M  c #82865E",
"N  c #879355",
"B  c #989858",
"V  c #9D8B6D",
"C  c #8D9165",
"Z  c #95936C",
"A  c #988B73",
"S  c #9F9475",
"D  c #AE946F",
"F  c #BA9D77",
"G  c #BA957B",
"H  c #82A177",
"J  c #85BA7C",
"K  c #B3B971",
"L  c #C09E7D",
"P  c #8F3F83",
"I  c #BA3FAD",
"U  c #9A4F86",
"Y  c #9A458C",
"T  c #9A5183",
"R  c #A5558C",
"E  c #A64A95",
"W  c #AC5493",
"Q  c #B25796",
"!  c #B25D94",
"~  c #B4529C",
"^  c #BC5F9C",
"/  c #AB6F8B",
"(  c #AA728E",
")  c #B46495",
"_  c #BB649B",
"`  c #AB7C92",
"'  c #BE7B9A",
"]  c #BA40AD",
"[  c #BE48AF",
"{  c #BC57A3",
"}  c #C249AF",
"|  c #C757AD",
" . c #C751B1",
".. c #CE5CB3",
"X. c #D45EB6",
"o. c #D75FB8",
"O. c #DA5FB9",
"+. c #C062A1",
"@. c #C36CA3",
"#. c #CC68A7",
"$. c #CC66AB",
"%. c #D56AAF",
"&. c #CD72A7",
"*. c #D27BA7",
"=. c #CE63B3",
"-. c #D362B4",
";. c #DB6BB4",
":. c #D660B8",
">. c #D961B9",
",. c #D76BB8",
"<. c #DC75B5",
"1. c #E06BB8",
"2. c #E36DBA",
"3. c #E571BA",
"4. c #EA74BC",
"5. c #EC7CBC",
"6. c #F07EBE",
"7. c #8A9D83",
"8. c #AA8688",
"9. c #B89683",
"0. c #BD968D",
"q. c #BA8A90",
"w. c #84AA84",
"e. c #97B693",
"r. c #A2BD9F",
"t. c #C28B8A",
"y. c #CD8A95",
"u. c #D39797",
"i. c #D1BF8E",
"p. c #CC89A1",
"a. c #D79BA6",
"s. c #DE86B3",
"d. c #E592AF",
"f. c #E483B6",
"g. c #E58FB5",
"h. c #E683B9",
"j. c #EC89BD",
"k. c #F184BE",
"l. c #F38ABF",
"z. c #E794B6",
"x. c #ED93BB",
"c. c #F195BD",
"v. c #F499BF",
"b. c #E2BAA8",
"n. c #F1B6BE",
"m. c #92C28B",
"M. c #94C596",
"N. c #96C897",
"B. c #9CCB97",
"V. c #9ECB99",
"C. c #A0CD97",
"Z. c #A0CC99",
"A. c #A1C6A5",
"S. c #A6CAA4",
"D. c #AACBA7",
"F. c #D2C394",
"G. c #F28BC0",
"H. c #F795C0",
"J. c #F899C2",
"K. c #F2A0C1",
"L. c #F6ABC7",
/* pixels */
"N.M.M.M.M.M.M.M.M.M.e.M.M.M.M.M.M.M.M.M.M.M.M.M.M.M.M.M.M.M.M.M.M.M.M.M.M.M.M.M.M.M.M.M.M.M.M.M.M.N.",
"B.N.M.M.M.M.M.M.M.M.M.M.M.M.M.M.M.M.M.M.M.M.M.M.M.M.M.M.M.M.M.M.M.M.M.M.M.M.M.M.M.M.M.M.M.M.M.M.N.C.",
"Z.V.N.M.M.M.M.M.M.M.M.M.M.M.M.M.M.M.M.M.M.M.M.M.M.M.M.M.M.M.M.M.M.M.M.M.M.M.M.M.M.M.M.M.M.M.M.N.C.C.",
"Z.Z.V.N.M.M.M.M.M.M.M.M.M.M.M.M.M.M.M.M.M.M.M.M.M.M.M.M.M.M.M.M.M.M.M.M.M.M.M.M.M.M.M.M.M.M.M.S.V.Z.",
"Z.Z.Z.V.N.M.M.M.M.M.M.M.M.M.M.M.M.M.M.M.M.M.M.M.M.M.M.M.M.M.M.M.M.M.M.M.M.M.M.M.M.M.M.M.M.N.Z.V.Z.Z.",
"Z.Z.Z.Z.B.M.M.M.M.M.M.M.M.M.M.M.M.M.M.M.M.M.M.M.M.M.M.M.M.M.M.M.M.M.M.M.M.M.M.M.e.M.M.M.N.V.Z.Z.Z.V.",
"Z.Z.Z.Z.Z.Z.M.M.M.M.M.M.M.M.M.M.M.M.M.M.M.M.M.M.M.M.M.M.M.M.M.M.M.M.M.M.M.M.M.M.M.M.M.N.V.Z.Z.Z.Z.Z.",
"Z.Z.Z.Z.Z.Z.Z.M.M.M.M.M.M.M.M.M.M.M.M.M.M.M.M.M.M.M.M.M.M.M.M.M.M.M.M.M.M.M.M.M.M.M.M.V.V.Z.Z.V.Z.Z.",
"Z.Z.Z.Z.Z.Z.Z.Z.N.M.M.M.M.M.M.M.M.M.M.M.M.M.M.M.M.M.M.M.M.M.M.M.M.M.M.M.M.M.M.M.M.B.Z.Z.Z.Z.Z.Z.Z.Z.",
"Z.Z.Z.Z.V.Z.Z.Z.B.N.M.M.M.M.M.M.M.M.M.M.M.M.M.M.M.M.M.M.M.M.M.M.M.M.M.M.M.M.M.M.N.Z.Z.Z.Z.Z.Z.Z.Z.Z.",
"Z.Z.Z.Z.Z.Z.Z.Z.Z.Z.N.M.M.M.M.M.M.M.M.M.M.M.M.M.M.M.M.M.M.M.M.M.M.M.M.M.M.M.M.N.Z.Z.Z.Z.Z.Z.Z.Z.Z.Z.",
"Z.Z.Z.Z.Z.Z.Z.Z.Z.Z.Z.M.M.M.M.M.M.M.M.M.M.M.M.M.M.M.M.M.M.M.M.M.M.M.M.M.M.M.M.V.Z.Z.Z.Z.Z.Z.Z.Z.Z.Z.",
"Z.Z.Z.Z.Z.Z.Z.Z.Z.V.Z.B.N.M.M.M.M.M.M.M.M.M.M.M.M.M.M.M.M.M.M.M.M.M.M.M.M.N.Z.Z.Z.Z.Z.Z.Z.Z.Z.Z.Z.Z.",
"Z.Z.Z.Z.Z.Z.Z.Z.Z.Z.Z.Z.B.N.M.M.M.M.M.M.M.M.e.M.M.M.M.M.M.M.M.M.M.M.M.M.N.Z.Z.Z.Z.Z.Z.Z.Z.Z.Z.Z.Z.Z.",
"Z.Z.Z.Z.Z.Z.Z.Z.Z.Z.Z.Z.Z.Z.M.M.M.M.M.M.M.M.M.M.M.M.M.M.M.M.M.M.M.M.e.N.Z.Z.Z.Z.Z.Z.Z.Z.Z.Z.Z.Z.Z.Z.",
"Z.Z.Z.Z.Z.Z.Z.Z.Z.Z.Z.Z.Z.Z.Z.N.M.M.M.M.M.M.M.M.M.M.M.M.M.M.M.M.N.N.N.Z.Z.Z.Z.Z.Z.Z.Z.Z.Z.Z.Z.Z.Z.Z.",
"Z.Z.Z.Z.Z.Z.Z.Z.Z.D.D.D.D.D.D.D.A.A.A.A.A.A.A.A.A.A.A.A.A.A.A.A.A.S.D.D.D.D.D.D.D.D.D.S.Z.Z.Z.Z.Z.Z.",
"Z.Z.Z.Z.Z.Z.w.o o o o o o o o o . X X X o o o o o o o o o X X X o o o o o o o o o o o + , + 1 e.Z.Z.",
"Z.Z.S.c : 6 Z A ` ( ( / / / / / / ( ( ( / / / / / / / / / / / / / / / / / / / / ( ` 8.A M 4 2 7.A.r.",
"Z.Z.Z.c > B F.b.L.K.g.g.g.x.v.J.J.J.G.H.H.H.v.v.H.H.H.H.H.H.H.H.v.J.J.H.c.g.g.g.x.L.n.i.K n 4 7.r.r.",
"Z.Z.Z.c - n L u.j.&.8 8 T ) h.l.j.6.5.4.4.4.4.4.4.4.4.4.4.4.4.4.6.l.l.k.&.9 8 U ) s.d.F B > * 7.r.r.",
"Z.Z.Z.c - n L u.3.#.W W ^ ^ ) ) _ #.1.4.5.k.6.5.4.4.5.6.6.6.4.4.%.) ) @._ ! W ~ { <.s.G B > * H r.r.",
"Z.C.Z.H = 6 F t.%.=.-.>.2.$.9 7 T W %.4.5.h.h.5.4.4.5.h.f.5.4.4.+.7 9 U Q 1.;.X.-.%.p.D B > ; C.Z.Z.",
"Z.Z.Z.Z.l & s m 9.y.%...} } | =.;.2.3.;.R 8 0 R $.3.! 7 0 R | 4.3.;.-.|  .}  .<.*.G D s y l C.Z.Z.Z.",
"Z.Z.Z.Z.Z.C.t u N V ' @.=.-.:.:.:.:.:.| Y Y Y E { O.{ P P E { X.O.O.O.o.X.-.$.@.8.N d p Z.Z.Z.Z.Z.Z.",
"Z.Z.Z.Z.Z.Z.C.J e p S 0.z.x.,...[ ] ] ] ] ] ] ] I I I I I I I I I ]  .<.f.H.a.C h r m.Z.Z.Z.Z.Z.Z.Z.",
"Z.Z.Z.Z.Z.Z.C.C.V.# y i p h A q.s.G.j.j.G.j.G.j.G.j.j.j.G.G.G.h.j.j.p.A j a i t p Z.Z.Z.Z.Z.Z.Z.Z.Z.",
"Z.Z.Z.Z.Z.Z.C.C.Z.V.N.t $ t j C 9.0.0.0.0.0.0.0.0.0.0.0.0.0.0.0.0.0.S g a i J J Z.Z.Z.Z.Z.Z.Z.Z.Z.Z.",
"Z.Z.Z.Z.Z.Z.Z.C.Z.Z.Z.Z.b % e e q q e e e e e e e e q q q q e e w e r z C.C.e.Z.Z.Z.Z.Z.Z.Z.Z.Z.Z.Z.",
"Z.Z.Z.Z.Z.Z.Z.Z.Z.Z.Z.Z.S.V.x 3 @ @ $ q q q q q q q q q q q q q % k C.Z.C.C.B.Z.Z.Z.Z.Z.Z.Z.Z.Z.Z.Z.",
"Z.Z.Z.Z.Z.Z.Z.Z.Z.Z.Z.Z.V.V.Z.Z.V.f @ # # # # # # # $ # # # @ i J Z.Z.Z.C.C.Z.Z.Z.Z.Z.Z.Z.Z.Z.Z.Z.Z.",
"Z.Z.Z.Z.Z.Z.Z.Z.Z.Z.Z.Z.Z.Z.V.V.V.V.M.v 5 < O   . .   O < x w.M.Z.Z.Z.Z.Z.Z.Z.Z.Z.Z.Z.Z.Z.Z.Z.Z.Z.Z.",
"Z.Z.Z.Z.Z.Z.Z.Z.Z.Z.Z.Z.Z.Z.Z.Z.N.M.M.M.M.M.M.M.M.M.M.M.M.M.M.M.M.V.V.V.Z.Z.Z.Z.Z.Z.Z.Z.Z.Z.Z.Z.Z.Z.",
"Z.Z.Z.Z.Z.Z.Z.Z.Z.Z.Z.Z.Z.Z.Z.Z.M.M.M.M.M.M.M.M.M.M.M.M.M.M.M.M.M.N.V.V.V.Z.Z.Z.Z.Z.Z.Z.Z.Z.Z.Z.Z.Z.",
"Z.Z.Z.Z.Z.Z.Z.Z.Z.Z.Z.Z.V.V.V.N.M.M.M.M.M.M.M.M.M.M.M.M.M.M.M.M.M.M.M.V.Z.Z.Z.Z.Z.Z.Z.Z.Z.Z.Z.Z.Z.Z.",
"Z.Z.Z.Z.Z.Z.Z.Z.Z.Z.Z.Z.Z.V.M.N.M.M.M.M.M.M.M.M.M.M.M.M.M.M.M.M.M.M.M.N.Z.Z.V.Z.Z.Z.Z.Z.Z.Z.Z.Z.Z.Z.",
"Z.Z.Z.Z.Z.Z.Z.Z.Z.Z.Z.Z.V.M.M.M.M.M.M.M.M.M.M.M.M.M.M.M.M.M.M.M.M.M.M.M.N.V.V.Z.Z.Z.Z.Z.Z.Z.Z.Z.Z.Z.",
"Z.Z.Z.Z.Z.Z.Z.Z.Z.Z.V.N.N.M.M.M.e.M.M.M.M.M.M.M.M.M.M.M.M.M.M.M.M.M.M.M.M.N.V.V.Z.Z.Z.Z.Z.Z.Z.Z.Z.Z.",
"Z.Z.Z.Z.Z.Z.Z.Z.Z.Z.V.M.M.M.M.M.M.M.M.M.M.M.M.M.M.M.M.M.M.M.M.M.M.M.M.M.M.M.M.V.Z.Z.Z.Z.Z.Z.Z.Z.Z.Z.",
"Z.Z.Z.Z.Z.Z.Z.Z.V.V.M.M.M.M.M.M.M.M.M.M.M.M.M.M.M.M.M.M.M.M.M.M.M.M.M.M.M.M.M.N.Z.Z.Z.Z.Z.Z.Z.Z.Z.Z.",
"V.C.Z.Z.Z.V.C.C.B.N.M.M.M.M.M.M.M.M.M.M.M.M.M.M.M.M.M.M.M.M.M.M.M.M.M.M.M.M.M.M.N.V.Z.Z.Z.Z.Z.Z.Z.Z.",
"Z.Z.Z.Z.Z.V.C.B.N.M.M.M.M.M.M.M.M.M.M.M.M.M.M.M.M.M.M.M.M.M.M.M.M.M.M.M.M.M.M.M.M.N.Z.V.V.Z.Z.Z.Z.Z.",
"Z.Z.Z.Z.Z.Z.V.M.M.M.M.M.M.M.M.M.M.M.M.M.M.M.M.M.M.M.M.M.M.M.M.M.M.M.M.M.M.M.M.M.M.M.N.V.Z.Z.Z.Z.Z.Z.",
"Z.Z.Z.Z.V.V.M.M.M.M.M.M.M.M.M.M.M.M.M.M.M.M.M.M.M.M.M.M.M.M.M.M.M.M.M.M.M.M.M.M.M.M.M.N.V.Z.V.Z.Z.Z.",
"Z.Z.Z.Z.N.N.M.M.M.M.M.M.M.M.M.M.M.M.M.M.M.M.M.M.M.M.M.M.M.M.M.M.M.M.M.M.M.M.M.M.M.M.M.M.N.V.Z.Z.V.Z.",
"Z.Z.Z.V.M.M.M.M.M.M.M.M.M.M.M.M.M.M.M.M.M.M.M.M.M.M.M.M.M.M.M.M.M.M.M.M.M.M.M.M.M.M.M.M.M.N.V.Z.C.V.",
"V.V.V.N.M.M.e.M.M.M.M.M.M.M.M.M.M.M.M.M.M.M.M.M.M.M.M.M.M.M.M.M.M.M.M.M.M.M.M.M.M.M.M.M.M.M.N.V.V.V.",
"V.V.N.M.M.M.M.M.M.M.M.M.M.M.M.M.M.M.M.M.M.M.M.M.M.M.M.M.M.M.M.M.M.M.M.M.M.M.M.M.M.M.M.M.M.M.M.N.V.V.",
"V.M.M.M.M.M.M.M.M.M.M.M.M.M.M.M.M.M.M.M.M.M.M.M.M.M.M.M.M.M.M.M.M.M.e.M.M.M.M.M.M.M.M.M.M.M.M.M.M.V.",
"M.M.M.M.M.M.M.M.M.M.M.M.M.M.M.M.M.M.M.M.M.M.M.M.M.M.M.M.M.M.M.M.M.M.M.M.M.M.M.M.M.M.M.M.M.M.M.M.M.M."
};
