/* XPM */
static char *result[] = {
/* columns rows colors chars-per-pixel */
"50 50 168 2 ",
"   c #6E5A66",
".  c #6E5B69",
"X  c #715A67",
"o  c #745C69",
"O  c #7B5E6B",
"+  c #6E616D",
"@  c #71626F",
"#  c #7A626D",
"$  c #676775",
"%  c #6C6573",
"&  c #696877",
"*  c #696778",
"=  c #6B6B79",
"-  c #736572",
";  c #7C6574",
":  c #7D6876",
">  c #736E7B",
",  c #7A6F7B",
"<  c #6F737F",
"1  c #75717D",
"2  c #79737F",
"3  c #815F6E",
"4  c #84616E",
"5  c #8A636F",
"6  c #80686F",
"7  c #846372",
"8  c #8C6471",
"9  c #806B72",
"0  c #8D6B73",
"q  c #926672",
"w  c #996773",
"e  c #946A73",
"r  c #9B6B75",
"t  c #926F78",
"y  c #9F6A78",
"u  c #867277",
"i  c #8F7175",
"p  c #927376",
"a  c #9E7177",
"s  c #93737A",
"d  c #9C7478",
"f  c #A26C77",
"g  c #A46C79",
"h  c #AB6F7A",
"j  c #A6757A",
"k  c #AC747A",
"l  c #A37B7D",
"z  c #AB7B7D",
"x  c #B37C7E",
"c  c #BC787D",
"v  c #C47A7F",
"b  c #6D7482",
"n  c #687887",
"m  c #667A88",
"M  c #717482",
"N  c #707E8C",
"B  c #957881",
"V  c #997A81",
"C  c #B47D80",
"Z  c #C17D80",
"A  c #D07E82",
"S  c #71808E",
"D  c #7A838E",
"F  c #758491",
"G  c #7F8490",
"H  c #9E8382",
"J  c #9F9A92",
"K  c #A48282",
"L  c #AC8482",
"P  c #AE8985",
"I  c #B18582",
"U  c #BA8483",
"Y  c #B18A85",
"T  c #B98A87",
"R  c #B38E89",
"E  c #B98E88",
"W  c #A3938D",
"Q  c #AE938D",
"!  c #B3918B",
"~  c #BC928B",
"^  c #BE988E",
"/  c #A49A93",
"(  c #B39790",
")  c #B29C94",
"_  c #B39F98",
"`  c #9AAF95",
"'  c #94BB95",
"]  c #9BBC9C",
"[  c #AAA596",
"{  c #A4AD9C",
"}  c #A9AB9A",
"|  c #B9A396",
" . c #B2A09A",
".. c #B9A398",
"X. c #A4B39C",
"o. c #A3BCA2",
"O. c #ABBDA6",
"+. c #C38585",
"@. c #C98384",
"#. c #C58887",
"$. c #CD8987",
"%. c #C68B89",
"&. c #CB8C8A",
"*. c #D28586",
"=. c #DC8788",
"-. c #C2948D",
";. c #CD918B",
":. c #D0918C",
">. c #DC928E",
",. c #C09990",
"<. c #CB9B91",
"1. c #DA9790",
"2. c #D09E93",
"3. c #DC9A91",
"4. c #E38D8C",
"5. c #E59791",
"6. c #E69C94",
"7. c #E99C93",
"8. c #C0A197",
"9. c #CDA295",
"0. c #C6A69B",
"q. c #D0A194",
"w. c #D1A798",
"e. c #DBA698",
"r. c #D5AB9B",
"t. c #DEAA9A",
"y. c #E7A498",
"u. c #EBA699",
"i. c #E2AD9C",
"p. c #EEAA9C",
"a. c #F1AE9E",
"s. c #E3B29E",
"d. c #F2B19F",
"f. c #DCB4A3",
"g. c #E7B4A1",
"h. c #EDB3A0",
"j. c #E5B9A4",
"k. c #EABAA5",
"l. c #E3BCAA",
"z. c #EABEA8",
"x. c #F3B6A2",
"c. c #F4B9A5",
"v. c #F6BDA8",
"b. c #F8BFA8",
"n. c #94C596",
"m. c #9AC997",
"M. c #95C498",
"N. c #9CC39D",
"B. c #99C89A",
"V. c #A3CD9E",
"C. c #A2C3A1",
"Z. c #AEC2A5",
"A. c #E9C3AD",
"S. c #F7C0A7",
"D. c #F6C4AB",
"F. c #F9C6AC",
"G. c #F6C9AF",
"H. c #FBC9AE",
"J. c #E9C5B0",
"K. c #E9CAB3",
"L. c #F6CCB3",
"P. c #FACCB1",
"I. c #FAD1B6",
"U. c #F6D4BA",
"Y. c #FAD4BA",
"T. c #FBD9BD",
"R. c #FADDC1",
"E. c #FBE2C6",
/* pixels */
"n.n.n.n.n.n.n.n.' ' { u o # # 6 6 9 9 9 9 : 9 # # # # 9 6 9 9 9 u 9 9 9 # # # 6 J ] ' M.n.n.n.n.n.n.",
"n.n.n.n.n.n.' ` J H 9.g.L T i.D.H.I.Y.Y.T.R.I.c.L E s.F.H.I.Y.Y.T.E.E.Y.c.I T s.9.K W ` ' M.n.n.n.n.",
"n.n.n.n.M.X./ Q r.G.H.F.! ,.k.H.H.H.H.H.H.H.H.D.! ^ z.H.H.H.H.H.H.H.H.H.D.! ^ z.H.F.f.Q W X.N.n.n.n.",
"n.n.n.N.{ ..f.U.T.I.H.S.Y ~ g.F.H.H.H.H.H.H.H.c.Y ~ d.G.H.H.H.H.H.H.H.F.S.P ~ g.F.I.T.U.l.8.} C.M.n.",
"n.n.] } 0.l.U.P.F.b.a.7.z C 1.u.a.p.p.p.p.p.u.6.z x 3.u.a.u.p.p.p.p.p.u.7.k x 5.p.c.F.H.I.A.0.[ C.B.",
"m.n.o.| f.L.P.F.c.7.4.=.f q q w r r r r r r r r 6 5 w r a r w a r r r r r 4 g A 4.7.d.F.P.P.j.Q Z.V.",
"V.V.) w.c.H.F.a.7.=.h 8 O 3 q 3 X                                     7 q 4 O 3 j *.5.a.F.H.F.t.Q Z.",
"V.O.| j.G.H.v.7.*.g O X 3 w g q O X                                 o 8 g r 3 X X r @.7.x.F.F.c.! Z.",
"o L i.S.H.v.p.$.r X X X X X X X                                         X X       X q #.u.S.H.F.h.L ",
"O R k.G.H.c.6.v q # 5 y h f 5 o                                         X X o O o X 5 c 5.d.F.H.G.! ",
"O Y g.G.F.x.:.e O 8 f h h h q o                                         X 5 g h g 5 O q #.p.F.F.F.R ",
"o t Y ~ ~ U j 4 o 3 q q q 5 O X                                           O 8 8 e 5 o 4 a I ~ -.T p ",
"o 0 L ! R I j #   o O 7 8 8 7 O                                       X O 4 8 5 O o   # t z R ! I e ",
"# P j.D.F.d.:.s 2 < : q h h h q o X                                   X 8 g h w ; 1 1 p %.p.F.H.S.R ",
"# ) J.L.H.x.:.d G F > 0 h h h q O X                                 X o q h h q > F F B &.h.H.P.U.) ",
"#  .K.L.H.x.:.t - @ 7 r h h h q O                                     X 8 h h y 7 - - q %.d.F.P.U.) ",
"# ! k.G.H.x.:.r 8 w g g g h w 7 X                                     X 3 w g h g r 5 q %.a.F.H.G.Q ",
"# _ K.H.H.x.:.e o           X                                         X o O O O O o o q %.h.F.P.U.| ",
"# Q k.H.H.v.:.t O O 3 3 O O o                                       X 5 g h h h h g q r %.h.F.H.D.! ",
"# R k.H.H.x.;.r q g h h h g 8 o X                                   o q h h h h h h r r %.d.F.H.D.! ",
"o P g.D.G.d.&.r q g h h h h 8 o                                     X 8 h h h h h h q r %.p.F.H.S.Y ",
"o 0 l P K C a 4 O 8 8 8 5 4 O                                       X O 3 5 5 5 5 7 O 4 e l L P K 0 ",
"o d -.9.q.;.C 8 7 q w w q O o                                           X X O 8 w q 3 8 z %.9.w.<.d ",
"# R j.G.H.x.&.f w h h h h 5 o                                               5 g h h w f #.a.F.H.S.! ",
"#  .K.P.H.c.;.j f h h h h q o X                                     . .     8 g h h r f %.d.F.P.U.| ",
"# _ K.L.H.c.;.r 5 r g g w 3 X = S N -                             + b S > . 3 q g r 5 r %.d.F.P.U.) ",
"# Q z.H.H.c.:.e X X     X     $ m < +                             + b m & . . X o O o 5 %.d.H.H.G.Q ",
"# ) J.G.H.c.;.e X o O 4 O     $ m < +                             . b m & . . # w f 5 r -.d.F.P.U.( ",
"o ! k.D.H.x.:.e O 5 g h 5 +   $ m < % +                           + b m &     5 f h w f %.d.G.P.D.R ",
"# ! k.H.H.c.:.e 3 5 g h 5 X   % m < %                             + < m &     4 r g q r %.d.F.F.H.! ",
"# L s.F.S.a.&.e o o 4 4 #     % n n - +                           + b m & .   o O # O q +.u.S.H.c.P ",
"X # i s p 0 5 # 4 q w w q 4 + $ n < +                             + b m & .     X     o 4 0 p p p # ",
"o j 2.s.i.3.U r e h h h h 8 O % m b - . .                         + < m * . O q q 7 o 5 x :.i.s.e.l ",
"# ! j.G.H.x.:.f r h h h k 8 o $ m b % .                           + < m * . 7 g h q O e %.d.H.H.D.! ",
"#  .K.I.H.c.:.r 7 w y f q 3 X $ m b -                           . + < m * . O q q 7 o 5 #.a.F.P.U. .",
"# _ A.H.H.x.:.e O O 4 O O o X $ m < %                           . + < m * O O O 3 3 O q %.x.F.P.L.| ",
"# ( A.H.H.x.:.y 7 8 y g g 3 o + $ = +                             . & = + 6 f g y 8 3 e %.h.H.H.L.( ",
"# ( A.L.H.c.:.s , M : w h q o                                     .     X q h q 9 2 > p %.h.H.H.L.( ",
"# ! k.F.H.c.:.V H S > 8 g q o o                                         X 5 h q > N D B %.h.F.H.D.! ",
"@ ! j.F.H.x.:.t % * ; w f 7 o                                           X 4 y r 7 ; - 0 %.a.H.H.D.R ",
"O L i.D.S.p.&.e .   X o o o                                           X   o o o o   o 8 +.y.v.F.d.Y ",
"  o # # # O O O 7 y g h h y 7 X                                       X 3 w h h h y 8 O o # # # # o ",
"o L s.D.S.a.&.r w h h h h h q o                                       X 8 h h h h h r f +.y.b.F.k.L ",
"# ! k.H.H.x.;.y 8 q y f g q 3 X                                     X o 8 g h h h h q r #.x.F.H.G.! ",
"#  .K.L.H.c.:.q X X                                                   X O 8 q q e 8 4 w %.a.H.P.U.| ",
"# ( A.L.P.x.:.r 3 7 8 8 7 O                                                           5 #.x.H.H.L.( ",
"O L s.H.b.a.$.y w g h h h 8 X                                             O 5 q q 4 o 0 +.p.S.F.c.Y ",
"o j >.6.7.4.Z w q g h h f 5 X                                             5 g k g 8 O 5 c =.7.7.5.j ",
"  # 4 5 5 5 # o o O O O o o X                                             X O O O X X X 3 4 5 5 5 O ",
"                                                                            X X           X         "
};
