/* XPM */
static char *result[] = {
/* columns rows colors chars-per-pixel */
"50 50 154 2 ",
"   c #18151F",
".  c #191620",
"X  c #1F1D25",
"o  c #211C23",
"O  c #211F30",
"+  c #252025",
"@  c #282125",
"#  c #24212F",
"$  c #29252A",
"%  c #252232",
"&  c #292232",
"*  c #2E2835",
"=  c #322533",
"-  c #3A2634",
";  c #332A35",
":  c #3B2C36",
">  c #3A2F38",
",  c #3C3137",
"<  c #3E343A",
"1  c #422A35",
"2  c #4B2C37",
"3  c #462F38",
"4  c #4C2C38",
"5  c #522D3A",
"6  c #5E2F3B",
"7  c #463037",
"8  c #43333A",
"9  c #4A3439",
"0  c #4D3B3D",
"q  c #573139",
"w  c #5E323A",
"e  c #513B3E",
"r  c #61343C",
"t  c #6C373C",
"y  c #633A3C",
"u  c #693B3E",
"i  c #71383D",
"p  c #7C3C3F",
"a  c #6F403F",
"s  c #573C41",
"d  c #5C3E42",
"f  c #613E40",
"g  c #753740",
"h  c #793740",
"j  c #743F40",
"k  c #793840",
"l  c #514342",
"z  c #5E4142",
"x  c #5C4C48",
"c  c #624443",
"v  c #6C4342",
"b  c #634B46",
"n  c #6B4F47",
"m  c #764341",
"M  c #7A4442",
"N  c #764943",
"B  c #7B4C45",
"V  c #784E4B",
"C  c #6D534C",
"Z  c #7C5046",
"A  c #73544A",
"S  c #7D554C",
"D  c #71584C",
"F  c #635856",
"G  c #775750",
"H  c #745E53",
"J  c #7F5A52",
"K  c #6F625A",
"L  c #77665C",
"P  c #79685C",
"I  c #776960",
"U  c #823D3F",
"Y  c #833D40",
"T  c #893E42",
"R  c #854342",
"E  c #8B4140",
"W  c #844B45",
"Q  c #8A4E46",
"!  c #944443",
"~  c #9E4643",
"^  c #954D46",
"/  c #9F4945",
"(  c #9F4E48",
")  c #865349",
"_  c #8B564B",
"`  c #82594C",
"'  c #8E5B4C",
"]  c #915449",
"[  c #9A5349",
"{  c #945C4D",
"}  c #9C5C4D",
"|  c #815750",
" . c #825952",
".. c #A14744",
"X. c #A34A46",
"o. c #A74F48",
"O. c #A75148",
"+. c #A9554A",
"@. c #A7594B",
"#. c #AC5B4D",
"$. c #B05F4E",
"%. c #AC5E51",
"&. c #8D6753",
"*. c #8D6D57",
"=. c #8C6C5A",
"-. c #936B55",
";. c #9D6953",
":. c #946F58",
">. c #947058",
",. c #9B755D",
"<. c #A0604E",
"1. c #AF614F",
"2. c #B1624F",
"3. c #A16651",
"4. c #AD6253",
"5. c #A56C54",
"6. c #AF6F55",
"7. c #B36551",
"8. c #B56A53",
"9. c #B96D54",
"0. c #B56D59",
"q. c #A67357",
"w. c #AA765B",
"e. c #B27357",
"r. c #BA7257",
"t. c #B57358",
"y. c #BA755A",
"u. c #B5785A",
"i. c #BC7B5C",
"p. c #8C7464",
"a. c #917563",
"s. c #937966",
"d. c #A77B64",
"f. c #AB7F69",
"g. c #B47A63",
"h. c #BA7A62",
"j. c #9F886F",
"k. c #AB8069",
"l. c #BE8460",
"z. c #B1886F",
"x. c #A18A71",
"c. c #AC967D",
"v. c #C28561",
"b. c #C78D65",
"n. c #C88F66",
"m. c #C89066",
"M. c #CD9B6D",
"N. c #CA9771",
"B. c #CFA07B",
"V. c #D1A47F",
"C. c #C3A585",
"Z. c #CFAB87",
"A. c #D2A681",
"S. c #D4A983",
/* pixels */
"  @ $ $ $ $ $ o o o @ @ @ @ @ @ @ $ @ @ @ @ @ @ @ @ @ @ @ @ @ @ @ @ @ @ @ @ @ o   + @ @ $ $ $ $ X . ",
"; d.f.f.f.f.z.p.G B q.w.w.w.w.q.q.w.w.w.q.q.w.w.w.w.w.q.w.w.q.k.q.w.w.w.w.w.5.' 7 -.d.k.k.k.f.C.K % ",
": 4.6.6.8.0.g.s. .W 9.r.r.r.r.r.r.r.u.r.r.r.r.r.u.r.r.r.r.r.r.r.r.r.r.r.y.r.8.{ 3 3.1.4.6.8.4.A.L % ",
": #.8.7.%.%.0.s. .R #.2.7.8.r.r.r.r.9.9.2.2.2.2.7.9.9.9.r.r.9.r.r.r.r.9.7.9.1.^ 1 3.O.@.4.8.#.A.L * ",
"> @.y.8.#.+.7.a.| Y O.+.$.2.9.9.9.9.9.2.#.#.#.#.#.7.2.7.9.9.9.9.9.r.9.9.#.7.#.! 3 @.O.O.#.r.1.V.P % ",
"> @.i.y.8.7.%.p.| U ..2.2.8.9.9.9.9.9.7.2.2.2.2.7.9.9.9.9.9.9.9.9.9.9.9.2.8.4.[ 3 <.2.2.7.l.4.V.P * ",
": @.%.@.+.+.%.a.| Y ..o.o.o.O.o.O.O.O.O.o.o.o.o.O.O.O.O.O.O.O.O.X.O.o.O.O.O.X.E 1 } @.+.+.#.+.B.L % ",
"& W Q Q Q Q _ A f 6 p p p U k Y p p p p U p p p p U p p U U U a p U p p p U g g - a Q Q Q Q Q ,.x % ",
"= m M m M M m d s c M 4 4 4 4 5 2 5 2 5 4 5 4 5 2 2 5 2 2 5 5 2 4 6 t m m M M v : w a a a a a ` l % ",
"; B j p i p i 5 z A ) = & & O & O & O & O & O O $ @ & O O O O $ O 2 r W W W ) A 8 w p p U p R ) 0 % ",
"< e.+...~ ~ ~ t B { +.& O O O O O O O O O O O O O O O O O O O O O 4 g X.X.O.#.} e Y ! ~ X.~ +.i.n % ",
"< l.#.X.......i N ] X.& O O O O O O O O O O O O O O O O O O O O O & - 4 3 3 3 3 = U ~ ....X.$.b.D % ",
"< l.7.@.#.....i N ] X.& O O O O O O O O O O O O O O O O O O O O O O O & & O & $ % E ~ X.o.+.2.b.D % ",
"< l.7.2.2.....i M Q ..= O O O O O O O O O O O O O O O O O O O O O O O O O O O O O T ~ X.O.2.8.n.D % ",
"< l.8.7.7.....i j M E O O O O O O O O O O O O O O O O O O O O O O O O O O O O O # E ~ X.+.9.9.b.D & ",
"< l.8.8.2.X...i q 4 5 & O O O O O O O O O O O O O O O O O O O O O O O O O O O O O U ..X.+.9.9.m.D % ",
"< l.r.9.7.....i 1 O O O O O O O O O O O O O O O O O O O O O O O O O O O O O O O O E ~ / +.9.9.m.D % ",
"< v.r.9.7.....i 1 O O O O O O O O O O O O O O O O O O O O O O O O O O O O O O O O E / X.+.9.9.m.D & ",
"< l.9.8.7.....i 1 O O O O O O O O O O O O O O O O O O O O O O O O O O O O O O O O E ~ X.+.9.9.b.D & ",
"< l.7.7.7.....i 1 O O O O O O O O O O O O O O O O O O O O O O O O O O O O O O O O E ~ X.O.8.9.m.D % ",
"< l.7.7.7.....i 1 O O O O O O O O O O O O O O O O O O O O O O O O O O O O O O O O E ....O.7.8.b.D % ",
"< l.%.$.7.....g 1 O O O O O O O O O O O O O O O O O O O O O O O O O O O O O O O X E ~ X.+.2.7.b.D & ",
"< l.$.$.2...~ i - O O O O O O O O O O O O O O O O O O O O O O O O O O O O O O O O R ..X.O.$.2.b.H % ",
"< v.$.$.$.....g 1 O O O O O O O O O O O O O O O O O O O O O O O O O O O O O O O O R ~ X.O.7.8.b.D % ",
"< l.%.$.2.....i 1 O O O O O O O O O O O O O O O O O O O O O O O O O O O O O O O + E ~ X.o.8.8.m.D & ",
"< l.$.$.2.X...i 1 O O O O O O O O O O O O O O O O O O O O O O O O O O O O O O O O E ..X.o.2.2.b.D & ",
"< l.r.9.7.X...i 1 O O O O O O O O O O O O O O O O O O O O O O O O O O O O O O O O E ..X.+.#.2.b.D % ",
"< l.y.9.7.....i - O O O O O O O O O O O O O O O O O O O O O O O O O O O O O O O O E ..X.o.#.2.b.D % ",
"< v.9.7.7.....i 1 O O O O O O O O O O O O O O O O O O O O O O O O O O O O O O O O E ~ / O.#.2.b.H % ",
"< v.7.7.7.....i 1 O O O O O O O O O O O O O O O O O O O O O O O O O O O O O O O O E / X.+.#.2.m.D % ",
"< v.9.9.7.....i 1 O O O O O O O O O O O O O O O O O O O O O O O O O O O O O O O O E ~ X.O.#.1.m.D $ ",
"< l.y.9.7.....i 1 O O O O O O O O O O O O O O O O O O O O O O O O O O O O O O O O E ~ X.+.7.t.m.D & ",
"< l.r.9.7.....i 1 O O O O O O O O O O O O O O O O O O O O O O O O O O O O O O % O R ~ X.+.9.9.m.D & ",
"< l.r.9.8.....i 1 O O O O O O O O O O O O O O O O O O O O O O O O O O O O # 8 9 ; U / X.+.9.9.m.D & ",
"8 l.r.r.7.....i 1 O O O O O O O O O O O O O O O O O O O O O O O O O O O O * f A 8 E ..X.+.9.9.m.D & ",
"< l.r.9.7.....i 1 O O O O O O O O O O O O O O O O O O O O O O O O O O O # = N <.e E ~ X.O.2.7.b.D % ",
"< l.r.9.7.X...i - O O % O O O O O O O O O O O O O O O O O O O O O O O O O * M [ e E ~ ..O.8.8.b.D & ",
"< l.7.2.2.....i 3 * * = = & = O O O O O O O O O O O O O O O O O O O O O O = a [ e E ~ ..O.2.7.b.D % ",
"< i.#.+.+.....t f b m v v j d - O O O O O O O O O O O O O O O O O O O O O = i ^ 9 U ~ ..X.O.$.v.C % ",
": 5.[ ! ! ! ! r v ` ] Q Q R h - % O O O O O O O O O O O O O O O O O O O O & u R 3 p ! ! ! ! ( e.b % ",
"* y w 6 6 6 s 3 9 s y w r w 5 = # # # # O O % O O # O O O O # + O % O % O % 2 5 - 4 w r r r r v < % ",
"; s.x.j.x.x.x.I C N :.>.>.:.:.=.*.*.*.*.*.*.*.*.*.*.*.*.*.*.*.&.*.*.*.*.*.*.&.S ,  .s.x.x.x.j.c.F % ",
"> w.g.w.g.N.h.s.J Q e.e.u.y.u.u.i.u.u.y.u.u.u.u.u.u.u.u.u.u.r.l.y.u.u.u.u.u.6.{ 2 ;.w.w.0.w.w.Z.P * ",
": 4.7.4.8.B.0.a. .R 0.r.r.r.r.y.r.r.r.r.r.r.r.r.t.r.r.r.r.r.9.r.r.r.r.r.r.r.8.[ 2 <.%.4.0.7.%.S.P & ",
": #.7.#.4.M.%.a.| R $.7.8.8.9.9.9.9.9.9.9.7.9.8.7.2.7.7.9.9.2.9.r.r.9.9.9.8.#.^ 3 <.o.#.0.7.+.A.P & ",
": @.i.8.8.M.7.p.| Y X.#.8.2.7.9.9.9.9.9.9.2.8.2.#.#.#.#.7.7.#.9.8.9.9.9.r.#.O.! 2 <.X.0.v.0.%.A.P & ",
": @.7.#.#.t.%.a.| U ..+.#.#.#.#.#.#.#.#.#.#.#.+.+.+.#.+.@.#.@.#.#.#.#.#.#.+.X.! 2 } X.t.v.#.+.A.P $ ",
": @.1.1.2.7.8.=.V h ......X.....X.X...X.X.X.X.X.X.X.X.X.X.X.X.X.X.X.X...X...~ Y 1 ^ @.9.i.1.#.N.K % ",
"& a a N N a ) b e 5 t t t t t t t t t t t t t t t t t t t t t t t t t t t t t w = y a B Z a a &.l $ ",
"# 3 9 9 9 9 9 , ; = 1 1 1 1 1 1 1 1 1 1 1 1 1 1 1 1 1 1 1 1 1 1 1 1 1 1 1 1 - - $ - 9 9 9 9 9 e > # "
};
